<?xml version="1.0" standalone="no"?>
<!DOCTYPE svg PUBLIC "-//W3C//DTD SVG 1.1//EN" "http://www.w3.org/Graphics/SVG/1.1/DTD/svg11.dtd" >
<svg xmlns="http://www.w3.org/2000/svg" xmlns:xlink="http://www.w3.org/1999/xlink" version="1.1">
<metadata></metadata>
<defs>
<font id="kruti_dev_070regular" horiz-adv-x="1638" >
<font-face units-per-em="2048" ascent="1638" descent="-410" />
<missing-glyph horiz-adv-x="1024" />
<glyph horiz-adv-x="0" />
<glyph unicode="&#xd;" horiz-adv-x="1024" />
<glyph unicode=" "  horiz-adv-x="1024" />
<glyph unicode="&#x09;" horiz-adv-x="1024" />
<glyph unicode="&#xa0;" horiz-adv-x="1024" />
<glyph unicode="!" horiz-adv-x="718" d="M141 115l2 18q2 12 4 19q16 74 97 124q74 47 162 50q30 -1 59 -11q43 -8 69.5 -43.5t26.5 -78.5l-2 -21l-4 -20q-8 -39 -35 -68q-70 -100 -207 -100q-41 0 -67 8q-104 20 -105 123zM207 106q8 -29 45 -45l37 -4q25 0 37 4l36 19l27 24q14 18 19 37l2 9v12l-7 26 q-6 12 -16 21l-27 14l-28 4q-16 2 -41 -6l-37 -18q-37 -27 -47 -62v-35zM348 446l205 781h246l-271 -781h-180zM397 479h84l191 711h-84z" />
<glyph unicode="&#x22;" horiz-adv-x="675" d="M-43 889l27 98h860l-27 -98h-448l299 -486l-27 -94q-23 -23 -59 -47l-82 -35q-49 -20 -101 -24l-112 -8q-57 -4 -125 16q-168 47 -168 215v25l2 16l4 27l12 49l15 49l12 47l12 49l39 143q14 51 19 56zM35 436q0 -45 16 -84q37 -70 115 -104q37 -12 76 -12l-56 36l-26 25 q-16 16 -31.5 54t-13.5 65l2 47l12 51l104 375h-83l-115 -432v-21zM233 362l7 -47q12 -35 61 -55l61 -6q49 0 74 10l78 33l59 41q23 16 33 33l-258 440l-112 -412z" />
<glyph unicode="#" horiz-adv-x="1679" d="M-25 492l21 71h321q25 4 35 4q53 0 82 11q88 10 164 59q63 41 82 96l20 64l15 55l2 14l4 21l-688 2l26 98h1778l-27 -98h-837l-49 -184l-9 -23q31 4 46 10l40 8l111 17l107 6q90 6 167 -31q88 -39 127 -112q23 -47 23 -107q0 -31 -4 -49l-10 -45q-39 -174 -224 -264 q-100 -51 -200 -49l-84 2q-45 2 -68 8l-22 2l-27 10l25 96l10 -18l12 -12l33 -23l35 -6q53 0 88 16q47 23 67 54l21 30l22 45l21 54l20 65l13 55l4 52q2 31 -11 63q-16 76 -102 90q-14 2 -41 2q-43 0 -98 -10q-39 -8 -98 -31l-62 -22l-61 -21q-35 -12 -117 -37l-189 -28 l-34 -2q-16 0 -43 -4l-45 -4l-11 -33q0 -16 -4 -25l-12 -72l-2 -63q-4 -117 43 -188q59 -92 197 -93h51q27 0 39 5l39 8l55 12v-63l-21 -5l-22 -4l-27 -2l-28 -4l-66 -4l-72 -2q-264 -8 -385 113q-47 47 -67.5 100t-20.5 131q0 41 4 64l13 65l8 29l10 28zM96 301 q-8 -184 199 -276q18 -6 55 -17q4 -2 25 -6l37 -6q-100 29 -164 100q-51 55 -66 142q-4 25 -4 63l6 55l19 70q2 12 10 31l12 32l-88 3l-22 -64l-6 -27l-11 -49zM629 610l57 25q25 10 53 33l39 41q10 10 29 51l8 28l8 35l6 33l2 31l-77 2l-11 -64l-16 -57l-18 -51l-17 -35 l-24 -33zM1032 94q90 0 164 41q82 43 135 121q35 49 53 111l7 41l4 36q0 102 -65.5 166t-166.5 64q37 -3 66 -21q47 -20 74 -100q12 -39 12 -78v-29l-2 -12v-10l-6 -23l-7 -30q-8 -39 -36 -105q-39 -88 -125 -137q-41 -23 -107 -35z" />
<glyph unicode="$" horiz-adv-x="1040" d="M-8 406l51 190h346l96 356h183l-97 -356h349l-52 -190h-348l-98 -371h-182l98 371h-346zM35 436h383l-101 -370h68l100 370h359l14 64h-356l116 418h-67l-117 -418h-383z" />
<glyph unicode="%" horiz-adv-x="718" d="M47 215v14l4 19q14 68 82 110.5t146 42.5q33 4 56.5 -5t41.5 -27q31 -18 39 -84l-2 -19l-4 -18q-12 -59 -80 -107l-66 -32q-37 -10 -67 -11q-63 0 -107 31l-33 37q-6 14 -10 49zM104 215q4 -14 17 -25l26 -16l35 -4q20 0 33 4l35 16l26 25l15 31v28q0 10 -12 27l-25 16 q-12 6 -33 7q-17 3 -37 -7l-34 -16l-29 -25l-15 -30zM178 702v15l4 18q14 68 82 111t146 43q33 4 56.5 -5.5t41.5 -27.5q31 -18 39 -84l-2 -18l-4 -19q-12 -59 -80 -106l-66 -33q-37 -10 -67 -10q-63 0 -107 30l-33 37q-6 14 -10 49zM236 702q4 -14 16 -24l27 -16l34 -5 q20 0 33 5l35 16l27 24l14 31v29q0 10 -12 26l-25 17q-12 6 -33 6q-17 4 -37 -6l-34 -17l-29 -24l-14 -31z" />
<glyph unicode="&#x26;" horiz-adv-x="716" d="M-8 406l51 190h532l-51 -190h-532zM49 446h447l16 74h-442z" />
<glyph unicode="'" horiz-adv-x="1001" d="M-55 338l18 68l320 2l45 6q8 2 39 10q152 45 188 158v8l4 14l2 17l2 14q0 76 -98 96l-64 6h-61q-47 -6 -147 -32l-41 -15l-48 -20l-34 75l53 15l43 14l110 25l95 8l20 82h-362l26 98h1067l-26 -98h-445l-24 -94q28 -9 65 -23l49 -20q88 -53 82 -129l-2 -25l-4 -27 q-25 -98 -168 -163q-111 -51 -231 -64q-41 -4 -96 -4l-5 -31l-4 -57v-43l4 -27l7 -24l10 -21q39 -59 98 -90l60 -22l61 -7l70 2l96 15l33 8l18 -63l-39 -7q-18 0 -29 -4q-27 0 -43 -4q-29 0 -43 -4h-45l-43 -2q-59 -2 -155 14q-35 6 -76 13q-115 33 -176 75q-47 33 -64 72 l-14 33l-10 35l-4 35l-2 36l2 41q0 18 4 23zM76 272l6 -61q0 -90 119 -154q43 -23 100 -43l111 -18l-84 41l-82 45q-82 45 -82 129v18l-2 9v38l2 25l10 37l-88 2l-8 -29l-2 -22v-17zM354 387q207 20 297 127q33 39 33 86q0 76 -57 115q-59 49 -138 49q29 -10 58 -31 q39 -20 51 -65q8 -29 8 -68q0 -35 -16 -68q-29 -51 -131 -104q-20 -10 -47 -20.5t-58 -20.5z" />
<glyph unicode="(" horiz-adv-x="718" d="M-23 -111l31 7l45 12q16 4 25 10l41 25l39 28l20 23l10 8l-41 -2q-80 -4 -129 51q-25 25 -24 60l2 14l4 22q18 96 154 142q45 10 79 10q43 0 72 -10q51 -10 90 -70q12 -25 13 -55v-12l-2 -11l-5 -24q-18 -74 -82 -140q-74 -78 -151 -106l-78 -29l-102 -28zM55 -143 q92 10 203 102t111 207q0 20 -9 31l-18 22l-31 14l-39 5q-41 0 -73 -33q-16 -12 -25 -33l-8 -39q0 -33 16.5 -47t50.5 -18l27 2q12 0 16 4q1 -47 -73 -119q-70 -63 -148 -98zM145 588v14l5 19q14 68 81.5 110.5t145.5 42.5q33 4 56.5 -5.5t41.5 -27.5q31 -18 39 -84l-2 -18 l-4 -18q-12 -59 -80 -107l-66 -33q-37 -10 -67 -10q-63 0 -107 31l-32 37q-6 14 -11 49zM203 588q4 -14 16 -25l27 -16l35 -4q20 0 32 4l35 16l27 25l14 30v29q0 10 -12 27l-25 16q-12 6 -33 6q-16 4 -36 -6l-35 -16l-29 -25l-14 -31z" />
<glyph unicode=")" horiz-adv-x="1720" d="M-72 289q0 88 111 172q100 76 186 88l29 4q14 0 20 4l45 6l39 2l50 -6q20 -2 36 -14q12 -4 23 -25q2 -6 2 -39q0 -14 -8 -24l-19 -29l-12 -12l-158 -25l15 6l8 11l18 26l11 31q8 37 -17 41l-47 4q-39 4 -76 -45l-22 -47l-8 -56q0 -72 41 -104l16 -10l25 -6l188 73l4 -61 l-121 -49l-22 -12l-23 -21q-18 -18 -31 -47l-8 -53v-21l4 -28l13 -25l24 -23l35 -16l43 -6h14l11 2q162 33 241 68l84 36q33 14 41 23q-145 29 -201 131q-18 47 -16 90l2 47l12 49q49 199 256 285l82 23l113 18l360 2l43 162h-1402l26 98h1907l-27 -98h-243l-60 -227h-514 l-88 -33q-74 -29 -131 -123q-23 -37 -45 -111l-10 -51l-2 -43q-6 -147 151 -147q68 0 135 28q84 35 158 97q37 31 43 55l31 119h266l-143 -539h-267l82 309l-45 -30l-32 -21l-82 -45l-66 -27l-53 -12l-51 -8q-31 0 -48 -4h-55l-14 -6l-14 -15l-62 -37l-143 -63l-146 -55 q-53 -20 -141 -39l-18 -2l-35 -6l-43 -7l-39 -2q-66 -4 -123 27q-47 25 -59 90q-14 80 75 166l37 29l58 39l-25 -5l-49 -2q-33 -2 -58 5l-43 14q-49 25 -49 82zM-27 285q0 -27 33 -52l39 -12l49 -4l35 2l29 6q-29 4 -43 11l-35 14l-23 22l-8 33q0 68 47 119l31 33l45 39 q-43 -8 -90 -41q-20 -14 -29 -25q-39 -35 -59.5 -70.5t-20.5 -74.5zM20 -37q0 -49 46 -72l51 -16l63 -6l49 2l45 6q20 2 39 10l31 13l-35 -4l-41 -2h-24q-49 0 -93.5 16t-52.5 57l6 62l19 61l22 45l31 45l-59 -45q-39 -31 -66 -72q-2 -4 -16.5 -33.5t-14.5 -66.5zM301 526 l14 -6l17 -6l10 -14l4 -21l-2 -18l-4 -15l-4 -6l-2 -6l-4 -8l-2 -6l53 12l4 14l2 9l2 12l-6 27q-6 12 -18 18l-29 10zM565 289q0 -111 162 -164l80 -8l-47 26l-45 29q-31 25 -51 53q-12 27 -17 64q0 190 166 329q51 43 121 76q-172 -25 -270.5 -139.5t-98.5 -265.5z M1217 -53h83l127 479h-84zM1382 729h84l45 160h-84z" />
<glyph unicode="*" horiz-adv-x="1011" d="M387 758h19l14 4l37 8l32 14l43 25l37 29l17 16l12 16q-16 -4 -39 -4q-27 0 -61 15q-94 27 -95 100v18l5 17q25 98 155 141q43 10 82 10q43 0 72 -10q43 -8 72.5 -44t29.5 -79l-2 -20l-6 -29q-16 -76 -76 -141q-70 -74 -157 -107l-78 -28l-105 -29zM473 723 q203 55 275 203q25 51 24 110l-6 31l-18 23l-29 12l-37 4q-20 0 -37 -8l-33 -21l-26 -30l-11 -33v-33l13 -25l22 -16l33 -4l23 2l18 6q0 -55 -49 -108l-66 -54q-25 -20 -96 -59z" />
<glyph unicode="+" horiz-adv-x="20" d="M-1008 -276l2 14l2 18q6 63 86 113q43 27 105 39q10 2 37 2h33l24 -8q43 -10 72 -60l8 -49l-2 -18q-4 -41 -31 -78q-37 -53 -114 -80q-41 -10 -72 -10q-33 0 -57 8q-33 6 -50 25q-35 16 -43 84zM-948 -246v-28q4 -14 16 -25l27 -16q12 -6 33 -7l34 7l33 16l27 25l14 28 l2 31q-8 31 -39 43l-33 4q-22 0 -34 -4l-35 -16l-27 -25q-12 -10 -18 -33z" />
<glyph unicode="," horiz-adv-x="1140" d="M6 281l2 38l10 48l138 522h-123l26 98h1203l-27 -98h-381l35 -60l26 -43q43 -86 58 -165q6 -33 4 -52l-2 -28l-4 -29q-8 -57 -47 -111q-74 -102 -197 -143q-59 -20 -125 -20l-92 204h39q23 0 33 4q76 10 130 52.5t66 97.5l6 27l7 30l4 60q2 33 -9 67l-18 62l-12 20 l-17 25l-317 2l-186 -723q-6 -80 52 -133t138 -53q70 0 141 22q94 29 150 72l131 100l-45 -231l-139 -25l-103 -8l-100 -4q-160 -6 -305 102q-158 117 -150 273zM55 287q0 -80 43 -156q53 -96 119 -115l-27 37l-18 31q-20 35 -37 82q-12 55 -10 78l2 24l4 29l154 592h-84 l-135 -520q-2 -6 -5 -13l-2 -8l-2 -12v-8l-2 -21v-20zM473 -49l27 -4l32 -2h23q18 0 41 4l70 12q25 4 63 21l49 20l21 92q-16 -19 -41 -37l-35 -24q-27 -14 -55 -29q-16 -6 -62 -24q-55 -16 -133 -29zM569 414l37 -88q102 0 168 53q59 49 105 153l8 39l4 41q0 70 -23 127 q-12 29 -20 45l-35 64l-33 41l8 -19l11 -20l8 -23l8 -24l14 -55l5 -58l-3 -39q-2 -20 -3 -29.5t-9 -27.5l-14 -33q-63 -147 -236 -147z" />
<glyph unicode="-" horiz-adv-x="0" d="M-1178 -266l2 14l2 19q6 63 87 112q43 27 104 39q10 2 37 2h33l24 -8q43 -10 72 -59l8 -50l-2 -18q-4 -41 -31 -78q-37 -53 -114 -80q-41 -10 -72 -10q-33 0 -57 8q-33 6 -50 25q-35 16 -43 84zM-1118 -236v-28q4 -14 16 -25l27 -16q12 -6 33 -6l34 6l33 16l27 25l14 28 l2 31q-8 31 -39 43l-33 4q-22 0 -34 -4l-35 -16l-27 -25q-12 -10 -18 -33z" />
<glyph unicode="." horiz-adv-x="935" d="M25 477l2 31q2 25 8 39l90 342h260l-115 -426l-4 -12l-2 -9l-4 -12v-8l-2 -14v-11l6 -35l19 -26q12 -12 36 -19l58 -4q102 -8 158 62l18 33l18 53l115 428h-653l26 98h998l-27 -98h-84l-90 -342q-20 -82 -65 -129q-84 -109 -265 -150q-74 -16 -168 -16q-150 0 -237 55 q-47 29 -74 72q-27 51 -22 98zM63 481q0 -55 31 -92l31 -37l31 -18l-4 6l-2 8l-5 8q-2 10 -4 13l-4 22l-2 25l4 39l13 55l100 379h-84l-100 -377q0 -14 -5 -20v-11zM532 319l62 27q55 25 86 80l27 63l106 400h-84l-104 -395q-6 -37 -17 -64l-14 -35l-27 -41q-8 -14 -35 -35z " />
<glyph unicode="/" horiz-adv-x="819" d="M31 307l2 19l6 32q8 47 49 95q33 41 94 73l21 9l24 10l29 8l35 8l-49 4q-35 6 -74 29q-115 51 -115 143l2 21q0 18 4 24q16 100 156 156q104 41 197 45h37h55q20 0 51 -4q55 -4 80 -10q47 -10 71.5 -32t24.5 -58l-2 -19l-6 -20q-4 -12 -12 -25l-21 -29l-14 -14l-17 -18 l-198 2q16 6 20 10l25 25l20 28l13 27l4 20l2 15q0 14 -4 20l-15 17l-20 8l-25 4q-82 0 -139 -82l-25 -62l-6 -32l-2 -31q-4 -76 70 -129l4 -4l8 -2l8 -4q10 -2 13 -4l264 2l-17 -64l-167 2q-59 0 -106.5 -42t-66.5 -132l-6 -29l-2 -24q-2 -23 8 -49q10 -18 29 -33l43 -21 q25 -6 60 -6q59 0 124 23q84 29 152 67l107 62q41 23 49 41l-27 -94l-90 -52l-68 -32q-170 -82 -313 -82q-147 0 -246 45q-51 23 -79.5 61.5t-28.5 83.5zM78 305q0 -61 81 -108t185 -47l-70 28l-47 27q-29 16 -49 43q-10 18 -14 49q0 37 16 82q23 68 92 119q25 18 60 37 q-76 3 -158 -56q-96 -72 -96 -174zM94 731q0 -57 88 -108q12 -8 31 -15l66 -8l-41 25l-27 24l-21 35l-6 39q0 88 78 147l62 48l65 34q-78 4 -176 -55q-119 -72 -119 -166zM520 946q12 0 19 -4l20 -12q8 -6 14 -23l5 -37l-5 -22l-10 -29l-16 -24l-19 -17l84 2q10 4 19 15 l18 22l13 25l4 24q0 20 -11 33l-30 27l-43 16l-43 6h-9z" />
<glyph unicode="0" horiz-adv-x="1024" d="M20 311q0 57 5 76l18 84q8 37 33 96q108 261 315 353q82 35 168 34q68 0 125 -22q109 -43 152 -160q25 -74 20 -127l-6 -82l-19 -88q-18 -90 -81 -196q-111 -190 -275 -256q-82 -33 -170 -33q-135 0 -210 88t-75 233zM76 293q0 -55 12 -95t33 -73l31 -47l41 -41 q-16 43 -25 84l-8 86v43q0 25 4 37l2 28l2 23q0 96 49 237q23 72 49 119l70 127q-84 -34 -166 -192q-31 -61 -64 -150q-23 -90 -28 -145l-2 -19v-22zM240 195q-2 -45 4 -66l12 -45q8 -14 25 -29l38 -8q43 0 84 37q53 45 80 109l52 120l49 162l14 68l14 71l9 70l4 64v24 q0 49 -19 84q-10 33 -57 41q-68 0 -154 -145q-33 -55 -65 -134l-47 -147l-19 -76l-14 -69l-8 -66zM496 121q81 34 163 194q78 147 95 293v8l2 9v24q0 106 -45 168l-33 45q-20 27 -39 43l14 -43l11 -41l6 -43l2 -43l-2 -45l-2 -35q-2 -23 -4 -28v-23l-19 -121l-31 -116 q-27 -100 -118 -246z" />
<glyph unicode="1" horiz-adv-x="1024" d="M82 639l2 41q2 20 8 35q27 115 162 200q76 49 182 64q31 4 72 4q82 0 149 -18q102 -29 140 -125q18 -49 18 -111v-39q-2 -16 -8 -45l-21 -96q-25 -117 -143 -324q-63 -111 -119.5 -188.5t-87.5 -99.5l-268 55q16 10 43 35l43 41l78 88q45 51 67 92l39 71l47 93l15 37 l22 49l-43 -19l-53 -14l-59 -10l-56 -2q-102 -4 -172 49q-61 57 -57 137zM123 614l4 -14q8 -31 23.5 -50.5t37.5 -35.5l50 -22l51 -9l14 2h8l-28 17l-29 28l-23 33l-12 37q0 23 -4 31l-2 20q0 45 18 97q25 70 111 147q37 33 76 49q-56 5 -107 -26q-104 -49 -164 -177 q-25 -53 -24 -102v-25zM262 18l78 -26l45 43l35 41l53 63l43 60q23 31 76 135q121 240 121 414q0 45 -31 100q-10 16 -39 49q-14 18 -33 27l17 -41l8 -37l6 -43l2 -51q2 -35 -14 -107q-12 -51 -43 -131q-20 -55 -37 -92q-33 -74 -64 -131q-12 -23 -43 -68q-10 -16 -32 -49 l-41 -49l-52 -55zM332 627q-2 -49 20 -76l27 -23l37 -6l35 2l45 13l18 6l25 10l16 49l16 53l15 52l8 41l4 34l2 33q4 51 -18 82q-6 16 -25 25l-37 8q-57 0 -114 -74q-14 -18 -35 -63l-27 -84l-10 -43z" />
<glyph unicode="2" horiz-adv-x="1024" d="M23 336l22 88h209q55 0 88 6l49 10q98 18 176 97q63 63 80 139l6 29l6 26l5 47q2 31 -11 58q-10 41 -71 61l-60 8h-26q-45 0 -123 -33q-23 -10 -66 -32q-35 -23 -55 -43l-33 121l121 22l133 18l105 9q49 4 131 -11q135 -23 180 -104q31 -55 26 -102l-4 -48 q-2 -29 -10 -49q-16 -72 -70.5 -131t-157 -110.5t-188.5 -63.5q-16 -2 -34 -2q-33 0 -62 12l-8 -20l-10 -37l-11 -43l-2 -43l2 -37l13 -24l37 -52l36 -30l46 -17l61 -4h25q14 0 43 4l67 19q41 12 57 22l35 25l-32 -121h-394q-59 0 -110 18q-68 25 -109 76q-14 16 -31 43 l-18 45l-4 49l2 33l6 35q4 20 10 33l13 22zM145 229q0 -104 95 -157l39 -17l57 -14l-33 29l-22 26q-55 66 -56 150v28q0 14 4 23l7 22l14 29l-80 2l-18 -65zM471 422q80 0 183.5 60.5t123.5 166.5v8l2 11v26q0 76 -30 125q-14 31 -60 66q-12 8 -35 22q50 -73 50 -155l-5 -45 q0 -25 -8 -45q-10 -57 -59 -117t-96 -86z" />
<glyph unicode="3" horiz-adv-x="1024" d="M-80 100l119 133l20 -57l23 -39q55 -94 174 -94q18 0 39 2q6 2 37 8q72 16 123 99q31 51 43 108l14 66l4 57q4 51 -16 84q-12 29 -45 29l-152 2l23 80h149l49 6q45 20 74 73l25 64l2 12q2 10 4 12v13q2 10 4 12l4 25l2 24l-6 37l-19 29l-34 16q-29 8 -58 6l-35 -2l-32 -6 l-37 -12l-33 -17l-72 -47q-23 -14 -37 -39l-47 121q14 4 19 8l20 13q111 47 287 47q84 0 139 -10q63 -12 101 -29q104 -47 104 -146v-32l-6 -15l-2 -10q-12 -59 -60.5 -106t-111.5 -66l-57 -16l-76 -11q68 -10 135 -71q31 -29 46 -64t15 -75v-37l-6 -19l-2 -10 q-14 -72 -74 -135q-49 -53 -135 -88q-109 -45 -311 -45h-53q-43 8 -127 30l-82 37q-25 10 -72 45zM383 47q39 10 76 31q70 39 112 112q20 37 33 86l2 19l2 14l-2 27l-6 29q0 14 -8 24l-12 29q-12 29 -27.5 45t-34.5 26l8 -22l9 -29l2 -18l2 -17l2 -18v-72l-6 -22l-3 -12 q-8 -49 -22 -78q-6 -20 -31 -68q-33 -53 -96 -86zM573 582l43 12q23 10 48 29l47 45q16 23 26 51l2 14l2 25q6 84 -88 133l17 -45l6 -51l-4 -35q0 -18 -8 -41l-15 -39l-16 -35l-10 -16l-31 -31z" />
<glyph unicode="4" horiz-adv-x="1024" d="M-2 195l2 10v26l4 11q20 74 119 137q143 94 207 94l-41 8l-33 13l-29 8l-22 10q-127 57 -127 152v20q2 14 4 18q12 45 27 72l36 70l45 57q18 23 48 43l196 2q-12 -12 -18 -22l-29 -52l-41 -81l-27 -74l-4 -19q-2 -8 -4 -18l-2 -21v-18q0 -78 66 -121l35 -12l36 -10l31 8 q12 2 31 10q63 29 106 78q49 59 66 119l10 39l8 41l4 36l3 29l-3 31l-2 22l-12 33l203 2l12 -16l4 -10l6 -9l15 -45l6 -51l-6 -55q-16 -156 -217 -232l-70 -26l-94 -29l61 -27l45 -20q109 -63 109 -154l-2 -22l-2 -14q-25 -98 -162 -173q-115 -61 -274 -61q-125 0 -220 47 q-104 51 -104 146zM115 178q0 -45 43 -84l43 -24l57 -15l-31 27q-10 8 -16 29l-8 34l-2 45q-2 37 13 85.5t44 78.5l41 45l45 33q-80 -12 -158 -102q-37 -43 -55 -80q-16 -43 -16 -72zM119 670q0 -49 49 -99l51 -36q18 -8 55 -17l-26 37l-17 37l-12 37l-2 41q-2 53 27 112 q4 8 16 31l33 53q16 27 35 45l-82 2l-31 -32l-39 -58q-49 -72 -57 -153zM231 176q-8 -115 107 -115q61 0 112.5 51.5t69.5 131.5l4 28l2 27l-6 45l-16 37l-29 31l-39 26q-53 -12 -114 -65q-53 -47 -80 -131l-9 -37zM471 51q35 8 47 12q60 21 121 78q70 66 78 135 q0 27 -14.5 50.5t-36.5 46.5l-52 37l-53 22q23 -14 31 -31l22 -41l7 -24l6 -23l4 -49q6 -84 -66 -149l-18 -17l-23 -14l-24 -16zM614 547l25 6l23 8l14 6l12 6q27 14 45 39l41 58l23 61l14 90v39l4 51l-82 2l4 -26l2 -33l-2 -43l-6 -43q0 -16 -8 -43l-12 -39l-19 -37 l-24 -35l-29 -34z" />
<glyph unicode="5" horiz-adv-x="1024" d="M51 563v25l4 26l2 25l9 25q10 49 32 100q27 61 47 94l31 49l31 37l256 2l-41 -51l-41 -64l-21 -36l-16 -37l-14 -39l-11 -37l-16 -72l-4 -61q-2 -31 4 -62l19 -49q6 -16 26 -32q12 -6 39 -11l35 4l39 17l22 12l23 16l14 105l21 76q20 78 77.5 129t135.5 51q37 0 55 -8 q51 -8 68 -54q6 -20 10 -55l-2 -16v-13l-4 -16l-2 -14q-2 -20 -25 -64q-8 -18 -35 -59q-39 -53 -86 -78l2 -8l8 -41l5 -41v-33l-3 -12v-10l-6 -25l-8 -37q-12 -57 -59 -139q-8 -14 -29 -43l-55 -64l-68 -61l-241 90l22 12l25 17q94 63 139 157l22 64l15 80v14l2 23l-53 -23 l-50 -14l-43 -10l-34 -2q-125 -8 -199 61q-35 31 -54.5 77t-19.5 103zM98 549q0 -41 21 -88q4 -12 16 -29l43 -45q23 -14 58 -20l-31 36l-17 37l-8 41l-2 51v25q0 66 27 145q10 29 24 58l21 39l47 92l-74 2l-37 -55q-41 -59 -73 -187q-14 -55 -15 -102zM377 18l65 -38l37 32 l37 37l21 25l18 26l12 25l11 25l18 100l33 203q12 82 22 120q20 78 49 109l33 29l15 8l16 8l35 8l41 4l-19 6l-26 11l-29 6l-27 4q-51 0 -84 -31q-70 -63 -90 -200l-49 -324q-10 -74 -65 -125l-37 -35z" />
<glyph unicode="6" horiz-adv-x="1024" d="M-14 186l4 33l6 41q14 94 121 176q78 57 211 88q-31 0 -60 11l-41 14q-45 20 -77 55q-25 35 -25 80l2 23l4 28q47 180 289 221q123 18 178 17l111 -6q45 -2 88 -15q27 -6 45 -20l41 -29l-109 -117q0 43 -53 88.5t-123 45.5q-100 0 -145 -58l-29 -51l-27 -78l-8 -39 l-2 -32q-2 -39 19 -72q18 -23 55 -23l149 2l-20 -80h-152q-43 0 -90 -63l-41 -72q-23 -51 -31 -90l-12 -55l-2 -47q-2 -61 33 -96l37 -23l47 -8q129 10 227 112l43 46l58 67l67 -149q-14 -14 -51 -31l-94 -41q-57 -25 -142 -47q-70 -16 -122 -17q-84 0 -156 11 q-45 8 -60.5 14t-37.5 14q-125 49 -125 172zM25 186q0 -41 24 -75q31 -43 74 -64l39 -18l41 -15l37 -8l41 -2h14l12 4q-39 0 -78 17q-27 8 -60.5 41.5t-46.5 65.5t-13 71q0 102 59 180l43 45l65 51q-110 -28 -182 -112q-51 -57 -65 -129q-4 -20 -4 -52zM166 672 q0 -27 18.5 -48.5t51.5 -37.5l61 -21q20 -6 47 -2l-35 15l-28 22q-14 12 -29 35l-8 39q0 104 90 182l82 51l43 29l-86 -25l-60 -24q-68 -29 -110 -92q-37 -55 -37 -123z" />
<glyph unicode="7" horiz-adv-x="1024" d="M8 315q0 219 139 514l37 78l25 37l235 2l-30 -49l-56 -102q-57 -104 -73 -156l-45 -133q-4 -25 -17 -74l-14 -70l-10 -65l-2 -55q-4 -88 32 -140q14 -18 42 -31.5t67 -13.5q59 0 119 39q72 45 118 115l43 63l52 93l-72 32l-49 31q-57 35 -92 94.5t-31 110.5l2 27l4 28 q16 121 98 195q68 63 175 63q119 0 182 -80q55 -74 55 -192v-39q-2 -16 -8 -45l-19 -94q-20 -104 -88 -215q-119 -193 -305 -252q-92 -31 -192 -31q-80 0 -142 18q-109 33 -157 154q-23 57 -23 143zM43 303l6 -70q8 -39 21 -63l30 -57q20 -27 47 -43l-18 41l-10 47l-6 49 l-2 53v33l2 24q2 29 10 93l14 67q18 82 51 168q18 47 60 143q20 41 65 119l-77 2q-25 -32 -58 -102q-23 -45 -65 -164l-52 -176q-16 -57 -16 -131l-2 -21v-12zM467 612l6 -47q4 -18 23 -45l12 -18l14 -17l19 -18l20 -18l-18 49l-19 51l-6 37l-2 47q-8 166 139 287 q-139 -41 -174 -197q-14 -59 -14 -111zM489 72q144 69 269 268q115 182 114 311v11l2 8v12l-2 33l-6 37l-10 32l-12 35q-10 33 -37 60q-18 25 -49 43l18 -33l15 -43l6 -51l4 -54v-47l-4 -14v-10q-27 -193 -107 -340q-47 -86 -90 -142q-49 -61 -111 -116zM561 592 q-8 -98 86 -150l35 -12l14 -4l49 178l17 98l6 78q4 49 -14 86q-6 12 -17 21l-26 8q-23 2 -44.5 -17.5t-41.5 -54.5l-35 -80l-23 -94l-4 -31z" />
<glyph unicode="8" horiz-adv-x="1024" d="M-47 201v37l6 16l2 10q18 96 107 172l587 514l185 -114l-654 -562l-20 -34l-12 -33l-7 -31l-2 -22q0 -51 33 -74l39 -21l49 -6q53 0 109 33q66 39 108 98l39 56l49 77l154 -131q-63 -63 -133 -104q-143 -86 -307 -86q-150 0 -232 45q-100 55 -100 160zM-4 223l2 -20 l2 -25q2 -14 8 -28l15 -29l24 -29l39 -29l-12 27l-11 33l-8 31l-2 30v15l4 20l15 45l20 39l27 33l37 35l557 491l-54 43l-600 -540l-30 -39q-18 -23 -27 -54zM414 76q27 4 51 16l70 37q16 8 65 43q20 18 35 43l-53 43q-12 -36 -35 -59l-62 -66l-30 -27z" />
<glyph unicode="9" horiz-adv-x="1024" d="M129 453q-4 84 21 180q45 164 196 258q100 61 193 82l63 14l66 4q92 6 161 -47q47 -37 60 -94q4 -20 4 -47q0 -186 -174 -283q-51 -29 -125 -45l-37 -8q-20 0 -31 -4l-30 -2h-66l-20 2l-15 2l-8 4l14 -37l25 -51l29 -55l26 -45l56 -80l71 -80l41 -41l-246 -139 q-39 14 -86 69q-66 72 -102 146l-37 73l-26 76l-19 74zM174 485q0 -96 41 -229q14 -45 35 -74l61 -86l33 -41l64 -67l69 37l-45 36l-43 48q-76 82 -96 147l-21 63l-14 66l-8 61l-2 60l2 63q0 23 10 58l14 53q6 23 23 45l20 45l25 45l25 39l26 27q-17 -5 -37 -21l-45 -37 q-14 -12 -43 -47l-30 -45q-31 -57 -50 -119q-14 -72 -14 -127zM379 586l2 -31l2 -23q2 -10 4 -12l12 -4h17l18 -2h15l28 2l29 4q68 10 94 78l25 64l8 71v29q0 145 -92 158l-13 -2l-16 -3q-49 -6 -90 -73l-25 -54l-12 -51q0 -31 -4 -43l-2 -26v-82zM584 532q33 0 69 25 q14 8 31 23q70 61 70 161q0 98 -43 152q-39 45 -101 37l27 -37l20 -45l13 -55l4 -70l-6 -64l-19 -51l-28 -41q-10 -14 -37 -35z" />
<glyph unicode=":" horiz-adv-x="1689" d="M-25 492l21 71h305q18 4 27 4q23 0 65 11q84 20 136.5 61t68.5 94l20 64l15 55l2 14l4 21l-606 2l26 98h1788l-26 -98h-930l-49 -184l-64 -111l135 -2l58 39l61 43q66 27 144 37q16 2 53 2q76 0 135 -23q121 -45 160 -145q16 -47 16 -103q0 -33 -4 -49l-12 -51 q-10 -41 -35 -92l-45 -92q-37 -74 -60 -105l-41 -53h-251l49 66l37 57q45 70 79.5 141.5t47.5 122.5l14 62l4 57q4 57 -23 96q-23 31 -67 31q-57 0 -96 -47l-35 -51l-23 -56l-12 -55l-4 -39q0 -25 4 -37l14 -20l23 -13l29 -2h14l12 2l-16 -55l-13 -6l-24 -2l-31 -2h-28 l-66 2l-53 12q-57 14 -82 58l-12 34l-3 33l3 37q4 20 10 37l14 35l19 32l-275 2l-70 -18l-135 -20l-30 -2l-11 -33q0 -16 -4 -25l-12 -72l-2 -63q-4 -117 43 -188q59 -92 197 -93h51q27 0 39 5l39 8l55 12v-63l-21 -5l-22 -4l-27 -2l-28 -4l-66 -4l-72 -2q-264 -8 -385 113 q-47 47 -67.5 100t-20.5 131q0 41 4 64l13 65l8 29l10 28zM96 301q-8 -184 199 -276q18 -6 55 -17q4 -2 25 -6l37 -6q-100 29 -164 100q-51 55 -66 142q-4 25 -4 63l6 55l19 70q2 12 10 31l12 32l-88 3l-22 -64l-6 -27l-11 -49zM547 610l57 25q25 10 53 33l39 41 q10 10 29 51l8 28l8 35l7 33l2 31l-78 2l-10 -64l-17 -57l-18 -51l-17 -35l-24 -33zM866 389l6 -43q6 -18 23 -33l35 -22l51 -6l-18 18l-13 23l-6 26l-2 37q-2 25 10 53l33 78l43 78q14 27 41 53q-70 -10 -137 -92q-33 -41 -51 -86q-14 -53 -15 -84zM1167 31l95 2l86 155 l41 80l32 70l6 16l7 23l2 20l2 25q4 49 -20.5 110.5t-63.5 92.5q-25 16 -64 28l33 -28l23 -43l14 -54l6 -61l-6 -64l-17 -53l-73 -143z" />
<glyph unicode=";" horiz-adv-x="1327" d="M-4 444l6 86q2 16 4 21l12 -4h33l111 6q133 8 203 74q43 33 49 78l4 28l2 27l-6 43q-8 29 -17 43l-22 26l-8 15l-334 2l26 98h1389l-27 -98h-168l-237 -889h-260l67 250l-94 -60l-113 -47l-118 -32q-61 -10 -111 -11q-305 0 -375 219q-20 63 -16 125zM45 414 q0 -139 84 -205q27 -20 82 -47q45 -16 121 -33l-99 64q-66 53 -92 129q-6 23 -10 92l-2 28v35l4 21l-86 2v-21l-2 -12v-53zM238 545q59 0 137 18q113 25 147 92q23 45 23 111q0 20 -8 41l-21 53l-6 10l-8 17l-90 2l14 -25l16 -30l13 -35l4 -33q0 -57 -15.5 -92t-48.5 -64 l-65 -39q-35 -14 -92 -26zM262 389q-4 -102 44 -161.5t145 -59.5q57 0 120 16q80 18 209 113q47 35 74 72l139 520h-399l45 -25l35 -28q12 -12 18 -33l8 -41l-2 -25l-6 -24q-29 -111 -186 -168q-47 -16 -103 -27l-122 -8l-9 -21l-2 -14l-6 -45zM807 33h84l229 856h-84z" />
<glyph unicode="&#x3c;" horiz-adv-x="1208" d="M-80 291v16l2 10v11l2 8l2 12l2 8l2 11q18 90 90 172q63 70 168 116l82 25l113 20l401 2l84 187h-835l26 98h1299l-27 -98h-203l-102 -252h-555l-20 -6l-15 -2l-16 -4l-12 -4q-152 -66 -199 -250l-6 -25l-4 -29q0 -20 -4 -30v-23q0 -135 86 -186q33 -14 65 -15h49 q27 0 39 5l37 8l41 10l-12 29l-8 39q0 29 -5 43l-2 47q-4 117 73 183.5t208 66.5q41 0 70 -11q76 -18 106 -71q12 -25 16 -58q0 -119 -118 -215q-53 -43 -111 -67q-35 -14 -123 -31l-67 -12l-82 -11l-78 -8l-47 -2q-45 -1 -123 15q-29 6 -43 10q-27 8 -76 30 q-170 80 -170 228zM-27 297q0 -106 93 -176q31 -23 71 -41l76 -21q-29 14 -57 43q-18 25 -39 68l-23 76l-8 80q0 104 72 198q37 49 79 82t103 56q-117 4 -242 -115t-125 -250zM567 225l2 -37q2 -20 4 -28l5 -23q2 -10 4 -12q26 11 51 27l45 43q61 59 61 141q0 18 -4 26 l-6 21l-18 12l-31 4q-27 0 -46.5 -8t-31.5 -29l-22 -36l-9 -37q0 -23 -4 -35v-29zM586 96q61 0 164 66q115 74 114 153q0 68 -80 101l-49 8l-12 -2h-8q18 -4 31.5 -12.5t19.5 -22.5l6 -31l4 -39q0 -70 -78 -143l-49 -39zM819 680h84l90 209h-84z" />
<glyph unicode="=" horiz-adv-x="1177" d="M-47 129l235 74q14 6 21 10l27 25q31 29 69.5 98.5t50.5 126.5l11 51l4 45q0 94 -62 117q-23 6 -61 10q-57 0 -111 -31l-31 -18q-49 -29 -69 -59l-4 94l33 14l73 25q49 16 123 28q33 4 74 11h45q104 0 178 -41q84 -49 84 -144v-33l-6 -14l-2 -10q-6 -35 -23 -59 q-8 -23 -37 -58l-47 -57q-18 -18 -45 -35l197 88l133 502h-780l26 98h1209l-27 -98h-168l-237 -889h-261l89 330l-684 -275zM283 231l106 45l21 25l24 41l21 51l16 53l4 31l2 31q4 51 -26 100q-12 20 -35 43l-43 35l16 -27l12 -28l7 -35l4 -43q0 -68 -19 -123 q-10 -39 -20 -61l-25 -52l-31 -47zM627 33h84l229 856h-84z" />
<glyph unicode="&#x3e;" horiz-adv-x="1585" d="M-106 270l81 103q20 -41 58 -78q109 -88 323 -107q70 -6 101 -4l98 6q39 2 82 23q90 31 106 106l5 19l2 16q0 33 -28 53.5t-97 20.5l-267 2l-135 6q-88 4 -133 64q-10 20 -14 51v12l4 19q20 90 137 127l88 16l123 6l285 2l45 156h-725l26 98h1639l-27 -98h-168l-237 -889 h-260l102 377h-111l4 -8l3 -9l4 -20q0 -16 -4 -25l-7 -22q-23 -55 -77 -92t-137 -59.5t-152 -24.5l-258 -8l-11 4l78 -144q10 -20 23 -30l24 -23l27 -14l35 -4q80 0 135 32l25 15l30 20l-26 -110l-27 -5l-49 -6l-31 -2q-12 0 -31 -4h-32l-31 -2h-74q-20 4 -30 4l-80 13 q-100 29 -140 71l-43 64l-43 88l-16 39l-18 55q-20 4 -25 8l-8 2l-8 4l-37 17l-31 18l-16 12l-27 21l-8 8zM121 156l80 -172q29 -61 116 -86l15 -4l20 -5l23 -2l26 -4l-16 11l-12 6q-33 23 -56.5 49t-35.5 51l-60 131zM121 547q0 -20 13 -37t44 -27l58 -18l57 -4h16l13 2 q-41 8 -62 16q-27 6 -35 17l-18 20l-4 27q0 37 18.5 67.5t52.5 53.5q8 8 29 18l45 23l-37 -7q-18 0 -28 -4l-27 -6l-20 -6q-115 -35 -115 -135zM356 557q0 -39 33 -49l37 -12l45 -2l31 -2l291 2l55 -7l53 -12q27 -6 41 -16l25 -13l159 3l117 440h-246l-59 -221h-444l-48 -6 q-20 0 -30 -9q-18 -8 -35 -28l-23 -47l-2 -11v-10zM522 162h72q20 4 29 4q39 0 69 10q172 37 172 166q1 59 -69 90q-49 20 -101 25q-14 0 -26 -2q33 -4 51 -15q43 -12 55 -53l8 -41q0 -98 -129 -151l-55 -17zM750 713h84l49 176h-84zM1057 33h84l229 856h-84z" />
<glyph unicode="?" horiz-adv-x="747" d="M33 889l26 98h830l-27 -98h-463l-24 -19l-17 -14q-18 -16 -39 -49l-22 -57l-4 -27l-2 -21q0 -61 63 -90l27 -8l37 -4l252 2l-17 -61h-155l-29 -6q-14 0 -25 -9q-47 -20 -77 -63q-18 -27 -56 -117l-4 -10l-2 -8l-2 -13v-8l-2 -16v-12q0 -51 33 -74l41 -17l55 -4 q76 -6 188 47q102 47 173 99q33 25 40 39l-24 -95l-82 -47l-63 -30q-57 -29 -154 -56q-72 -20 -131 -20h-84q-47 8 -143 37q-111 51 -105 139l2 27l6 26q25 102 137 182l41 23l60 27l-15 -2h-34q-12 0 -45 4l-58 18q-43 18 -63.5 50t-20.5 67v16l2 13q6 33 21 61 q10 23 31 43l14 14l24 21zM94 276q0 -72 101 -100l79 -22l88 -7h23q14 0 21 5q-76 0 -125 18q-59 20 -99 68q-20 31 -20 63q0 88 67 176l43 39l74 53q-49 -14 -82 -32q-94 -37 -143 -138q-27 -53 -27 -123zM96 709q0 -51 54 -74l51 -23l53 -6h12l8 2l-38 15l-33 18l-35 33 q-6 10 -10 37q0 29 7 55.5t23 48.5l29 39l37 33l-70 2l-49 -55q-12 -18 -31 -60z" />
<glyph unicode="@" horiz-adv-x="847" d="M-211 -256l975 1550h156l-977 -1550h-154z" />
<glyph unicode="A" horiz-adv-x="737" d="M272 0l293 1094h260l-293 -1094h-260zM324 33h84l274 1020h-84z" />
<glyph unicode="B" horiz-adv-x="1077" d="M-39 266l2 21v22l4 21l6 20q27 90 68 142q100 125 281 165q92 20 167 21l203 -2l58 213h-717l26 98h1244l-27 -98h-291l-70 -264l31 -27l33 -23q58 -62 58 -132q0 -7 -1 -13l-2 -27l-2 -20l-4 -14l-2 -11q-18 -90 -84 -170q-127 -152 -426 -176q-53 -4 -125 -4 q-334 0 -409 156q-20 45 -21 102zM0 274q0 -111 84 -170q61 -43 174 -57l-78 37q-59 37 -84 90q-14 31 -14 72v16l2 12q2 33 27 119q31 70 61 109q76 94 201 135q-104 -8 -200.5 -70.5t-141.5 -152.5q-31 -63 -31 -140zM203 248v-10q0 -79 57 -125q23 -18 66 -31.5t90 -13.5 q70 0 129 18q106 31 172 129q43 63 55 123l10 47l4 47q1 7 1 15q0 34 -15 67q-35 68 -121 94q-33 10 -90 13h-10q-53 -1 -99 -19q-50 -20 -101.5 -59t-86.5 -90.5t-47 -102.5l-12 -53zM526 55q141 12 256 103q123 98 123 243q0 111 -63.5 164t-141.5 53q25 -6 45 -24 q57 -31 76 -125q2 -10 2 -35v-18l-2 -8q-6 -74 -30 -129q-33 -102 -144 -173q-51 -33 -121 -51zM723 651h84l61 238h-84z" />
<glyph unicode="C" horiz-adv-x="690" d="M18 369l2 30q4 51 41 123q88 162 320 215q80 18 170 19h39q16 0 53 -8q31 -4 90 -21l60 -25l41 -26l-19 -60l-37 21l-26 16q-61 27 -117 37q-12 2 -39 2q-68 0 -96 -14l184 -391l18 8l13 8l16 12l10 11l-20 -70l-80 -45l-92 -33l-98 -22l-99 -6q-14 -1 -27 -1 q-48 0 -100 11q-131 29 -180 110q-27 45 -27 88v11zM33 889l26 98h752l-27 -98h-751zM66 381l2 -27q0 -10 4 -24q12 -72 108 -115l76 -25l86 -8l35 2q12 0 33 4l-107 21l-59 18q-70 29 -94 115q0 14 -5 20v19q0 121 142 248q68 61 155 94q-75 -10 -147 -45 q-147 -72 -203 -184q-27 -53 -26 -98q-1 -8 0 -15zM283 371q0 -109 98 -142l70 -8l69 6q35 2 74 21l37 16l-187 391l-32 -22l-31 -29q-25 -23 -53 -74q-25 -41 -35 -88l-8 -34l-2 -19v-18z" />
<glyph unicode="D" horiz-adv-x="1208" d="M23 328l2 39l10 45q41 176 221 268q104 51 209 51q98 0 168 -33l69 -32l60 223h-729l26 98h1270l-26 -98h-281l-66 -248l74 43q20 12 96 31q37 8 82 8h25l10 -2h10l23 -4l27 -4l-70 -107q-39 51 -123 51q-35 0 -90 -32q-18 -10 -43 -29l-31 -29l-12 -8l-150 -559h-260 l58 211l-52 -29l-38 -18q-100 -47 -203 -47q-127 0 -195 53q-72 54 -72 142q0 8 1 16zM61 330q0 -86 64.5 -136.5t173.5 -50.5q-41 8 -66 27l-51 37q-35 41 -41 112l2 31q2 25 9 39q16 57 45 111q45 88 137 153q43 31 98 45h-9q-106 0 -212 -90q-110 -94 -141 -215l-4 -16 l-3 -15l-2 -16v-16zM283 336v-14q0 -56 30 -89q14 -18 37 -28l49 -8q31 0 60 10l71 35l45 28l27 25l84 319l-27 11l-20 8l-55 16l-41 6h-9q-48 0 -110 -30l-25 -19q-37 -29 -64.5 -76t-39.5 -104l-10 -49zM575 33h84l230 856h-84z" />
<glyph unicode="E" horiz-adv-x="856" d="M-78 250q0 25 4 37l6 35q37 123 160 182q39 18 115 37q37 8 100 10l92 2l90 336h-456l26 98h918l-27 -98h-207l-90 -336h355l-17 -64h-354l-35 -129q-35 -127 -156 -198q-59 -35 -120 -53q-59 -17 -114 -17h-17l-109 6q-45 2 -80 23q-84 37 -84 129zM-35 258 q0 -59 47 -96l37 -23l33 -8q-20 10 -31 35l-8 65l2 27q2 18 8 35l31 74q41 76 98 114q31 20 64 33q-43 0 -94 -16q-33 -12 -78 -43q-72 -59 -103 -158l-4 -23zM143 238q-2 -20 4 -37l15 -25l22 -14l27 -4l35 6q35 12 59 53l17 39l61 233h-59q-18 0 -39 -12q-49 -16 -95 -82 q-23 -33 -32 -71l-13 -48zM229 127h33l25 8q80 29 127 84q25 29 35 66l163 604h-84l-163 -602q-12 -72 -50 -105q-12 -18 -36 -32z" />
<glyph unicode="F" horiz-adv-x="790" d="M-8 434l2 31l6 41v16l2 13l23 -5l59 -2h76q49 8 147 35q147 59 168 166l8 43l4 39q0 102 -88 102q-66 0 -98 -39l-33 -38q-6 -20 -22 -62v-12l2 -31l12 -31l2 -6l6 -6l-180 2l-6 4l-2 6l-8 21l-2 27l2 26l6 29q20 94 143 135q72 25 109 27l119 8q11 1 23 1q42 0 91 -11 q29 -6 86 -29q90 -52 90 -135v-11l-2 -28l-4 -29q-37 -150 -241 -213q-18 -6 -74 -20q-61 -16 -82 -17h-17q-20 0 -32 6l-4 -18l-4 -20l-5 -23v-29q0 -41 9 -67q12 -66 79 -99q39 -14 87 -14q154 0 245 53q51 18 101 58q35 20 67 65l-31 -112q-51 -36 -92 -50l-125 -45 l-139 -30l-78 -11h-49q-317 0 -352 232q-6 37 -4 57zM33 391l4 -26l8 -27l12 -27q45 -74 133 -112l68 -21l72 -6h18l12 2l-43 14q-23 6 -38 15l-64 33q-20 10 -49 38l-35 56l-8 20l-6 25l-4 26v62l2 12q2 10 4 12l-80 2l-4 -16v-16l-2 -19v-47zM100 741l2 -10l2 -8l7 -8 l75 2l-4 4l-2 8l-2 12v17l2 26l13 29q16 41 61 80q8 6 31 20l41 17l57 16q-16 2 -29 2q-27 0 -69 -12q-16 -4 -43 -14q-82 -29 -121 -91l-17 -36l-4 -37v-17zM342 549q66 0 141 55q96 70 111 144l2 10v14q0 31 -8 54.5t-29 43.5l-41 33q-16 8 -49 17l23 -17l18 -24l12 -33 l4 -41l-2 -17l-2 -22q-4 -35 -25.5 -82t-47.5 -70l-54 -45q-23 -14 -53 -20z" />
<glyph unicode="G" horiz-adv-x="1433" d="M-55 307l12 58q16 76 68 157q78 125 229 174q71 24 127 24q8 0 16 -1l90 -6l54 -8q80 -12 114.5 -29t42.5 -25l-88 -71l-16 16l-12 20q-33 37 -123 37q-45 0 -80 -24q-45 -33 -68 -76l-43 -84l-41 -113q-16 -43 -18 -77l-6 -76q-2 -35 4 -56l14 -43q8 -14 25 -28l35 -8 q51 0 102 43l66 90l120 182q152 229 295 305q29 14 78 25l53 10h41l43 166h-1046l26 98h1598l-27 -98h-287l-57 -215q33 -16 45 -66l15 -55l6 -59v-39l-2 -17v-10l-7 -29l-10 -39q-43 -164 -182 -268q-123 -92 -258 -92h-62l-90 12t-86 25l-34 12l-29 14l-23 13l-14 12 l96 88l19 -45q31 -41 75 -59l52 -9q39 0 73.5 18.5t75.5 61.5q55 57 90 148q12 31 25 69l18 89l8 77q0 135 -77 136h-9l-8 2h-8q-76 0 -156 -97q-55 -66 -180 -241l-112 -158q-37 -53 -86 -90q-37 -29 -91.5 -48.5t-113.5 -19.5q-213 0 -281 140q-24 47 -24 103q0 36 4 54z M-14 264q0 -96 65 -158l45 -26l72 -25l-35 41l-24 39l-21 51l-6 58q0 160 80 271.5t215 170.5h-8q-137 0 -260 -129q-66 -70 -94.5 -138.5t-28.5 -154.5zM840 39q147 8 260 131q121 131 121 295q0 74 -43 129q-18 25 -42 41t-55 27l21 -25l12 -33l6 -39l4 -41v-41 q0 -68 -18 -139q-35 -137 -139 -229q-57 -51 -127 -76zM1075 696h84l49 193h-84z" />
<glyph unicode="H" horiz-adv-x="937" d="M-86 256v37l6 16l2 13q10 57 55 104q45 59 148 94q84 29 172 31l129 2l63 233l7 33l4 33q0 20 -4 29l-13 24q-14 20 -55 21q-72 0 -98 -66l-23 -57l-4 -33v-16l2 -29l8 -31l6 -8l-198 2l-8 8l-2 11l-7 14l-2 16q-2 10 -4 13v16l2 20l4 27q12 74 105.5 121t228.5 47 q193 0 264 -107l19 -45l14 -63l-55 -213h358l-16 -64h-358l-35 -129q-35 -131 -174 -200q-102 -51 -197 -64q-34 -4 -58 -4h-16l-110 6q-43 2 -76 23q-84 37 -84 135zM-47 258q0 -57 49 -96l39 -25l33 -8l-17 14l-14 25l-10 33l-2 39l2 24l8 33l31 74q25 45 47 63l57 49 q29 18 62 31q-47 0 -95 -16q-35 -12 -80 -43q-59 -49 -83 -103q-6 -14 -21 -55l-4 -23zM133 238q-2 -20 4 -37l15 -25l22 -14l27 -4l47 6l45 18q18 10 35 31l20 43l62 233h-97q-18 0 -39 -12q-49 -16 -94 -82q-23 -33 -33 -71l-12 -48zM133 756l2 -21l6 -16l86 2l-10 16 l-2 23v8q2 10 4 12l25 66q25 51 84 86l61 26q-57 -6 -90 -20l-63 -27q-29 -12 -66 -55q-27 -31 -35 -76l-2 -10v-14zM262 141h33q29 8 90 33q78 41 96 111l135 526q0 59 -57 107l-39 18l-37 8l25 -16l16 -25l11 -31l4 -32l-4 -35q0 -12 -9 -43l-129 -475q-4 -23 -22.5 -64 t-57.5 -61z" />
<glyph unicode="I" horiz-adv-x="692" d="M18 889l27 98h768l-27 -98h-385l-112 -430l-2 -37v-7q0 -67 78 -91q29 -6 71 -7q78 0 207 58q33 14 84 41l41 30l-18 -86l-86 -41l-105 -32l-104 -23l-86 -8q-162 0 -244 61q-82 62 -82 152v12l2 31q2 25 8 39l86 338h-121zM78 465q0 -61 59 -117q14 -12 29 -22 q4 -2 33 -19q37 -14 69 -14l13 2h8l-43 29l-43 30l-33 41q-6 16 -10 51l2 23q0 16 4 25l100 395h-84q-4 -25 -16 -74l-45 -178l-39 -143q-2 -14 -4 -19v-10z" />
<glyph unicode="J" horiz-adv-x="1495" d="M-53 451l440 106q-12 -4 -22 -4q-35 0 -111 33q-111 45 -111 129v18l4 17q29 111 168 172q121 51 275 51q150 0 237 -43q100 -49 101 -144l-2 -20l-4 -23q-59 -170 -271 -243l377 -129l139 518h-137l25 98h567l-27 -98h-165l-238 -889h-262l84 315l-666 -323l-127 160 l586 233l-236 80l-524 -184zM-12 432l37 -55l421 129l-45 33zM176 723l2 -18l4 -19q20 -51 78 -74l43 -16l53 -12l-37 20l-24 25l-19 26l-10 31l-6 31l-2 26q-1 7 -1 14q0 94 103 146h-6q-46 0 -112 -57q-35 -31 -48.5 -59.5t-17.5 -63.5zM279 143l36 -55l594 258l-67 23z M385 694q0 -25 8 -47q8 -14 31 -35l33 -18l12 -6q37 10 53 18l39 19q94 45 121 137l6 35l4 26q0 49 -33 72q-12 12 -36 18l-45 7q-29 0 -60 -13l-53 -35q-23 -23 -45 -57l-27 -72l-6 -30zM524 571q27 2 39 7q55 14 127 71q111 88 111 180v13l-2 10q-10 49 -74 68l-53 8 l-31 6l33 -19q14 -8 20 -16l13 -20l8 -27l6 -45q0 -78 -72 -150l-57 -47zM979 33h84l229 856h-84z" />
<glyph unicode="K" horiz-adv-x="1511" d="M-117 248l82 76q16 -33 49 -66q18 -18 82 -43q53 -20 131 -33q68 -10 187 -10l63 6q94 23 117 109l2 18l2 14l-6 33l-14 27l-27 16q-12 6 -35 6l-297 5q-102 14 -137 59q-23 27 -23 63v19l4 16q20 84 142 127q45 16 84 19l133 6l8 -2l709 2l43 174h-1149l26 98h1577 l-26 -98h-168l-238 -889h-260l180 651l-698 -8q-8 -2 -12 -4l-11 -4q-55 -23 -71 -80l-4 -14v-11q0 -39 30 -53l17 -8l16 -4l15 -4h16l280 2q39 0 64 -10q40 -6 72 -42q28 -32 28 -68v-9l-2 -27l-6 -24q-23 -86 -151 -144q-63 -20 -122 -31.5t-153 -11.5h-41l-33 2l-26 2 l-21 4v-22l2 -39q0 -14 9 -25q25 -49 73 -73l35 -11h31l135 25l-23 -78h-227q-20 4 -29 4q-43 0 -67 9q-49 6 -103 34q-43 23 -73 60l-17 24l-10 27q0 20 -4 31l-2 32v35l2 13q2 10 4 12l-88 39zM86 92q0 -111 119 -153q39 -14 80 -15q-47 10 -92 74q-20 27 -31 53l-8 51 l2 15l4 14l-66 16l-6 -34zM104 524l7 -30l30 -29l43 -23l47 -6l17 2l16 4l-31 15l-20 20l-10 23v32q4 27 10 43l14 35l25 27l39 29q-51 -4 -88 -18.5t-60 -37.5l-24 -37zM535 166q39 2 53 6q55 10 104 53q35 31 49 88q1 4 1 8q0 28 -50 66q-47 33 -110 41l-11 -2l-14 -2 l33 -18l31 -29l10 -19l10 -16l2 -18v-19l-12 -45l-19 -35l-14 -16l-16 -12l-23 -17zM995 33h84l230 856h-84z" />
<glyph unicode="L" horiz-adv-x="1239" d="M-25 492l21 71h307q20 4 29 4q27 0 71 11q178 41 215 155l21 64l14 55l2 14l4 21l-626 2l26 98h1323l-18 -98h-453l-49 -184q-33 -123 -268 -185l-96 -16l-131 -12l-11 -33q0 -16 -4 -25l-12 -72l-2 -63v-18q0 -105 42 -169q46 -70 132 -87q33 -7 59 -7h7l100 7 q31 2 100 22l35 10l45 21l14 -62l-36 -18l-35 -10l-123 -21l-152 -8q-16 -1 -32 -1q-105 0 -213 34q-158 49 -207 180q-20 53 -21 131q0 41 4 64l13 65l8 29l10 28zM96 301v-14q0 -174 199 -262q18 -6 55 -17q4 -2 25 -6l37 -6q-100 29 -164 100q-51 55 -66 142q-4 25 -4 63 l6 55l19 70q2 12 10 31l12 32l-88 3l-22 -64l-6 -27l-11 -49zM567 610l58 25q25 10 53 33l39 41q10 10 28 51l9 28l8 35l6 33l2 31l-78 2l-10 -64l-16 -57l-19 -51l-16 -35l-25 -33zM666 463l20 78h526l-45 -80z" />
<glyph unicode="M" horiz-adv-x="1341" d="M-135 197l74 65l24 -43l29 -39q51 -70 166 -110q104 -37 256 -37q94 0 188 45t119 123l6 32l2 21q0 33 -10 49q-8 37 -64 59l-41 9l-378 4l-80 18q-45 16 -70 42t-25 65l7 39q27 92 141 137q86 35 213 35l305 2l47 176h-741l26 98h1446l-26 -98h-465l-64 -242h-436 l-53 -6q-74 -8 -105 -72q-4 -16 -16 -47v-12l6 -33l21 -22l28 -15l39 -4l314 2q59 0 94 -12q88 -12 127 -80q18 -33 18 -78l-4 -35q0 -20 -8 -38q-37 -137 -230 -189q-131 -35 -352 -35q-240 0 -377 68q-80 39 -151 158zM104 502q0 -23 19.5 -45.5t48.5 -30.5l72 -20l78 -7 q-90 6 -113 72l-8 57q0 72 59 107l43 24l51 19l-8 2h-12q-41 0 -74 -10l-35 -11q-2 -2 -30 -18q-90 -53 -91 -139zM582 6q156 0 261 79t105 196q0 31 -16 53q-18 41 -109 67q-35 8 -71 9h-23l-10 -2l-6 2q118 -45 118 -146q0 -152 -137 -217q-12 -6 -49 -20zM768 684h84 l51 205h-84z" />
<glyph unicode="N" horiz-adv-x="1331" d="M12 229l2 31l6 31q12 63 74 124.5t152 92.5l37 12l49 15q-4 -2 -47 -3l-92 27q-135 39 -136 148l2 22q0 16 4 25l9 24l12 25l16 22l23 25l16 14l27 23l-133 2l26 98h1500l-27 -98h-299l-41 -154l33 -30l32 -29q12 -18 23 -55l8 -64l-2 -37l-2 -24l-6 -27q0 -12 -8 -39 q-96 -307 -461 -389q-109 -25 -258 -25q-236 0 -361 33q-96 25 -151 90q-27 46 -27 85v5zM53 231q0 -84 109 -137l94 -33q55 -10 100 -10q-90 12 -147 58q-68 51 -68 129q0 100 86 172l37 30l86 70q-115 -12 -213 -102q-84 -76 -84 -177zM98 725q0 -59 49 -109 q27 -20 54 -30q35 -10 65 -11q-84 47 -84 150q0 53 56 109l22 22l35 31l-84 2l-33 -31l-22 -22q-47 -47 -58 -111zM285 242q0 -43 22 -78q49 -59 156 -80l100 -8q13 -1 26 -1q75 0 163 29q145 49 223 193q47 90 59 154l2 10q2 10 4 12v14l4 17l3 28l2 25l-7 45 q-2 20 -11 37.5t-27 26.5l-35 8q-61 0 -109 -47q-23 -23 -39 -54l-26 -67q0 -14 -4 -23l-3 -20q0 -47 37 -68l29 -12l39 -2h16l9 2l-29 -76l-72 6q-33 6 -55 27q-57 40 -57 106v9l2 34q2 20 8 35q14 57 56 110.5t95 76.5l47 20l66 23l35 135h-590l-47 -47q-31 -31 -43 -60 l-25 -57q0 -14 -4 -23l-2 -20q0 -25 9.5 -45.5t29.5 -38.5l43 -23l55 -8l174 2l-18 -69h-115l-28 -6l-27 -11l-29 -20l-28 -25q-53 -57 -78 -145l-4 -29zM834 113q5 -1 11 -1q53 0 169 101q80 70 125 154q12 23 24 69q2 12 2 37q0 53 -7.5 78.5t-27.5 58.5l-36 39 q-14 16 -41 19l6 -15l8 -14l14 -41l4 -49q1 -12 1 -24q0 -24 -3 -50q-8 -53 -32 -117q-31 -84 -109 -161q-47 -47 -108 -84zM1010 715h84l45 174h-84z" />
<glyph unicode="O" horiz-adv-x="720" d="M18 369l2 30q4 51 41 123q88 162 320 215q80 18 170 19h39q16 0 53 -8q31 -4 90 -21l60 -25l41 -26l-19 -60l-37 21l-26 16q-61 27 -117 37q-12 2 -39 2q-119 0 -199 -80q-37 -31 -59 -69q-35 -57 -45 -101l-10 -41l-2 -36v-12q0 -92 86 -126l59 -8h14l11 2q90 0 194 49 l70 33q25 12 26 23l-20 -70l-80 -45l-92 -33l-98 -22l-99 -6q-14 -1 -27 -1q-48 0 -100 11q-131 29 -180 110q-27 45 -27 88v11zM33 889l26 98h750l-27 -98h-749zM66 377l2 -29q0 -10 4 -24q10 -66 104 -113l74 -23l86 -8h18l33 4l23 4l-113 21q-41 8 -53 14 q-37 16 -59.5 43t-34.5 70q0 14 -5 20v19q0 78 52 153q10 16 43 52q96 104 202 143q-106 -12 -204 -72q-105 -65 -146 -159q-27 -59 -26 -102q-1 -6 0 -13z" />
<glyph unicode="P" horiz-adv-x="790" d="M-10 637l18 68h799l-19 -68h-270l-26 -12l-23 -9q-119 -66 -147 -194l-9 -37l-2 -29v-10q0 -59 45 -86l52 -22l65 -7q131 0 283 86q74 43 112 103l-26 -101l-80 -53l-62 -33q-66 -35 -172 -61q-82 -20 -172 -20q-125 0 -220 51t-95 153v21l2 12l6 23q33 121 129 172 l43 22l64 29zM33 889l26 98h852l-26 -98h-852zM80 358q0 -123 166 -172q45 -12 86 -12h12l37 2l33 6q-152 0 -221 115q-20 33 -21 74q0 49 31 94q35 55 88 92l49 35l72 41l-93 2l-69 -41q-37 -23 -49 -35q-55 -39 -90 -98q-31 -51 -31 -103z" />
<glyph unicode="Q" horiz-adv-x="1679" d="M-59 889l26 98h1880l-26 -98h-817l-66 -248l61 29l78 28l88 19l90 6q15 1 29 1q124 0 215 -79q75 -64 75 -149q0 -8 -1 -17l-4 -47q0 -16 -4 -24l-6 -25q-37 -145 -173 -227q-131 -78 -272 -78h-14l-68 2h-31q-25 6 -36 8l-27 2l-29 8l23 86l20 -18l27 -14l29 -13l26 -2 h12q85 0 160 76q25 25 54.5 79t37.5 101l9 45l4 49q1 11 1 22q0 101 -85 136q-33 12 -70 12q-86 0 -170 -45q-18 -10 -31 -22l-41 -31l-149 -559h-258l80 297l-25 -14l-20 -11q-43 -20 -121 -34q-59 -10 -119 -11q-131 0 -207 62q-29 23 -59 73q-21 49 -21 88v7l2 32 q0 12 5 31l49 193l34 123l17 51zM53 459v-7q0 -32 15 -67q27 -61 118 -106q43 -14 76 -15l-59 37l-41 39q-16 14 -27 43l-8 49l2 19l4 22l109 416h-84zM250 395l6 -47l18 -33l33 -22q23 -6 53 -6q92 0 177 47l32 18l41 29l135 508h-370l-123 -459zM557 33h84l229 856h-84z M1055 109q123 0 223 78.5t137 197.5l6 41l4 37q0 55 -16 88q-47 133 -215 133q37 -2 66 -20q86 -39 86 -172q0 -63 -15 -103q-41 -174 -172 -246q-45 -25 -104 -34z" />
<glyph unicode="R" horiz-adv-x="788" d="M-43 231v31l2 12v11l6 24l8 35q49 209 248 295l76 23l104 18l535 2l-16 -64h-371q-117 -16 -163 -56t-81 -97q-37 -63 -51 -129l-14 -70l-4 -57q-1 -9 -1 -17q0 -66 44 -102q20 -18 47 -29l59 -8l39 4l53 13q16 4 49 16q23 6 35 16l-29 -102h-210l-136 6q-47 2 -98 25 q-131 57 -131 200zM2 227q0 -43 12 -67q33 -62 123 -105l88 -20q-139 57 -139 192q0 78 23 142q51 139 178 225q55 37 119 55q-145 0 -269 -114q-135 -127 -135 -308zM33 889l26 98h850l-26 -98h-850z" />
<glyph unicode="S" horiz-adv-x="4" d="M-1040 1176l47 20l53 18l45 7q31 0 70 -4l57 -7q47 -4 94 -32q8 -6 31 -21l268 -170h41l-55 53l-123 129l-57 58l-41 37l-35 24l-37 17l-18 6l-19 4l-16 2l-19 2l-43 -6q-18 -2 -39 -15l-6 -6l-8 -6l-20 70l39 8l26 6l72 14l57 5h60q18 0 57 -5q86 -6 145 -43 q33 -20 68 -59l248 -274l16 -7h8q16 0 33 9l29 22l8 8l2 7l-14 -60h94l-27 -98h-717l27 98h10l-65 39l-84 45q-115 61 -178 62q-27 0 -37 -5l-33 -12l-4 -4l-8 -6zM-954 1157q35 0 90 -16q47 -8 106 -41l99 -53l84 -62l98 2q-78 70 -187 117q-132 58 -217 58q-8 0 -16 -1z M-715 1343q109 0 301 -210l68 -74l65 -74l99 2l-125 137l-70 72q-63 66 -153 113q-71 39 -118 39h-9z" />
<glyph unicode="T" horiz-adv-x="1013" d="M-45 383q0 25 2 42t10 42q0 12 10 29l17 43l10 36l8 17l260 2l-12 -27l-22 -55l-23 -59l-8 -31l-10 -41l-2 -39v-11q0 -55 36 -91q16 -18 48 -31l73 -8q92 0 172 61.5t105 159.5l2 14l4 21v10l2 10v19l-6 55l-19 45l-24 29q-8 6 -25 10l-94 2l20 76h674l-20 -76h-301 l8 -14l12 -9q14 -20 26.5 -57t12.5 -65l-4 -43q0 -16 -4 -25l-6 -21q-37 -125 -192.5 -198.5t-360.5 -73.5q-172 0 -275.5 63.5t-103.5 188.5zM-2 383q-1 -8 -1 -16q0 -58 39 -106q44 -54 109 -75q47 -14 93 -14l14 2h10q-80 18 -131 70.5t-51 138.5l6 51l18 64l11 24l14 37 l-84 2l-14 -39l-11 -24l-18 -64zM33 889l26 98h1076l-27 -98h-1075zM453 203q86 0 192 76q117 84 117 178v28q0 57 -19 99l-20 34l-10 19l-84 2l20 -35l13 -22l12 -54l4 -71v-8q0 -76 -68 -154q-61 -72 -157 -92z" />
<glyph unicode="U" horiz-adv-x="878" d="M-25 362l5 31l6 35q12 76 76.5 137.5t154.5 91.5l76 19l106 16l652 2l-17 -61h-299l6 -15l7 -8q2 -10 4 -12l6 -10l14 -53l6 -56q0 -27 -4 -43q0 -25 -8 -49q-35 -147 -227 -199q-14 -4 -72 -18q-74 -12 -162 -12q-246 0 -309 114q-20 37 -21 90zM27 403q0 -109 98 -172 l41 -18l59 -14l-35 16l-22 16q-27 20 -43 56.5t-16 68.5v17l2 14q12 82 67 164q59 72 133 102q-84 0 -178 -73q-76 -59 -98 -129q-8 -25 -8 -48zM33 889l26 98h940l-26 -98h-940zM236 342q-2 -29 6 -56.5t28 -41.5l31 -23l35 -8q57 0 96 39q20 16 39 55l31 84l6 27l6 31 l4 55q1 8 1 16q0 44 -19 76l-19 22l-4 11l-18 4q-74 0 -150 -90q-33 -39 -63 -129l-8 -41zM397 195q45 0 80 16q92 45 139 133q23 43 29 100l2 19v26q0 29 -4 46q0 25 -8 43l-12 38l-13 29l-90 2l15 -20l8 -15l16 -53q6 -20 6 -59v-25q-2 -14 -4 -18v-13q-6 -53 -22 -90 l-31 -69q-39 -63 -111 -90z" />
<glyph unicode="V" horiz-adv-x="1032" d="M-70 256l2 16l2 21l5 24l6 31q14 76 65 141q94 125 271 168q86 20 186 23l182 2l56 207h-689l27 98h1196l-27 -98h-254l-71 -271h-375q-37 -4 -70 -16q-109 -33 -161 -104q-49 -63 -70 -146l-12 -49l-2 -49v-13q0 -77 46 -124q50 -51 138 -51q109 0 207 26q14 4 69 27 q135 55 205 121l35 -113q-51 -29 -104 -45l-127 -37q-80 -23 -140 -27l-135 -8h-24q-96 0 -169 12.5t-120 30.5q-147 57 -148 203zM-23 279v-6q0 -109 72 -164q27 -20 72 -39l104 -23l-39 19l-34 18l-27 16l-21 19q-47 43 -47 129v16l2 15q20 141 86 229q72 96 199 137 q-141 -12 -250 -110q-115 -104 -117 -256zM684 651h84l61 238h-84z" />
<glyph unicode="W" horiz-adv-x="20" d="M-553 1337v15l2 8v8l275 2l-7 -31l-8 -28l-6 -29l-2 -25q-2 -29 10 -57q12 -47 84 -76q41 -10 90 -10q172 0 246 123l21 47l22 84l283 2l-23 -43l-20 -41q-61 -92 -170 -149q-152 -80 -373 -80q-106 0 -176 16q-164 39 -219 141q-29 53 -29 123zM-518 1339 q0 -154 147 -209q-49 57 -49 154v25l4 16v12zM66 1133q47 10 81 28l41 21q12 6 33 24q72 57 90 131l-106 2q0 -39 -15 -65l-30 -57l-43 -52q-20 -16 -51 -32z" />
<glyph unicode="X" horiz-adv-x="1038" d="M-45 311l2 27l6 29q12 55 51 104q35 43 95 74q29 14 104 28q55 10 145 11q70 0 144 -21q12 -4 47 -18l35 -17l45 -22l6 26l6 25l6 31l4 59v39q-6 35 -30 102q-12 31 -35 54q-14 20 -45 45l-508 2l26 98h1100l-26 -98h-338q47 -35 86 -109q14 -29 26.5 -73.5t12.5 -81.5 q0 -33 -5 -54l-10 -53q-14 -76 -67 -162q-147 -231 -519 -231q-164 0 -256 39q-109 46 -109 133q0 7 1 14zM-2 313q0 -72 45 -102l45 -25l68 -16l-31 27l-21 32l-12 39l-4 54v8q0 57 51 123q49 61 123 98h-9q-42 0 -83 -16q-102 -31 -147 -121q-25 -47 -25 -101zM201 285 q0 -106 133 -107q82 0 157.5 75t118.5 198l-32 20l-50 23l-71 22l-60 8q-6 1 -12 1q-46 0 -98 -40q-43 -33 -62 -82q-4 -12 -14 -47l-8 -34l-2 -19v-18zM471 199q221 70 283 282q21 75 21 126q0 10 -1 20l-6 73q-4 39 -14 64l-27 59l-39 64l-94 2l39 -58l31 -57 q12 -33 18 -72l6 -90q1 -8 1 -16q0 -77 -52 -192q-57 -128 -166 -205z" />
<glyph unicode="Y" horiz-adv-x="901" d="M-53 246v28l2 11v10l6 22l6 33q14 76 70 162q88 141 250 195q71 24 154 24h7q39 0 66 -8t45 -29l14 -28l6 -35l17 16l16 15q51 45 148 45q68 0 111.5 -8.5t70.5 -28.5l10 -15l29 -32l-19 -70l-12 14l-8 19q-12 12 -35 20l-43 8q-29 0 -49 -10q-45 -14 -72 -65 q-10 -16 -18 -52l-51 -192h-226l56 209l4 24l2 21l2 10q0 20 -4 31l-6 24l-15 17q-6 6 -22 6q-74 0 -142 -82q-35 -41 -60.5 -94t-39.5 -117l-12 -57l-2 -56v-8q0 -47 20 -108q8 -10 17 -19q23 -33 79 -45q16 -4 37 -2l37 2l41 12q23 6 39 17l25 18l-25 -88l-16 -6h-13 l-94 -8l-90 -4h-22q-118 0 -201 60q-90 67 -90 194zM-8 244v-10q0 -106 80 -158l30 -21l33 -12l31 -6l31 2l-41 20l-31 21q-18 12 -41 55q-12 37 -12 96q0 113 57 226q55 106 139 182q45 39 101 63q-127 0 -249 -142t-128 -316zM39 889l27 98h985l-27 -98h-985zM498 334h84 l57 209q8 31 16 41l17 34l26 37q-18 0 -39 -10q-94 -63 -122 -168z" />
<glyph unicode="Z" horiz-adv-x="20" d="M-281 1159l2 31l7 29q20 98 120 149q29 14 89 29q43 10 94 10l194 2l-20 -76l-137 13q-41 0 -84 -43t-76 -144q-6 -37 -6 -41l-4 -33v-24q0 -14 8 -37l18 -49q14 -29 28.5 -44.5t41.5 -31.5l-127 2l-41 39l-31 33l-33 45l-24 49l-12 45zM-256 1149q0 -66 43 -129 q20 -31 37.5 -50.5t48.5 -45.5l43 2l-39 53l-27 41l-24 63q-10 35 -10 66q0 158 161 235h-9q-84 0 -152 -70q-72 -74 -72 -165z" />
<glyph unicode="[" horiz-adv-x="1378" d="M-25 492l21 71h270q45 0 96 15q66 18 112 60t63 95l20 64l14 55l2 14l5 21l-545 2l26 98h1438l-27 -98h-641l-49 -184q-33 -125 -227 -185l-80 -16l-106 -12l-11 -33q0 -16 -4 -25l-12 -72l-2 -63q-4 -117 43 -188q59 -92 197 -93q94 0 186 13q45 4 139 28q199 51 246 99 q-51 0 -88 8l-49 8q-12 2 -31 10q-170 55 -170 199v18l2 21l4 18q2 8 4 19q33 143 209 227q59 29 156 49q66 14 145 15h37q16 0 41 -5h29q12 0 43 -8l22 -6l29 -6l-19 -68l-26 7l-21 6l-65 12l-60 4q-94 6 -170 -55q-88 -72 -114 -187l-8 -34l-2 -19v-18q0 -61 40 -111 q12 -12 48 -31l55 -8l80 6q20 2 80 23l28 10l35 21l-20 -74q-53 -59 -238 -125q-49 -18 -135 -47q-178 -53 -371 -72q-68 -6 -123 -6q-272 0 -385 113q-47 47 -67.5 100t-20.5 131q0 41 4 64l13 65l8 29l10 28zM96 301q-8 -184 199 -276q18 -6 55 -17q4 -2 25 -6l37 -6 q-100 29 -164 100q-51 55 -66 142q-4 25 -4 63l6 55l19 70q2 12 10 31l12 32l-88 3l-22 -64l-6 -27l-11 -49zM485 602l58 25q27 12 53 35q16 10 41 43q14 18 31 55q2 10 4 12l4 14l2 15q2 14 4 18l4 35l2 33l-78 2q0 -21 -4 -33l-4 -31l-18 -73l-17 -41l-16 -35l-27 -33z M848 393q0 -145 166 -192q43 -12 94 -13q-92 27 -135 76q-31 31 -39 92q-2 14 -2 45q0 55 24 109q41 86 154 154q43 27 107 49q-121 4 -242 -92q-127 -100 -127 -228z" />
<glyph unicode="\" horiz-adv-x="1024" d="M309 113v14l4 18q14 68 82 111t146 43q33 4 56.5 -5.5t41.5 -27.5q31 -18 39 -84l-2 -18l-4 -19q-14 -61 -78 -104q-47 -31 -100 -41q-10 -2 -35 -2l-60 6q-25 6 -47 23l-33 36q-6 14 -10 50zM334 899v23l2 22q0 16 4 25q35 115 148.5 184.5t295.5 69.5q135 0 220 -49 q90 -57 83 -142l-2 -28l-6 -27q-18 -82 -112 -154l-43 -32l-64 -43q-37 -25 -55 -48l-47 -57l-15 -25l-16 -30l-39 -146h-239l38 144l9 18q35 78 176 178l69 49l41 33q20 20 39 51l27 70l6 31l2 31q4 49 -25 83q-12 12 -32 23l-39 8q-100 0 -160 -106q-18 -31 -31 -68 l-4 -26l-2 -27l2 -35q0 -12 4 -33v-6l4 -8l-227 2l-4 10l-4 17zM367 113q4 -14 16 -25l27 -16l34 -4q20 0 33 4l35 16l27 25l14 30v29q0 10 -12 27l-25 16q-12 6 -33 6q-17 4 -37 -6l-34 -16l-29 -25l-14 -31zM379 903l2 -12h6l12 -2h56l8 2q0 70 31 143q6 14 24 43l31 45 l45 47q-66 -10 -135 -79q-80 -80 -80 -170v-17zM504 485l82 2l4 29q0 14 4 23q4 18 8 24l21 33l55 55l139 125q137 123 137 246q0 57 -41 94l-36 25l-58 37l27 -33l14 -19q12 -16 21 -47l8 -53q0 -111 -135 -221l-138 -113q-49 -41 -59 -59l-22 -41l-13 -39z" />
<glyph unicode="]" horiz-adv-x="718" d="M-23 -111l31 7l45 12q16 4 25 10l41 25l39 28l20 23l10 8l-41 -2q-80 -4 -129 51q-25 25 -24 60l2 14l4 22q18 96 154 142q45 10 79 10q43 0 72 -10q51 -10 90 -70q12 -25 13 -55v-12l-2 -11l-5 -24q-18 -74 -82 -140q-74 -78 -151 -106l-78 -29l-102 -28zM55 -143 q92 10 203 102t111 207q0 20 -9 31l-18 22l-31 14l-39 5q-41 0 -73 -33q-16 -12 -25 -33l-8 -39q0 -33 16.5 -47t50.5 -18l27 2q12 0 16 4q1 -47 -73 -119q-70 -63 -148 -98z" />
<glyph unicode="^" horiz-adv-x="718" d="M164 786l2 21l6 29q16 72 80 141q57 59 154 106l75 29l107 29l8 -74l-12 -6h-11q-10 -2 -12 -4l-12 -2q-12 0 -27 -8l-28 -11l-45 -24l-35 -29l-17 -16l-12 -17l39 2q31 -2 76 -16q80 -27 80 -96l-2 -21l-3 -14q-25 -109 -157 -143l-80 -9q-90 0 -125 33q-20 16 -39 45 q-6 16 -10 55zM211 784l6 -32l19 -21l28 -12l37 -4l33 6q16 6 35 20l26 31q10 16 13 35l-2 31q0 12 -13 24q-4 8 -22 17l-31 6l-25 -2l-16 -6q0 59 80 131l65 59q20 18 64 39q-94 -20 -191 -109q-106 -98 -106 -213z" />
<glyph unicode="_" horiz-adv-x="1853" d="M-29 166l217 70q20 2 45 24l46 55l40 78q12 25 33 99l6 38l4 33q0 82 -71 103l-60 8q-51 0 -106 -39l-72 -51q-23 -16 -28 -39l-11 102l47 29q20 12 87 31.5t96 21.5l94 8q55 4 151 -10q53 -10 92.5 -47t39.5 -90v-33l-7 -14l-2 -11q-8 -37 -19 -61.5t-38 -54.5l-43 -51 l-49 -41l256 102l123 463h-809l26 98h1913l-26 -98h-846l-99 -373l398 152q23 4 41 16l33 29q12 10 26 39l17 49l20 -23l25 -20l16 -23l27 -28q-12 -20 -43 -39l-66 -39l-61 -29q-6 -2 -15 -2h-10l61 -190l-22 -11l-21 -6q-88 -45 -112 -168q0 -16 -4 -24v-17q0 -59 32 -82 q18 -14 43 -20l56 -4q43 -4 88 26q8 4 29 19l40 29l25 24l31 -78q-33 -25 -66 -37l-84 -30l-92 -23l-84 -6q-57 -4 -127 10q-98 20 -129 80q-14 27 -14 57l2 21q0 16 4 25q25 94 121 155l39 19l53 20l-39 158l-258 -105l-119 -440h-258l94 352l-704 -272zM285 272 q37 14 61 35q121 84 121 219q0 61 -49 115q-47 47 -101 47l29 -18l23 -19l20 -43l8 -55l-2 -16v-11q0 -27 -18 -88q-16 -53 -35 -82l-29 -43zM655 33h84l230 856h-84zM1094 143q0 -57 71 -92l80 -22l96 -9q-39 5 -53 13l-35 12q-96 43 -90 113l2 26l4 29l9 25l14 28 q16 31 35 49l39 37q-61 -12 -119 -69q-20 -25 -41 -64q-12 -35 -12 -76zM1268 555l43 -156l75 25l-43 156z" />
<glyph unicode="`" horiz-adv-x="20" d="M-926 -250l2 23l6 30q12 61 62.5 111.5t122.5 77.5q104 39 274 37l154 -2l-17 -68l-18 4q-16 0 -25 4l-26 4h-33q-86 0 -150.5 -36.5t-95.5 -129.5l-6 -28l-2 -29q-2 -31 16 -51q10 -16 44 -33l49 -10l67 -4q27 -2 62 10q35 6 73 25l52 24l30 19l-26 -97l-33 -12l-37 -12 l-74 -17l-65 -6l-150 6q-61 2 -106 15q-150 39 -150 145zM-881 -242l2 -20q0 -14 5 -21q4 -20 22 -36l33 -29q14 -12 53 -21l80 -16q-63 45 -86 111l-6 24l-2 25q-6 82 75 145q57 45 123 66q14 4 62 14h-8l-11 2h-26q-70 0 -123 -18q-109 -37 -166 -136q-27 -45 -27 -90z " />
<glyph unicode="a" horiz-adv-x="20" d="M0 1116v10l4 17q12 49 55 80l45 24l48 8q18 4 32 -6l29 -18l16 -29q6 -10 7 -33l-3 -10l-2 -16q-6 -25 -20 -43l-33 -35q-18 -14 -43 -25l-45 -8q-25 0 -37 4l-28 19l-19 26z" />
<glyph unicode="b" horiz-adv-x="1228" d="M-121 199l84 133l19 -39l16 -37q49 -72 160 -111q112 -40 230 -40q20 0 40 1l102 7q41 2 84 22q82 29 115 115l2 12l4 14v13l2 12q0 27 -8 43t-27 27l-38 14l-46 6l-282 2q-20 4 -31 4q-43 6 -82 21q-92 35 -92 106v13l4 20q18 90 137 135q35 12 95 23l120 8l359 2 l43 164h-856l26 98h1291l-27 -98h-186l-62 -230h-489l-56 -6l-41 -10q-61 -25 -83 -86q-2 -10 -5 -12v-15q0 -31 33 -53l35 -12l43 -4l244 2q55 0 92 -10q92 -10 129 -68q18 -31 18 -70l-4 -30l-6 -33q-10 -57 -69.5 -101.5t-163.5 -74.5l-154 -31q-16 -4 -82 -8 q-29 -3 -57 -3l-29 1l-68 2q-23 0 -22 6l41 -147q10 -35 86 -48q25 -4 59 -4h31q37 6 109 29l61 29l-29 -113l-80 -14l-100 -13l-84 -4l-96 6q-49 4 -80 15q-70 18 -104 59q-51 57 -72 164l-8 41l-8 57l-25 9l-25 12l-22 10l-27 14zM115 76l39 -156q14 -59 110 -92l37 -8 l53 -8l-16 6l-10 4q-61 33 -78 94l-35 135zM180 524q0 -25 14.5 -39t47.5 -30l61 -19l62 -6l12 2h8l-61 14q-61 25 -62 74q0 37 19 68q14 23 53 61l28 23l46 26q-31 -4 -68 -16l-45 -14q-115 -51 -115 -144zM504 86l102 6q131 8 203 76q45 43 45 106q0 45 -41 86 q-39 36 -86 50q-29 8 -53 6q47 0 78 -45l14 -41l6 -51q0 -111 -133 -166l-55 -17zM881 684h84l53 205h-84z" />
<glyph unicode="c" horiz-adv-x="1224" d="M18 369l2 30q4 51 41 123q88 162 320 215q80 18 170 19h39q16 0 53 -8q31 -4 90 -21l60 -25l41 -26l57 213h-858l26 98h1287l-27 -98h-168l-238 -889h-260l68 256l-80 -45l-92 -33l-98 -22l-99 -6q-14 -1 -27 -1q-48 0 -100 11q-131 29 -180 110q-27 45 -27 88v11z M66 379l2 -25q4 -49 38 -90q43 -51 152 -74l86 -8l35 2q12 0 31 4l-43 9q-20 2 -52 14l-67 27q-66 41 -86 104l-4 20l-2 25q-1 6 -1 12q0 39 23 88q41 94 158 179q51 37 106 57q-146 -11 -266 -121q-110 -102 -110 -206q-1 -8 0 -17zM283 371q0 -109 98 -142l70 -8l69 6 q35 2 74 21l37 16l-187 391l-32 -22l-31 -29q-25 -23 -53 -74q-25 -41 -35 -88l-8 -34l-2 -19v-18zM500 678l184 -391l18 8l13 8l16 12l10 11l74 290l-37 21l-26 16q-61 27 -117 37q-20 4 -39 2l-57 -4q-23 -2 -39 -10zM707 33h84l229 856h-84z" />
<glyph unicode="d" horiz-adv-x="1699" d="M-29 328q0 25 2 42t11 42q33 139 157.5 229t270.5 90q98 0 168 -33l69 -32l60 223h-678l26 98h1745l-26 -98h-807l-66 -248l74 43q20 12 96 31q37 8 82 8q80 0 135 -16q115 -37 158 -127q23 -49 22 -109l-4 -45q0 -16 -8 -47q-39 -145 -178 -234q-55 -35 -150 -61 q-61 -18 -133 -18h-39l-59 4l-33 4l15 55l30 -2q9 -1 18 -1q140 0 224 150q27 47 47 113l10 47l4 51v10q0 29 -10 60q-20 100 -147 100q-35 0 -90 -32q-18 -10 -43 -29l-31 -29l-12 -8l-150 -559h-260l57 211l-51 -29l-39 -18q-100 -47 -202 -47q-127 0 -193 53 q-72 55 -72 158zM8 328q0 -84 64.5 -134.5t173.5 -50.5q-41 8 -66 27l-51 37q-35 41 -41 112l2 29q2 25 8 39q16 55 41 102q90 172 242 211h-10q-112 0 -211 -88q-113 -100 -144 -221l-4 -16l-2 -15l-2 -16v-16zM229 336v-13q0 -57 31 -90q14 -18 37 -28l49 -8q31 0 60 10 l71 35l45 28l27 25l84 319l-27 11l-20 8l-56 16l-41 6h-8q-47 0 -110 -30l-25 -19q-37 -29 -64.5 -76t-39.5 -104l-11 -49zM522 33h84l230 856h-84zM958 109q123 0 226.5 78.5t138.5 195.5l4 23l4 16l2 16v21q0 96 -61 159q-68 66 -174 66q38 -4 67 -20q49 -20 76 -101 q12 -39 12 -78q0 -59 -14 -98q-29 -115 -92 -182q-74 -78 -189 -96z" />
<glyph unicode="e" horiz-adv-x="1429" d="M-78 250q0 25 4 37l6 35q37 123 160 182q39 18 115 37q37 8 100 10l92 2l90 336h-456l26 98h1493l-26 -98h-166l-238 -889h-262l131 489h-354l-35 -129q-35 -127 -156 -198q-59 -35 -120 -53q-59 -17 -114 -17h-17l-109 6q-45 2 -80 23q-84 37 -84 129zM-35 258 q0 -59 47 -96l37 -23l33 -8q-20 10 -31 35l-8 65l2 27q2 18 8 35l31 74q41 76 98 114q31 20 64 33q-43 0 -94 -16q-33 -12 -78 -43q-72 -59 -103 -158l-4 -23zM143 238q-2 -20 4 -37l15 -25l22 -14l27 -4l35 6q35 12 59 53l17 39l61 233h-59q-18 0 -39 -12q-49 -16 -95 -82 q-23 -33 -32 -71l-13 -48zM233 127h33l25 8q80 29 127 84q25 29 35 66l163 604h-84l-163 -602q-10 -66 -47 -107q-12 -12 -41 -30zM653 553h355l90 336h-355zM909 33h84l230 856h-84z" />
<glyph unicode="f" horiz-adv-x="532" d="M-39 0l238 889h-166l26 98h158l-18 17l-19 30l-8 19l-4 20l-4 19v32l4 19q33 147 188 207q8 4 123 28q78 10 166 11q98 0 232 -68q43 -23 88 -53l194 -133l197 -131q21 4 35 10l43 33l28 30l21 29l53 -59l-27 -39l-24 -25q-20 -14 -58 -29l-67 -8q-66 0 -197 92l-131 92 l-125 93q-133 98 -227 98q-143 0 -209 -98q-27 -39 -37 -82l-4 -17l-2 -16l-2 -14v-9l6 -43q4 -10 21 -34l4 -7l6 -4l8 -6l10 -6l172 2l-26 -98h-168l-238 -889h-260zM12 33h84l230 856h-84zM207 1081l6 -18l6 -21l10 -18l15 -20l16 -19l94 2l-10 27l-8 22l-17 54l-4 38v13 l2 8q14 57 58 100q8 8 37 35l53 37l59 31q-70 -6 -108 -23q-47 -12 -82 -37q-90 -47 -123 -159l-4 -15v-37z" />
<glyph unicode="g" horiz-adv-x="1159" d="M-70 158v32l7 17l2 8q33 127 196 225q135 80 217 80h-28l-25 6l-29 6l-26 11q-74 29 -74 84q0 74 82 112q27 12 70 23l84 8l413 2l33 117h-819l26 98h1319l-26 -98h-242l-49 -176h-473l-51 -6q-23 -2 -43 -15q-14 -4 -35 -24q-12 -16 -19 -39q0 -14 -4 -23l-2 -16l2 -21 l10 -14l11 -8l6 -2l12 2l21 4h24l35 4l115 4q12 1 24 1q73 0 166 -21q16 -4 53 -19q133 -53 134 -137l-3 -21l-2 -14q-22 -84 -159 -143l-103 -33q-55 -10 -94 -10h-55q-33 0 -53 4l-43 2q-18 0 -23 4l23 86l14 -20l20 -13l23 -8l26 -2h10q51 0 93 37l39 43q16 29 24 59 l7 27l2 29v7q0 64 -68 79l-55 6q-109 0 -215.5 -49.5t-171.5 -133.5q-35 -45 -56 -108q0 -16 -4 -25l-2 -22q0 -82 107 -131q119 -41 319 -41q27 0 43 4l55 8l60 14l53 21l-22 -86l-41 -6l-52 -6l-57 -4l-55 -3l-264 7q-86 2 -174 18q-262 49 -263 199zM-25 162 q0 -94 136 -152l112 -30q45 -12 119 -13q-117 16 -172 60q-88 55 -88 143q0 117 131 221q35 29 103.5 65t125.5 56q-132 -12 -286 -102q-180 -104 -181 -248zM209 627q0 -42 59 -62l56 -18l51 -4l-29 12l-27 20l-18 27l-4 29q0 49 51 80l41 20l47 12l-14 2h-23l-67 -6 q-123 -25 -123 -112zM702 209l29 2l29 4l26 8l29 15q59 29 80 96l2 10v16q0 33 -10 52q-8 45 -62 80q-23 12 -53 18l27 -29l18 -24l10 -29l4 -33l-2 -28l-6 -35q-4 -20 -16 -37q-10 -23 -29 -37l-35 -27zM852 750h84l41 139h-84z" />
<glyph unicode="h" horiz-adv-x="532" d="M-467 1106q0 141 125 215q80 47 190 61q35 4 82 4q143 0 285.5 -174t177.5 -174q16 0 35 11l43 32l29 31l20 29l53 -60l-20 -32l-18 -21l-41 -29l-50 -14l209 2l-26 -98h-168l-238 -889h-260l238 889h-166l26 98h306q-41 33 -66 60l-166 180q-88 96 -170 96 q-86 0 -133 -55q-61 -57 -61 -170q0 -45 32 -86l6 -6l9 -7l8 -8l10 -6l-252 2l-14 14l-17 31l-14 37zM-424 1114l4 -29l19 -49l10 -18l98 2l-4 16l-6 17l-10 39l-4 32q0 78 71 146l31 28l29 25l30 18l31 17q-102 0 -200.5 -73t-98.5 -171zM12 33h84l230 856h-84z" />
<glyph unicode="i" horiz-adv-x="1064" d="M-14 889l26 98h1159l-26 -98h-166l-238 -889h-260l68 250l-19 -12l-16 -9q-31 -14 -90 -26l-109 -8q-11 -1 -22 -1q-57 0 -121 17q-119 31 -160 117q-20 41 -20 92l4 31q0 25 4 38l106 400h-120zM31 420q0 -70 61 -131q33 -33 73 -49.5t77 -16.5l-60 41l-28 27 q-14 14 -35 49q-6 18 -10 57l2 23l4 26l118 443h-83l-115 -434q0 -14 -4 -21v-14zM233 358v-7q0 -67 78 -91q29 -6 72 -6q80 0 145 51q27 20 39 39l17 37l135 508h-350l-133 -494zM532 33h84l230 856h-84z" />
<glyph unicode="j" horiz-adv-x="987" d="M-25 492l21 71h307q20 4 29 4q27 0 71 11q178 41 215 155l21 64l14 55l2 14l4 21l-626 2l26 98h1119l-39 -98h-228l-49 -184q-33 -123 -268 -185l-96 -16l-131 -12l-11 -33q0 -16 -4 -25l-12 -72l-2 -63v-18q0 -105 42 -169q46 -69 132 -87q33 -7 59 -7h7l100 7 q31 2 100 22l35 10l45 21l14 -62l-36 -18l-35 -10l-123 -21l-152 -8q-16 -1 -32 -1q-106 0 -213 34q-158 49 -207 180q-20 53 -21 131q0 41 4 64l13 65l8 29l10 28zM96 301v-14q0 -173 199 -262q18 -6 55 -17q4 -2 25 -6l37 -6q-100 29 -164 100q-51 55 -66 142q-4 25 -4 63 l6 55l19 70q2 12 10 31l12 32l-88 3l-22 -64l-6 -27l-11 -49zM567 610l58 25q25 10 53 33l39 41q10 10 28 51l9 28l8 35l6 33l2 31l-78 2l-10 -64l-16 -57l-19 -51l-16 -35l-25 -33z" />
<glyph unicode="k" horiz-adv-x="501" d="M-100 889l26 98h707l-27 -98h-188l-238 -889h-260l238 889h-258zM-29 33h84l230 856h-84z" />
<glyph unicode="l" horiz-adv-x="1538" d="M-25 492l21 71h307q20 4 29 4q27 0 71 11q178 41 215 155l21 64l14 55l2 14l4 21l-626 2l26 98h1598l-19 -98h-174l-237 -889h-260l123 463h-424l20 78h424l94 348h-293l-49 -184q-33 -123 -268 -185l-96 -16l-131 -12l-11 -33q0 -16 -4 -25l-12 -72l-2 -63v-18 q0 -105 42 -169q46 -70 132 -87q33 -7 59 -7h7l100 7q31 2 100 22l35 10l45 21l14 -62l-36 -18l-35 -10l-123 -21l-152 -8q-16 -1 -32 -1q-105 0 -213 34q-158 49 -207 180q-20 53 -21 131q0 41 4 64l13 65l8 29l10 28zM96 301v-14q0 -174 199 -262q18 -6 55 -17q4 -2 25 -6 l37 -6q-100 29 -164 100q-51 55 -66 142q-4 25 -4 63l6 55l19 70q2 12 10 31l12 32l-88 3l-22 -64l-6 -27l-11 -49zM567 610l58 25q25 10 53 33l39 41q10 10 28 51l9 28l8 35l6 33l2 31l-78 2l-10 -64l-16 -57l-19 -51l-16 -35l-25 -33zM1018 33h84l229 856h-84z" />
<glyph unicode="m" horiz-adv-x="1081" d="M-98 205l121 100l26 -78l31 -53q70 -96 188 -123q35 -8 84 -8q109 0 186.5 52t116.5 179l7 39l4 33q0 76 -50 119q-37 31 -86 39l-208 2l16 61h207l51 6q31 10 61 29q82 47 105 127l2 16l2 23q0 31 -8 50.5t-27 41.5l-16 12l-21 15l-661 2l26 98h1246l-27 -98h-324 l15 -12l22 -21q16 -18 25 -43l8 -43l-2 -18l-4 -21q-20 -100 -178 -160l-60 -16l-80 -12h8q71 0 152 -68q70 -57 70 -145v-37l-6 -17l-2 -10q-31 -152 -220 -223q-145 -55 -346 -55q-207 0 -350 104zM500 43q74 0 128 19.5t87 62.5q20 25 37 70l10 49l4 43q0 115 -76 174 q-8 8 -61 35l35 -37l22 -39l14 -41l5 -43l-3 -33l-6 -29q0 -14 -8 -30l-12 -35l-27 -51l-39 -45l-51 -41zM649 569q78 0 142 37q72 41 96 101l2 14l2 22q0 59 -53 103q-45 33 -103 41q72 -34 72 -109v-12l-2 -25q-2 -18 -4 -24q-6 -31 -23 -55q-29 -72 -129 -93z" />
<glyph unicode="n" horiz-adv-x="1208" d="M-31 330l4 37q0 20 9 45q42 204 247 270l80 16l111 11l323 2l48 178h-758l26 98h1299l-27 -98h-280l-64 -240h-477l-64 -10q-152 -45 -194 -240l-8 -37l-2 -36v-9q0 -59 47 -96l55 -22l72 -9l80 7q29 2 82 22q63 25 73 29q49 23 64 45l39 147h266l-119 -440h-266l57 211 l-47 -25l-39 -14q-39 -14 -119 -29l-125 -8h-124q-23 4 -33 4q-150 16 -203 84q-33 53 -33 107zM16 342q0 -104 90 -147l76 -23l105 -6q-90 35 -125 82l-21 53l-6 70q0 59 21 110q33 90 125 156q43 31 104 45q-9 1 -19 1q-124 0 -235 -99q-55 -49 -88 -115q-27 -72 -27 -127 zM688 33h84l107 381h-84zM774 676h84l57 213h-84z" />
<glyph unicode="o" horiz-adv-x="1224" d="M18 369l2 30q4 51 41 123q88 162 320 215q80 18 170 19h39q16 0 53 -8q31 -4 90 -21l60 -25l41 -26l57 213h-858l26 98h1287l-27 -98h-168l-238 -889h-260l68 256l-80 -45l-92 -33l-98 -22l-99 -6q-14 -1 -27 -1q-48 0 -100 11q-131 29 -180 110q-27 45 -27 88v11z M66 365l2 -11v-12q8 -43 41 -76q27 -31 71 -51l76 -25l86 -8l35 2q12 0 33 4l-107 21l-59 18q-70 29 -94 115q0 14 -5 20v19q0 96 92.5 195.5t204.5 142.5q-100 -8 -200.5 -72.5t-145.5 -154.5q-31 -57 -30 -115v-12zM281 365v-12q0 -92 86 -126l59 -8h14l11 2q35 0 108 21 q45 12 90 32l60 29q20 12 28 23l78 290l-37 21l-26 16q-61 27 -117 37q-12 2 -39 2q-119 0 -199 -80q-37 -31 -59 -69q-35 -57 -45 -101l-10 -41zM707 33h84l229 856h-84z" />
<glyph unicode="p" horiz-adv-x="1327" d="M-10 637l18 68h799l-19 -68h-270l-26 -12l-23 -9q-119 -66 -147 -194l-9 -37l-2 -29v-10q0 -58 45 -86l52 -22l65 -7q131 0 283 86q74 43 112 103l125 469h-960l26 98h1389l-27 -98h-168l-237 -889h-260l86 319l-80 -53l-62 -33q-66 -35 -172 -61q-82 -20 -172 -20 q-125 0 -220 51t-95 153v21l2 12l6 23q33 121 129 172l43 22l64 29zM80 354q0 -121 170 -166q50 -12 88 -12h10l33 2q12 0 33 4q-141 0 -221 111q-20 37 -21 74q0 86 119 188l49 35l72 43l-90 2l-72 -41q-18 -10 -49 -33q-55 -37 -90 -98q-31 -53 -31 -109zM807 33h84 l229 856h-84z" />
<glyph unicode="q" horiz-adv-x="20" d="M-1300 -242l129 105q0 -96 110.5 -182.5t284.5 -86.5q74 0 151 27q86 29 129 78q31 37 47 84l7 33l2 32v6q0 39 -25 72q-27 27 -76 27q-51 0 -118 -35q-76 -39 -107 -80l-41 84l53 25l41 16l109 31q55 10 94 10q147 0 223 -41q37 -20 62 -55q21 -36 21 -68q0 -6 -1 -12 l-2 -25l-4 -28q-29 -121 -227 -187q-150 -49 -344 -49q-113 0 -215.5 29t-182.5 80q-29 18 -57 47q-37 31 -63 63zM-612 -406l8 -2h16q45 0 89 13.5t87 40.5q106 63 107 157q0 63 -47 111l-54 35q-31 12 -67 18l22 -14l29 -29l8 -16l13 -35l2 -47v-8q0 -78 -74 -146 q-55 -51 -139 -78z" />
<glyph unicode="r" horiz-adv-x="1331" d="M-43 231v31l2 12v11l6 24l8 35q49 209 248 295l76 23l104 18l535 2l55 207h-958l26 98h1385l-27 -98h-166l-237 -889h-260l166 618h-371q-117 -16 -163 -56t-81 -97q-37 -63 -51 -129l-14 -70l-4 -57q-1 -9 -1 -17q0 -66 44 -102q20 -18 47 -29l59 -8l39 4l53 13 q16 4 49 16q23 6 35 16l-29 -102h-210l-136 6q-47 2 -98 25q-131 57 -131 200zM2 227q0 -43 12 -67q33 -62 123 -105l88 -20q-139 57 -139 192q0 78 23 142q51 139 178 225q55 37 119 55q-145 0 -269 -114q-135 -127 -135 -308zM805 33h84l229 856h-84z" />
<glyph unicode="s" horiz-adv-x="20" d="M-651 1305l26 102l410 2l131 -508h-188l-27 96l-23 72q-29 90 -53 145q-18 45 -35 70l-24 29l-12 12l-25 14q-10 6 -33 7q-41 0 -67 -9l-60 -18l-8 -6zM-455 1366l27 -16l29 -29l37 -47l24 -51l23 -68l45 -139l10 -37l16 -49l72 2l-109 336l-20 32l-29 33l-39 23l-20 6 l-21 2h-10l-12 2h-23z" />
<glyph unicode="t" horiz-adv-x="1548" d="M-45 362q0 25 2 42.5t10 41.5q0 12 10 29l17 43l10 37l8 16l260 2l-12 -26l-22 -55l-23 -60l-8 -31l-10 -41l-2 -38v-11q0 -55 36 -92q16 -18 48 -31l73 -8q92 0 172 61.5t105 159.5l2 15l4 20v10l2 11v18l-6 55l-19 45l-24 29q-8 6 -25 10l-94 2l20 76h674l51 197h-1181 l26 98h1610l-27 -98h-167l-238 -889h-260l166 616h-301l8 -14l12 -8q14 -20 26.5 -57t12.5 -66l-4 -43q0 -16 -4 -25l-6 -20q-37 -125 -192.5 -198.5t-360.5 -73.5q-172 0 -275.5 63.5t-103.5 187.5zM-6 362q0 -141 143 -196q53 -14 88 -14h21l16 2q-43 10 -78 26 q-109 66 -108 182l6 52l20 63l11 25l16 37l-84 2q-6 -25 -16 -39l-11 -25l-18 -63zM453 182l12 -2h16q100 0 188.5 81t88.5 179v25q0 20 -4 39l-13 53q-6 18 -10 25l-18 34l-84 2l24 -40l13 -35l6 -45l2 -66q2 -82 -68 -162q-61 -70 -153 -88zM1028 33h84l229 856h-84z" />
<glyph unicode="u" horiz-adv-x="1353" d="M-41 889l27 98h1476l-26 -98h-170l-238 -889h-258l170 633h-217l6 -15l6 -8q2 -10 4 -12l6 -10l15 -53l6 -56q0 -27 -4 -43q0 -25 -8 -49q-35 -147 -228 -199q-14 -4 -71 -18q-74 -12 -162 -12q-156 0 -243 50t-87 154l4 31l6 35q12 76 77 137.5t155 91.5l76 19l106 16 l569 2l52 195h-1049zM14 403q1 -109 99 -172l41 -18l59 -14l-35 16l-22 16q-27 20 -43.5 56.5t-16.5 68.5v17l2 14q12 82 68 164q59 72 133 102q-84 0 -178 -73q-76 -59 -98 -129q-8 -25 -9 -48zM223 342q-2 -29 6.5 -56.5t28.5 -41.5l31 -23l35 -8q57 0 96 39q20 16 39 55 l30 84l7 27l6 31l4 55q1 8 1 16q0 45 -20 76l-18 22l-4 11l-19 4q-73 0 -149 -90q-33 -39 -64 -129l-8 -41zM385 195q127 20 207 153q12 23 26 55q4 10 15 41l6 31l2 33q2 23 -1 40t-11 36l-15 30l-16 31l-90 2l14 -20l8 -15l17 -53q6 -20 6 -59v-25q-2 -14 -4 -18v-13 q-6 -53 -23 -90l-30 -69q-39 -63 -111 -90zM821 33h84l230 856h-84z" />
<glyph unicode="v" horiz-adv-x="1615" d="M-117 178l125 113q-2 -12 -2 -35q0 -70 51 -131q35 -43 80 -63.5t109 -20.5q174 0 276 135q35 45 45 100l11 52l4 45q0 82 -56 116l-24 9l-33 8l-197 2l17 61h198q61 0 113 37q41 29 70 84q10 23 16 43l6 25l2 28v9q0 53 -45 84q-20 12 -55 22l-66 8l-41 -2l-38 -6 l-41 -12l-41 -17q-31 -12 -78 -43q-27 -16 -51 -41l-39 109l65 18l37 13l119 24l112 9q16 1 35 1q66 0 164 -16q150 -25 201 -92q24 -35 24 -69v-7l-2 -28l-6 -27q-29 -82 -108 -129q-43 -27 -95.5 -44.5t-87.5 -17.5l60 -26l41 -23q101 -68 101 -157q0 -7 -1 -15l-2 -26 l-4 -29q-10 -67 -76 -133q-57 -57 -143 -90q-131 -49 -336 -49q-92 0 -168 24q-92 29 -143 72l-47 41zM418 47q145 0 215 82q25 31 37 70l8 45l4 45l-6 55l-17 53l-30 47l-43 41q12 -22 22 -63l8 -66l-2 -34q0 -12 -4 -33l-8 -35l-12 -45q-8 -29 -19.5 -46.5t-40.5 -45.5 l-53 -41zM612 582q47 0 95 24q18 10 28 21q57 41 80 108l2 21l2 12q0 92 -117 133q-25 8 -57 12l35 -22l29 -33l18 -37l6 -41l-2 -20l-2 -15q-41 -131 -117 -163zM821 524l17 62h368l78 303h-192l26 98h619l-27 -98h-166l-237 -889h-260l143 524h-369zM1100 33h84l229 856 h-84z" />
<glyph unicode="w" horiz-adv-x="20" d="M-864 -244l2 21l4 22q20 113 166 166q45 16 123 31l145 8q14 1 28 1q81 0 165 -30q141 -49 229 -186q37 -57 63 -131q6 -37 17 -61q6 -37 16 -62h-205q10 14 11 37l-4 35q-6 45 -48 141q-90 207 -272 207q-113 0 -174 -84q-25 -33 -31 -64l-8 -40q0 -23 10 -39 q10 -41 56 -52l36 -8q27 0 52 8l61 21l57 29l35 -74l-30 -12l-29 -9l-74 -14l-78 -6l-116 6q-45 2 -88 14q-119 33 -119 125zM-825 -242q0 -57 51 -88l55 -20l66 -8q-86 49 -86 112q0 53 4 68l12 45q27 57 98 94q-74 -12 -137 -71.5t-63 -131.5zM-356 -29q34 -12 69 -30 l56 -39q16 -12 47 -47l41 -64l26 -55l21 -68l14 -63l4 -49h72v34q-6 25 -8 37l-19 62q-12 39 -26 61l-43 66l-50 59q-31 31 -57 43q-27 20 -65 31z" />
<glyph unicode="x" horiz-adv-x="1574" d="M-45 311l2 27l6 29q12 55 51 104q35 43 95 74q29 14 104 28q55 10 145 11q70 0 144 -21q12 -4 47 -18l35 -17l45 -22l6 26l6 25l6 31l4 59v39q-6 35 -30 102q-12 31 -35 54q-14 20 -45 45l-508 2l26 98h1637l-27 -98h-168l-237 -889h-260l237 889h-446q47 -35 86 -109 q14 -29 26.5 -73.5t12.5 -81.5q0 -33 -5 -54l-10 -53q-14 -76 -67 -162q-147 -231 -519 -231q-164 0 -256 39q-109 46 -109 133q0 7 1 14zM-6 313q0 -72 45 -102l45 -25l68 -16l-31 27l-21 32l-12 39l-4 54v8q0 56 50 120q54 68 128 101h-10q-81 -1 -167 -61 q-91 -64 -91 -177zM201 285q0 -106 133 -107q82 0 157.5 75t118.5 198l-32 20l-50 23l-71 22l-60 8q-6 1 -12 1q-46 0 -98 -40q-43 -33 -62 -82q-4 -12 -14 -47l-8 -34l-2 -19v-18zM475 199q215 66 283 295q20 70 20 153l-6 70l-18 63l-25 43l-41 64l-94 2l43 -58l27 -38 l20 -72l8 -88q0 -92 -49 -213q-61 -152 -168 -221zM1055 33h84l229 856h-84z" />
<glyph unicode="y" horiz-adv-x="1361" d="M-59 246v28l2 11v10l6 22l6 33q14 76 70 162q88 141 249 195q71 24 155 24h7q39 0 65.5 -8t45.5 -29l14 -28l6 -35l17 16l16 15q23 18 67 32q39 13 72 13h9l83 -7q41 -2 66 -16l27 -14l22 -19l64 238h-977l26 98h1405l-26 -98h-168l-238 -889h-260l156 582l-13 12l-10 8 l-22 8l-31 4q-29 0 -49 -10q-45 -14 -72 -65q-10 -16 -18 -52l-51 -192h-226l56 209l4 24l2 21l2 10q0 20 -4 31l-7 24l-14 17q-6 6 -22 6q-74 0 -142 -82q-35 -41 -60.5 -94t-39.5 -117l-12 -57l-2 -56v-8q0 -47 20 -108q8 -10 16 -19q23 -33 80 -45q16 -4 37 -2l37 2 l41 12q23 6 39 17l25 18l-25 -88l-16 -6h-13l-94 -8l-90 -4h-22q-118 0 -201 60q-90 67 -90 194zM-14 244v-10q0 -106 80 -158l30 -21l33 -12l31 -6l30 2l-40 20l-31 21q-18 12 -41 55q-12 37 -12 96q0 113 57 226q55 106 139 182q45 39 100 63q-127 0 -248.5 -142 t-127.5 -316zM492 334h83l31 119v36q0 41 -43 78l-31 27l5 -25l2 -24l-2 -29l-5 -27l-6 -24q-2 -14 -4 -19zM823 33h84l230 856h-84z" />
<glyph unicode="z" horiz-adv-x="20" d="M-1274 -104l801 376l-19 -67l-729 -371z" />
<glyph unicode="{" horiz-adv-x="962" d="M-59 283l4 41q0 23 8 47q39 184 285 247q45 12 102 15q49 4 98 6q61 6 109 43q14 10 35 43q12 23 26 68l4 26l2 21q0 41 -32 63l-35 17l-45 6l-49 -6l-45 -19l-39 -31q-12 -18 -21 -47l-4 -16v-10l2 -27q2 -14 8 -22l8 -21l11 -10l-205 2l-12 10l-13 16l-8 19l-2 20l2 21 l6 22q18 68 125 109t254 41q141 0 238.5 -40t97.5 -124l-2 -14l-2 -21q-12 -41 -49 -82q-37 -33 -103 -63l-100 -33q-72 -2 -197 -25q-92 -25 -141 -106q-31 -51 -43 -107l-4 -18q-2 -8 -4 -18l-2 -21v-18q0 -59 31 -90l36 -23l48 -8q51 0 92 24q49 31 78 82l41 72 q10 27 10 45l254 2l-105 -391h-256l49 186l-14 -14l-16 -12l-19 -15l-20 -12q-82 -49 -172 -49h-78l-51 10q-47 10 -80 27q-96 51 -96 162zM-18 297q-2 -55 27.5 -98.5t82.5 -59.5l47 -14l68 -12l-41 26l-27 23q-27 23 -53 67q-16 37 -16 72q0 45 16 94t47 90l27 37l39 45 l-66 -35q-35 -18 -43 -28q-51 -35 -82 -96q-25 -49 -26 -111zM166 793q0 -21 4 -33l14 -19l97 2l-9 7l-4 8l-6 8l-2 12l-4 8v11q0 82 98 131l19 6l22 8l27 6l33 6q-23 -2 -86 -16l-58 -12q-145 -47 -145 -133zM487 33h84l86 323h-84zM563 621l72 20l53 21q55 20 94 63 q31 35 31 72q0 80 -113 129l-20 6l-27 6l-30 4l-35 6l22 -8l19 -6q94 -43 94 -137q0 -45 -43 -90q-14 -18 -37 -33l-35 -25zM778 569l19 62h295l-19 -62h-295z" />
<glyph unicode="|" horiz-adv-x="1384" d="M-29 197l2 20q0 16 4 25q14 88 125 151l39 15l56 16q-10 -6 -37 -2t-56 16q-86 29 -86 105l2 18l5 23q14 84 122 123l39 10l58 10l262 2l43 160h-516l26 98h1446l-26 -98h-168l-238 -889h-262l66 244l-107 -72l-65 -37q-66 -37 -211 -74q-115 -31 -213 -30 q-125 0 -209 35q-100 41 -101 131zM8 188q2 -10 4 -12l2 -16l6 -15q10 -23 41 -43q41 -20 86 -28l70 -13l74 -2l-45 9l-43 12q-59 16 -92 74l-9 20l-2 27v32q4 25 35 89q37 55 84 75q-41 0 -74 -16q-80 -31 -118 -105q-18 -35 -19 -71v-17zM61 549l2 -23l7 -16q4 -13 16 -23 l35 -20l43 -14l43 -4l-14 14l-25 33l-8 20l-6 21l-2 24q-6 72 71 115l51 18l-12 2h-16q-119 0 -166 -90q-14 -27 -19 -57zM246 205q0 -100 125 -101q76 0 164 19q135 29 284 127q61 41 80 74l150 565h-258l-58 -215h-338l-49 -15q-51 -25 -70 -88l-4 -14v-10q0 -39 37 -66 l15 -10l22 -10l283 2l-17 -57h-211q-49 0 -92 -44q-10 -10 -35 -49l-22 -61q0 -16 -4 -25zM547 721h84l45 168h-84zM862 33h84l230 856h-84z" />
<glyph unicode="}" horiz-adv-x="1218" d="M-74 -37l2 23l2 14q6 47 47 90q37 35 103 68l51 14l70 16l-62 15q-20 4 -43 16q-102 53 -102 160l4 29l4 41q41 173 240 241l75 17l107 14l360 2l43 166h-794l26 98h1299l-27 -98h-244l-61 -232h-514q-25 0 -39 -2t-22 -6q-141 -37 -187 -203l-12 -45l-2 -41 q-6 -115 131 -114q158 0 276 76q133 86 164 172l242 2l-141 -519l-258 -2l41 119q-68 -72 -273 -174q-164 -82 -256 -82q-80 0 -127 8.5t-76 28.5q-47 27 -47 88zM-23 -35q0 -27 11.5 -45.5t34.5 -30.5l51 -16l61 -6l27 2l33 2q23 2 28 4l23 2l-60 12l-43 11 q-41 10 -61.5 22t-26.5 29l-6 26l-2 21q0 51 51 102l23 17l51 37l-55 -23l-54 -20q-82 -45 -86 -146zM45 383q0 -31 11.5 -55t31.5 -49l49 -35q27 -12 60 -19l-35 31q-14 16 -19 29l-16 43l-4 55q-4 47 21.5 99.5t70.5 92.5l61 46l117 73q-129 -12 -233 -92 q-115 -88 -115 -219zM164 8v-16l6 -33q16 -33 55 -35l43 -2q113 14 283 137l121 88q43 33 49 48l45 124l-86 -47l-66 -30q-162 -76 -305 -76l-26 -8l-37 -25q-31 -20 -51 -51q-14 -18 -27 -59zM729 16h84l127 439h-84zM825 729h84l45 160h-84z" />
<glyph unicode="~" horiz-adv-x="20" d="M-760 -160l23 101l397 2l385 -340h-311l-17 22l-59 60l-37 41l-39 36l-41 41l-41 39l-24 23l-25 12l-26 6l-35 2l-47 -4l-76 -26zM-571 -94q69 -11 116 -60l205 -206h82l-244 233l-47 18l-47 13l-45 4h-12z" />
<glyph horiz-adv-x="1873" />
<glyph horiz-adv-x="1873" />
<glyph horiz-adv-x="1873" />
<glyph horiz-adv-x="1873" />
<glyph horiz-adv-x="1873" />
<glyph horiz-adv-x="1873" />
<glyph horiz-adv-x="1873" />
<glyph horiz-adv-x="1873" />
<glyph unicode="&#xa1;" horiz-adv-x="20" d="M-553 1337v15l2 8v8l275 2l-7 -31l-8 -28l-6 -29l-2 -25q-2 -29 10 -57q12 -47 84 -76q41 -10 90 -10q172 0 246 123l21 47l22 84l283 2l-23 -43l-20 -41q-61 -92 -170 -149q-152 -80 -373 -80q-106 0 -176 16q-164 39 -219 141q-29 53 -29 123zM-518 1339 q0 -154 147 -209q-49 57 -49 154v25l4 16v12zM-180 1298l2 11l2 16q20 80 100 105l47 8q19 4 33 -6l27 -19l16 -29q6 -10 6 -32l-2 -11l-2 -16q-6 -27 -20 -43l-31 -35q-20 -16 -41 -24l-47 -9q-23 0 -35 5l-29 18l-18 27zM-137 1307q0 -37 45 -37q23 0 45 15t22 61 q0 25 -41 30l-20 -4l-23 -12l-16 -19l-10 -18q-2 -10 -2 -16zM66 1133q47 10 81 28l41 21q12 6 33 24q72 57 90 131l-106 2q0 -39 -15 -65l-30 -57l-43 -52q-20 -16 -51 -32z" />
<glyph unicode="&#xa2;" horiz-adv-x="20" d="M-1298 1391l26 102l410 2l131 -508h-189l-26 96l-23 72q-29 90 -53 145q-18 45 -35 70l-24 29l-13 12l-24 14q-10 6 -33 7q-41 0 -68 -9l-59 -18l-8 -6zM-1102 1452l27 -16l28 -29l37 -47l25 -51l22 -68l45 -139l11 -37l16 -49l72 2l-109 336l-20 32l-29 33l-39 23l-20 6 l-21 2h-10l-12 2h-23z" />
<glyph unicode="&#xa3;" horiz-adv-x="1720" d="M-25 492l21 71h270q45 0 96 15q66 18 112 60t63 95l20 64l14 55l2 14l5 21l-545 2l26 98h1803l-27 -98h-1006l-49 -184q-33 -125 -227 -185l-80 -16l-106 -12l-11 -33q0 -16 -4 -25l-12 -72l-2 -63q-4 -117 43 -188q59 -92 197 -93q94 0 186 13q45 4 139 28 q199 51 246 99q-51 0 -88 8l-49 8q-12 2 -31 10q-170 55 -170 199v18l2 21l4 18q2 8 4 19q33 143 209 227q59 29 156 49q66 14 145 15h37q16 0 41 -5h29q12 0 43 -8l22 -6l29 -6l-19 -68l-26 7l-21 6l-65 12l-60 4q-94 6 -170 -55q-88 -72 -114 -187l-8 -34l-2 -19v-18 q0 -61 40 -111q12 -12 48 -31l55 -8l80 6q20 2 80 23l28 10l35 21l-20 -74q-27 -33 -117 -82q-27 -14 -86 -43l-150 -57q-45 -16 -149 -33l-655 -328l-54 62l580 254l-60 -7l-63 -8l-61 -6l-52 -2q-262 -10 -385 113q-47 47 -67.5 100t-20.5 131q0 41 4 64l13 65l8 29l10 28 zM96 301q-8 -184 199 -276q18 -6 55 -17q4 -2 25 -6l37 -6q-100 29 -164 100q-51 55 -66 142q-4 25 -4 63l6 55l19 70q2 12 10 31l12 32l-88 3l-22 -64l-6 -27l-11 -49zM485 602l58 25q27 12 53 35q16 10 41 43q14 18 31 55q2 10 4 12l4 14l2 15q2 14 4 18l4 35l2 33l-78 2 q0 -21 -4 -33l-4 -31l-18 -73l-17 -41l-16 -35l-27 -33zM848 393q0 -145 166 -192q43 -12 94 -13q-92 27 -135 76q-31 31 -39 92q-2 14 -2 45q0 55 24 109q41 86 154 154q43 27 107 49q-121 4 -242 -92q-127 -100 -127 -228zM1298 33h84l230 856h-84z" />
<glyph unicode="&#xa4;" horiz-adv-x="20" d="M-922 -342l2 18l5 21l69 266h148l-72 -270v-15l-2 -18q0 -16 4 -25l10 -16l19 -8l20 -4q65 -1 94 28l19 27l16 45l66 256h141l-68 -256q0 -18 -4 -26l-2 -21q0 -14 4 -22l15 -17l24 -10l37 -4q41 0 68 31l22 32l15 37l65 256h148l-68 -254q-16 -57 -84 -100 q-37 -25 -81 -35t-93 -10q-94 0 -131 45l-10 20l-11 27l-20 -29l-21 -20q-68 -51 -163 -51q-180 0 -181 102z" />
<glyph unicode="&#xa5;" horiz-adv-x="1351" d="M-72 291l31 125q0 -16 18 -41l43 -58q37 -41 86.5 -66.5t98.5 -25.5q92 0 164 66q47 45 75 117q4 10 15 41l8 38l4 39q0 37 -10 64q-12 57 -70 86q-33 14 -63 12l-47 -4l-54 -12l-26 -8l-23 -9l-33 -18l21 78l29 6l55 10l67 8l72 4q96 6 184 -26q72 -29 109 -88l31 -119 l205 2l100 377h-985l26 98h1414l-27 -98h-168l-238 -889h-260l111 432h-199l-80 -143q-63 -68 -150 -101.5t-216 -33.5q-57 0 -113.5 16t-107.5 49l-62 39zM274 207l9 -2h14q72 0 158 47q94 53 116 137l7 39l4 33q0 86 -50.5 155.5t-140.5 85.5q53 -16 82 -67q12 -27 19 -53 l8 -60l-6 -65l-19 -68q-8 -29 -34.5 -65.5t-55.5 -57.5l-55 -39zM831 33h84l230 856h-84z" />
<glyph unicode="&#xa6;" />
<glyph unicode="&#xa7;" horiz-adv-x="20" d="M-922 -342l2 18l5 21l69 266h148l-72 -270v-15l-2 -18q0 -16 4 -25l10 -16l19 -8l20 -4q65 -1 94 28l19 27l16 45l66 256h141l-68 -256q0 -18 -4 -26l-2 -21q0 -14 4 -22l15 -17l24 -10l37 -4q41 0 68 31l22 32l15 37l65 256h148l-68 -254q-16 -57 -84 -100 q-37 -25 -81 -35t-93 -10q-94 0 -131 45l-10 20l-11 27l-20 -29l-21 -20q-68 -51 -163 -51q-180 0 -181 102z" />
<glyph unicode="&#xa8;" horiz-adv-x="501" d="M-387 1163l47 21l53 18l45 6q31 0 70 -4l57 -6q45 -4 92 -33q8 -6 31 -20l271 -170h40l-141 137l-139 141l-33 23l-35 16l-18 6l-19 5l-16 2l-18 2l-43 -7q-18 -2 -39 -14l-6 -6l-9 -6l-20 69l39 9l26 6l72 14l57 4h58q14 0 55 -4q96 -6 148 -43q39 -27 67 -59l250 -275 l14 -6h9q31 0 61 31l4 4l6 10l-12 -59l-12 -55h-574l-26 55l-66 39l-84 45q-115 61 -178 61q-27 0 -37 -4l-33 -12l-4 -4l-8 -6zM-301 1145q35 0 90 -17q49 -8 107 -41l96 -53l84 -61l100 2q-82 68 -192 119q-135 61 -228 55zM-100 889l26 98h707l-27 -98h-188l-238 -889 h-260l238 889h-258zM-61 1331q111 0 299 -211l65 -73l68 -74l100 2l-127 137l-70 72q-61 63 -151 112q-78 43 -127 39zM-29 33h84l230 856h-84z" />
<glyph unicode="&#xa9;" horiz-adv-x="501" d="M-143 1391l26 102l410 2l131 -508h-188l-29 96l-23 72q-6 20 -18 62q-23 63 -70 153l-24 29l-13 12l-24 14q-10 6 -33 7q-37 0 -65 -9l-60 -18l-8 -6zM-100 889l26 98h707l-27 -98h-188l-238 -889h-260l238 889h-258zM-29 33h84l230 856h-84zM51 1452l25 -16l30 -29 l35 -47l27 -51l22 -68l46 -139l10 -37l16 -49l74 2l-96 297l-17 39l-18 32l-31 33l-37 23l-22 6l-21 2h-12l-8 2h-23z" />
<glyph unicode="&#xaa;" horiz-adv-x="4" d="M-1241 -254l446 285h172l310 -307l-144 -43l-286 290l-383 -282zM-1194 -246l43 -20l344 243h-37zM-711 -25l254 -258l54 17l-246 241h-62z" />
<glyph unicode="&#xab;" horiz-adv-x="632" d="M-47 129l235 74q14 6 21 10l27 25q31 29 69.5 98.5t50.5 126.5l11 51l4 45q0 94 -62 117q-23 6 -61 10q-57 0 -111 -31l-31 -18q-49 -29 -69 -59l-4 94l33 14l73 25q49 16 123 28q33 4 74 11h45q104 0 178 -41q84 -49 84 -144v-33l-6 -14l-2 -10q-6 -35 -23 -59 q-8 -23 -37 -58l-47 -57q-18 -18 -45 -35l197 88l-16 -57l-684 -275zM33 889l26 98h791l-27 -98h-790zM283 231l106 45l21 25l24 41l21 51l16 53l4 31l2 31q4 51 -26 100q-12 20 -35 43l-43 35l16 -27l12 -28l7 -35l4 -43q0 -68 -19 -123q-10 -39 -20 -61l-25 -52l-31 -47z " />
<glyph unicode="&#xac;" />
<glyph unicode="&#xad;" horiz-adv-x="0" d="M-1178 -266l2 14l2 19q6 63 87 112q43 27 104 39q10 2 37 2h33l24 -8q43 -10 72 -59l8 -50l-2 -18q-4 -41 -31 -78q-37 -53 -114 -80q-41 -10 -72 -10q-33 0 -57 8q-33 6 -50 25q-35 16 -43 84zM-1118 -236v-28q4 -14 16 -25l27 -16q12 -6 33 -6l34 6l33 16l27 25l14 28 l2 31q-8 31 -39 43l-33 4q-22 0 -34 -4l-35 -16l-27 -25q-12 -10 -18 -33z" />
<glyph unicode="&#xae;" horiz-adv-x="501" d="M-387 1163l47 21l53 18l45 6q31 0 70 -4l57 -6q45 -4 92 -33q8 -6 31 -20l271 -170h40l-141 137l-139 141l-33 23l-35 16l-18 6l-19 5l-16 2l-18 2l-43 -7q-18 -2 -39 -14l-6 -6l-9 -6l-20 69l39 9l26 6l72 14l57 4h58q14 0 55 -4q96 -6 148 -43q39 -27 67 -59l250 -275 l14 -6h9q31 0 61 31l4 4l6 10l-12 -59l-12 -55h-574l-26 55l-66 39l-84 45q-115 61 -178 61q-27 0 -37 -4l-33 -12l-4 -4l-8 -6zM-301 1145q35 0 90 -17q49 -8 107 -41l96 -53l84 -61l100 2q-82 68 -192 119q-135 61 -228 55zM-100 889l26 98h707l-27 -98h-188l-238 -889 h-260l238 889h-258zM-61 1331q111 0 299 -211l65 -73l68 -74l100 2l-127 137l-70 72q-61 63 -151 112q-78 43 -127 39zM-29 33h84l230 856h-84z" />
<glyph unicode="&#xaf;" />
<glyph unicode="&#xb0;" />
<glyph unicode="&#xb1;" horiz-adv-x="20" d="M-281 1159l2 31l7 29q20 98 120 149q29 14 89 29q43 10 94 10l194 2l-20 -76l-137 13q-41 0 -84 -43t-76 -144q-6 -37 -6 -41l-4 -33v-24q0 -14 8 -37l18 -49q14 -29 28.5 -44.5t41.5 -31.5l-127 2l-41 39l-31 33l-33 45l-24 49l-12 45zM-256 1149q0 -66 43 -129 q20 -31 37.5 -50.5t48.5 -45.5l43 2l-39 53l-27 41l-24 63q-10 35 -10 66q0 158 161 235q-88 4 -160.5 -70.5t-72.5 -164.5zM0 1116v10l4 17q12 49 55 80l45 24l48 8q18 4 32 -6l29 -18l16 -29q6 -10 7 -33l-3 -10l-2 -16q-6 -25 -20 -43l-33 -35q-18 -14 -43 -25l-45 -8 q-25 0 -37 4l-28 19l-19 26z" />
<glyph unicode="&#xb2;" />
<glyph unicode="&#xb3;" horiz-adv-x="1382" d="M-135 197l74 65l24 -43l29 -39q51 -70 166 -110q104 -37 256 -37q94 0 188 45t119 123l6 32l2 21q0 33 -10 49q-8 37 -64 59l-41 9l-378 4l-80 18q-45 16 -70 42t-25 65l7 39q27 92 141 137q86 35 213 35l305 2l47 176h-741l26 98h1446l-26 -98h-465l-64 -242h-436 l-53 -6q-74 -8 -105 -72q-4 -16 -16 -47v-12l6 -33l21 -22l28 -15l39 -4l314 2q59 0 94 -12q88 -12 127 -80q18 -33 18 -78l-4 -35q0 -20 -8 -38q-37 -137 -230 -189q-131 -35 -352 -35q-240 0 -377 68q-80 39 -151 158zM104 502q0 -23 19.5 -45.5t48.5 -30.5l72 -20l78 -7 q-90 6 -113 72l-8 57q0 72 59 107l43 24l51 19l-8 2h-12q-41 0 -74 -10l-35 -11q-2 -2 -30 -18q-90 -53 -91 -139zM582 6q156 0 261 79t105 196q0 31 -16 53q-18 41 -109 67q-35 8 -71 9h-23l-10 -2l-6 2q119 -45 118 -148q0 -150 -137 -215q-12 -6 -49 -20zM768 684h84 l51 205h-84zM1030 537v12l2 10q10 49 62 82l49 25l53 8q19 2 39 -6l33 -19q14 -10 22 -28l8 -33l-2 -13l-2 -16q-6 -25 -24 -43q-10 -14 -37 -35l-25 -14l-22 -8l-25 -6l-24 -2l-41 4l-35 18l-23 27zM1071 545l2 -25q4 -8 19 -18l16 -8l18 -2l23 2l22 12l19 16l12 23l2 16 l-4 14l-18 17q-12 6 -29 6q-31 4 -50.5 -11t-31.5 -42z" />
<glyph unicode="&#xb4;" horiz-adv-x="1351" d="M-72 291l31 125q0 -16 18 -41l43 -58q37 -41 86.5 -66.5t98.5 -25.5q92 0 164 66q47 45 75 117q4 10 15 41l8 38l4 39q0 37 -10 64q-12 57 -70 86q-33 14 -63 12l-47 -4l-54 -12l-26 -8l-23 -9l-33 -18l21 78l29 6l55 10l67 8l72 4q96 6 184 -26q72 -29 109 -88l31 -119 l205 2l100 377h-985l26 98h1414l-27 -98h-168l-238 -889h-260l111 432h-199l-80 -143q-63 -68 -150 -101.5t-216 -33.5q-57 0 -113.5 16t-107.5 49l-62 39zM274 207l9 -2h14q72 0 158 47q94 53 116 137l7 39l4 33q0 86 -50.5 155.5t-140.5 85.5q53 -16 82 -67q12 -27 19 -53 l8 -60l-6 -65l-19 -68q-8 -29 -34.5 -65.5t-55.5 -57.5l-55 -39zM831 33h84l230 856h-84z" />
<glyph unicode="&#xb5;" />
<glyph unicode="&#xb6;" horiz-adv-x="1126" d="M16 457l2 32q0 12 5 31l49 193l34 123l17 51l-90 2l26 98h1241l-26 -98h-270l-66 -248l61 29l78 28l88 19l121 8l-41 -88l-41 14q-18 6 -47 6q-86 0 -170 -45q-18 -10 -31 -22l-41 -31l-149 -559h-258l80 297l-25 -14l-20 -11q-43 -20 -121 -34q-59 -10 -119 -11 q-131 0 -207 62q-29 23 -59 73q-23 53 -21 95zM53 459q-2 -35 15 -74q27 -61 118 -106q43 -14 76 -15l-59 37l-41 39q-16 14 -27 43l-8 49l2 19l4 22l109 416h-84zM250 395l6 -47l18 -33l33 -22q23 -6 53 -6q92 0 177 47l32 18l41 29l135 508h-370l-123 -459zM557 33h84 l229 856h-84z" />
<glyph unicode="&#xb7;" horiz-adv-x="1220" d="M-135 197l115 102q14 -66 43 -113q55 -96 208 -133q84 -20 183 -20q72 0 145 30q8 4 43 25q94 59 125 158l10 51l4 45q0 70 -47 104l-39 17q-14 6 -47 6l-237 2h-64q-27 6 -39 8q-170 49 -159 174l2 25l4 29q8 55 49 110q55 74 147 121t185 47l583 2l-28 -98h-435 q-53 0 -118 -41q-84 -51 -115 -150q-2 -10 -4 -12l-2 -12l-2 -15v-12q0 -25 9 -45t28 -35l41 -22l51 -6l272 2q104 0 168 -45q66 -37 66 -134q0 -27 -4 -45l-11 -45q-35 -150 -235 -233q-164 -68 -367 -68q-240 0 -377 68q-80 39 -151 158zM154 641q0 -59 73 -102 q29 -16 68 -27l82 -8l-49 22l-23 17q-49 35 -49 112q0 104 76 189q23 35 71 67q35 23 82 39q-119 4 -225 -94q-55 -51 -80.5 -100t-25.5 -115zM559 25q96 6 170 55q92 63 131 145q27 55 27 117q0 98 -135 141q-39 12 -80 13q37 -6 57 -23q41 -25 53 -84l6 -65 q0 -102 -67 -189q-37 -47 -71 -69.5t-91 -40.5z" />
<glyph unicode="&#xb8;" horiz-adv-x="790" d="M-4 444l6 86q2 16 4 21l12 -4h33l111 6q133 8 203 74q43 33 49 78l4 28l2 27l-6 43q-8 29 -17 43l-22 26l-8 15l-334 2l26 98h854l-28 -98h-291l45 -25l35 -28q12 -12 18 -33l8 -41l-2 -25l-6 -24q-29 -111 -186 -168q-47 -16 -103 -27l-122 -8l-9 -21l-2 -14l-6 -45 l-2 -41q-4 -102 44 -161.5t145 -59.5q96 0 208 57q33 18 74 47l90 66l31 31l-31 -119l-94 -60l-113 -47l-118 -32q-61 -10 -111 -11q-305 0 -375 219q-20 63 -16 125zM45 414q0 -139 84 -205q27 -20 82 -47q45 -16 121 -33l-99 64q-66 53 -92 129q-6 23 -10 92l-2 28v35 l4 21l-86 2v-21l-2 -12v-53zM238 545q39 0 141 20q49 10 76 25q96 51 96 182q0 18 -7 42t-22 48l-6 10l-8 15l-90 2l14 -25l17 -28l12 -33l4 -31q0 -144 -137 -205z" />
<glyph unicode="&#xb9;" />
<glyph unicode="&#xba;" horiz-adv-x="1155" d="M-96 35q0 25 2 41t10 45q53 188 207 276l57 25l99 37q-8 -8 -33 -8q-14 0 -23 2q-37 10 -96 41q-31 16 -51 36q-12 18 -17 48v10l2 10q20 68 93 102l61 17l78 6l514 2l43 164h-817l26 98h1319l-26 -98h-242l-59 -223h-576l-51 -7q-23 -2 -43 -14q-14 -4 -35 -24 q-12 -16 -18 -39q0 -14 -4 -23l-2 -14q0 -18 4 -25l12 -20l14 -15l6 -4l54 8l75 13l80 8l66 4l147 -6q164 -6 248 -66q41 -29 41 -67l-2 -10l-2 -17q-6 -27 -37 -47q-47 -29 -88 -41l-51 -14l-86 -21q-98 -23 -129 -116l-2 -7v-16l6 -27l18 -20l29 -12l37 -2h22l27 4 q18 0 37 8l51 14l49 19l35 18l-31 -96l-39 -6q-18 0 -28 -4l-72 -7l-57 -4h-101q-14 4 -26 4l-82 7q-68 12 -99.5 32.5t-35.5 55.5v10l4 14q27 92 153 135l101 21l57 14q45 10 66 43l16 39q12 59 -51 84q-31 12 -80 23l-92 8q-225 0 -340 -191q-43 -72 -62 -155l-10 -47 l-2 -43q-6 -150 172 -211q57 -20 107 -23l133 -8h30q43 8 129 29q25 8 35 16l17 4l-23 -88l-24 -2q-10 0 -25 -4l-27 -2q-10 0 -24 -4l-54 -4l-51 -2q-100 -4 -231 12q-272 37 -371 141q-61 68 -61 156zM-41 25q0 -94 129 -177q45 -29 119 -53q57 -18 123 -18 q-98 25 -174 92q-90 82 -90 164q0 135 73.5 245.5t175.5 149.5q-109 -4 -232.5 -124.5t-123.5 -278.5zM106 575q1 -41 60 -61l55 -18l51 -4l-28 12l-27 20l-18 27l-4 29q0 49 51 79l41 21l47 12l-15 2h-22l-68 -6q-123 -25 -123 -113zM457 82q0 -25 17 -41.5t52 -28.5 l54 -12l88 -2l6 2q-23 0 -47 8l-37 12q-51 16 -55 54q0 49 30 88l27 26l41 29q-31 0 -60.5 -13.5t-64.5 -37.5q-43 -33 -51 -84zM754 252q39 -8 110.5 24.5t71.5 83.5q0 18 -17.5 38t-46.5 30l-59 21l-49 8l27 -17l28 -26l21 -31l8 -27q0 -41 -29 -69l-31 -23zM840 694h84 l53 195h-84z" />
<glyph unicode="&#xbb;" horiz-adv-x="1132" d="M-23 428v190h1153v-190h-1153zM440 37v242h244v-242h-244zM440 776v244h244v-244h-244z" />
<glyph unicode="&#xbc;" horiz-adv-x="491" d="M113 526q0 248 86 486q59 162 161 329q31 55 89 123l268 2l-72 -80l-70 -92q-55 -74 -98 -155q-98 -188 -133 -385q-20 -115 -20 -228v-53q0 -33 4 -61l16 -113l25 -115l37 -114q33 -102 153 -324l62 -113l22 -45h-197l-26 33l-60 98q-31 49 -90 168l-69 170 q-39 96 -68 240q-20 104 -20 229z" />
<glyph unicode="&#xbd;" horiz-adv-x="516" d="M-35 -412q2 6 23 45l59 111l88 168l66 158q33 80 61 231q23 121 23 225q0 240 -82 469q-31 82 -86 193q-31 63 -68 129l-61 108l-21 39l187 2l24 -32l62 -91q88 -129 163 -331q88 -236 89 -486q0 -106 -23 -229q-25 -131 -63.5 -236.5t-112.5 -253.5q-18 -37 -49 -86 l-62 -98l-26 -35h-191z" />
<glyph unicode="&#xbe;" horiz-adv-x="1155" d="M-14 225v191h1153v-191h-1153zM-14 629v190h1153v-190h-1153z" />
<glyph unicode="&#xbf;" horiz-adv-x="415" d="M41 506l27 98l6 4l6 6l26 31l21 29l16 31l13 40l2 17l4 24v431q0 86 43 157q88 145 235 146l31 -4l39 -7l209 2v-165h-215q-63 0 -107 -39q-18 -16 -37 -45q-6 -16 -10 -52v-422l-6 -49l-16 -59q-4 -16 -23 -57l-24 -41l-45 -29l36 -35q20 -23 33 -55l29 -76l12 -55 l4 -35v-418q0 -90 88 -112l66 -9h215v-182h-219q-154 0 -246 77t-92 222v428q0 33 -10 57q-6 33 -25 58q-10 25 -39 51q-20 23 -47 37z" />
<glyph unicode="&#xc0;" horiz-adv-x="788" d="M53 -242h211q63 0 107 27q35 25 43 94v420l6 51q31 121 76 166l4 4l14 10l14 13l9 8l-45 31q-16 14 -33 43l-25 65l-16 60l-4 36v426q0 57 -41 93q-23 16 -54 28q-14 6 -55 10l-211 3v165h205q23 0 35 5l33 4q113 0 198.5 -94.5t85.5 -211.5l6 -481l11 -31l16 -32l16 -25 l27 -29l4 -6l10 -8l25 -94q-26 -16 -49 -39l-37 -49l-23 -58l-6 -61v-426q0 -141 -95 -220t-247 -79h-215v182z" />
<glyph unicode="&#xc1;" horiz-adv-x="1075" d="M-84 -129l598 358q-31 -14 -90 -26l-109 -8q-66 -4 -143 16q-119 31 -160 117q-20 41 -20 92l4 31q0 25 4 38l106 400h-120l26 98h1159l-26 -98h-166l-238 -889h-260l47 174l-559 -364zM31 420q0 -70 61 -131q33 -33 73 -49.5t77 -16.5l-60 41l-28 27q-14 14 -35 49 q-6 18 -10 57l2 23l4 26l118 443h-83l-115 -434q0 -14 -4 -21v-14zM233 358q-4 -72 78 -98q29 -6 72 -6q80 0 145 51q27 20 39 39l17 37l135 508h-350l-133 -494zM532 33h84l230 856h-84z" />
<glyph unicode="&#xc2;" />
<glyph unicode="&#xc3;" horiz-adv-x="1228" d="M-121 199l84 133l19 -39l16 -37q49 -72 160 -111q131 -47 270 -39l102 7q41 2 84 22q82 29 115 115l2 12l4 14v13l2 12q0 27 -8 43t-27 27l-38 14l-46 6l-282 2q-20 4 -31 4q-43 6 -82 21q-92 35 -92 106v13l4 20q18 90 137 135q35 12 95 23l120 8l359 2l43 164h-856 l26 98h1291l-27 -98h-186l-62 -230h-489l-56 -6l-41 -10q-61 -25 -83 -86q-2 -10 -5 -12v-15q0 -31 33 -53l35 -12l43 -4l244 2q55 0 92 -10q92 -10 129 -68q18 -31 18 -70l-4 -30l-6 -33q-10 -57 -69.5 -101.5t-163.5 -74.5l-154 -31q-16 -4 -82 -8q-43 -4 -86 -2l-68 2 q-23 0 -22 6l41 -147q10 -35 86 -48q25 -4 59 -4h31q37 6 109 29l61 29l-29 -113l-80 -14l-100 -13l-84 -4l-96 6q-49 4 -80 15q-70 18 -104 59q-51 57 -72 164l-8 41l-8 57l-25 9l-25 12l-22 10l-27 14zM115 76l39 -156q14 -59 110 -92l37 -8l53 -8l-16 6l-10 4 q-61 33 -78 94l-35 135zM180 524q0 -25 14.5 -39t47.5 -30l61 -19l62 -6l12 2h8l-61 14q-61 25 -62 74q0 37 19 68q14 23 53 61l28 23l46 26q-31 -4 -68 -16l-45 -14q-115 -51 -115 -144zM504 86l102 6q131 8 203 76q45 43 45 106q0 45 -41 86q-39 36 -86 50q-29 8 -53 6 q47 0 78 -45l14 -41l6 -51q0 -111 -133 -166l-55 -17zM872 1245l2 31l7 29q12 57 61 106q41 41 94 59q33 10 107 23h43l194 2l-20 -76l-137 13q-20 0 -45 -13l-41 -30q-59 -59 -76 -144l-8 -41l-2 -33l6 -61q14 -61 51 -92l39 -33l-125 2l-43 39l-31 33l-33 45l-24 49 l-14 45zM881 684h84l53 205h-84zM897 1235q0 -35 10 -64l33 -65l37 -49l49 -47l45 2l-41 53l-26 41q-14 23 -27 63l-8 66q0 158 161 235q-87 5 -165 -73q-31 -37 -49.5 -80t-18.5 -82z" />
<glyph unicode="&#xc4;" horiz-adv-x="1314" d="M33 889l26 98h1352l-27 -98h-188l-238 -889h-260l238 889h-537l-24 -19l-17 -14q-18 -16 -39 -49l-22 -57l-4 -27l-2 -21q0 -61 63 -90l27 -8l37 -4l252 2l-17 -61h-155l-29 -6q-14 0 -25 -9q-47 -20 -77 -63q-18 -27 -56 -117l-4 -10l-2 -8l-2 -13v-8l-2 -16v-12 q0 -51 33 -74l41 -17l55 -4q76 -6 188 47q102 47 173 99q33 25 40 39l-24 -95l-82 -47l-63 -30q-57 -29 -154 -56q-72 -20 -131 -20h-84q-47 8 -143 37q-111 51 -105 139l2 27l6 26q25 102 137 182l41 23l60 27l-15 -2h-34q-12 0 -45 4l-58 18q-43 18 -63.5 50t-20.5 67v16 l2 13q6 33 21 61q10 23 31 43l14 14l24 21zM94 276q0 -72 101 -100l79 -22l88 -7h23q14 0 21 5q-76 0 -125 18q-59 20 -99 68q-20 31 -20 63q0 88 67 176l43 39l74 53q-49 -14 -82 -32q-94 -37 -143 -138q-27 -53 -27 -123zM96 709q0 -51 54 -74l51 -23l53 -6h12l8 2l-38 15 l-33 18l-35 33q-6 10 -10 37q0 29 7 55.5t23 48.5l29 39l37 33l-70 2l-49 -55q-12 -18 -31 -60zM750 33h84l229 856h-84z" />
<glyph unicode="&#xc5;" horiz-adv-x="1605" d="M-98 205l121 100q-6 -18 -7 -39q0 -55 77 -139t222 -84q109 0 187 52t116 179l7 39l4 33q0 76 -49 119q-37 31 -86 39l-193 2l16 61h191l51 6q31 10 62 29q82 47 104 127l2 16l2 23q0 31 -8 50.5t-27 41.5l-16 12l-21 15l-624 2l26 98h1655l-26 -98h-770l18 -19l18 -16 q16 -20 25 -41l8 -43l-2 -18l-4 -21q-8 -43 -63.5 -88t-122.5 -63l-66 -19l-90 -18l16 -2l33 -6q8 -2 19 -5l16 -2l14 -4l11 -4l61 -35l8 -8l10 -6l29 18l35 21l43 18l49 19l98 28q35 10 82 11q106 0 176 -43q37 -25 58 -66q25 -51 20 -94l-4 -47l-12 -55q-18 -82 -78 -154 q-68 -80 -174 -113q-74 -23 -145 -26h-41l-41 2q-14 0 -36 2t-30 6l-8 2l26 98l15 -26l18 -19l21 -12l24 -2q57 -4 123 65.5t88 176.5l15 65l4 60l-6 51q-12 45 -50 61l-43 8q-29 0 -65 -12l-76 -37l-51 -35l-23 -18l6 -12l7 -11l10 -36l4 -33l-4 -29l-6 -37 q-10 -68 -76 -129q-104 -102 -307 -135q-86 -14 -183 -14q-213 0 -329 104zM459 43q74 0 128 19.5t87 62.5q20 25 37 70l10 49l4 43q0 115 -76 174q-8 8 -61 35l35 -37l22 -39l14 -41l5 -43l-2 -33l-7 -29q0 -14 -8 -30l-12 -35l-27 -51l-39 -45l-51 -41zM608 569 q78 0 142 37q72 41 96 101l2 14l2 22q0 59 -53 103q-45 33 -103 41q78 -37 72 -121l-2 -25q-2 -18 -4 -24q-6 -31 -23 -55q-29 -72 -129 -93zM1061 43q139 0 211 137q25 47 39 105l4 26l2 27q4 59 -39 121q-18 25 -47 45l-60 35q60 -68 60 -154l-4 -45l-4 -27l-6 -28 q-20 -98 -68 -162l-43 -47q-14 -14 -45 -33z" />
<glyph unicode="&#xc6;" horiz-adv-x="532" d="M-39 0l238 889h-166l26 98h158l-18 17l-19 30l-8 19l-4 20l-4 19v32l4 19q33 147 188 207q8 4 123 28q78 10 166 11q68 0 152 -23q203 -55 368 -154q82 -49 117 -84l-2 13v35l2 18l2 16q2 10 4 13q27 100 121 149q33 16 90 29q39 8 51 10h43l195 2l-21 -76l-137 13 q-20 0 -45 -13l-41 -30q-59 -59 -76 -144l-8 -41l-2 -32l6 -62q14 -61 52 -92l38 -33l-124 2l-19 13l-51 51l-29 41l-108 67l-119 70q-137 80 -260 129q-115 45 -164 45q-143 0 -209 -98q-27 -39 -37 -82l-4 -17l-2 -16l-2 -14v-9l6 -43q4 -10 21 -34l4 -7l6 -4l8 -6l10 -6 l172 2l-26 -98h-168l-238 -889h-260zM12 33h84l230 856h-84zM207 1102q0 -12 8 -35l6 -16l8 -15l7 -10l6 -8l100 2l-10 16l-4 17l-13 39l-2 32v11l4 14q23 78 95 131q29 20 51 33l61 30q-74 -6 -112 -22q-98 -20 -160 -98q-25 -31 -41 -90zM1323 1110q2 -6 8 -27 q10 -35 29 -59l33 -45l49 -45l37 2l-45 61l-29 56l-14 49l-5 49q-6 72 37 137q37 57 121 98q-84 9 -158 -75q-29 -33 -49 -80q-14 -53 -14 -84v-37z" />
<glyph unicode="&#xc7;" horiz-adv-x="532" d="M-39 0l238 889h-166l26 98h158l-18 17l-19 30l-8 19l-4 20l-4 19v32l4 19q33 147 188 207q8 4 123 28q78 10 166 11q72 0 137 -29q88 -39 144 -84l307 -248l51 8q31 10 51 31l29 27l20 28l54 -59l-27 -35l-31 -24q-18 -14 -63 -25l-80 -8q-51 0 -117 47q-25 18 -49 39 l-100 86l-97 86q-102 92 -194 92q-143 0 -209 -98q-27 -39 -37 -82l-4 -17l-2 -16l-2 -14v-9l6 -43q4 -10 21 -34l4 -7l6 -4l8 -6l10 -6l172 2l-26 -98h-168l-238 -889h-260zM12 33h84l230 856h-84zM207 1102q0 -12 8 -35l6 -16l8 -15l7 -10l6 -8l100 2l-10 16l-4 17l-13 39 l-2 32v11l4 14q23 78 95 131q29 20 51 33l61 30q-74 -6 -112 -22q-98 -20 -160 -98q-25 -31 -41 -90zM1077 1292v15l4 18q14 68 82 111t146 43q33 4 56.5 -5.5t41.5 -27.5q31 -18 39 -84l-2 -19l-4 -18q-12 -59 -80 -106l-66 -33q-37 -10 -67 -10q-63 0 -107 30l-33 37 q-6 14 -10 49zM1135 1292q4 -14 16 -24l27 -17l34 -4q20 0 33 4l35 17l27 24l14 31v29q0 10 -12 26l-25 17q-12 6 -33 6q-17 4 -37 -6l-34 -17l-29 -24l-14 -31z" />
<glyph unicode="&#xc8;" horiz-adv-x="532" d="M-467 1106q0 141 125 215q80 47 190 61q35 4 82 4q143 0 285.5 -174t177.5 -174q16 0 35 11l43 32l29 31l20 29l53 -60l-20 -32l-18 -21l-41 -29l-50 -14l209 2l-26 -98h-168l-238 -889h-260l238 889h-166l26 98h306q-41 33 -66 60l-166 180q-88 96 -170 96 q-86 0 -133 -55q-61 -57 -61 -170q0 -45 32 -86l6 -6l9 -7l8 -8l10 -6l-252 2l-14 14l-17 31l-14 37zM-424 1114l4 -29l19 -49l10 -18l98 2l-4 16l-6 17l-10 39l-4 32q0 78 71 146l31 28l29 25l30 18l31 17q-102 0 -200.5 -73t-98.5 -171zM12 33h84l230 856h-84zM289 1296 v11l4 16q12 49 55 80l45 24l47 9q19 4 33 -6l29 -19l16 -29q6 -10 6 -32l-2 -11l-2 -16q-6 -25 -20 -43l-33 -35q-18 -14 -43 -24l-45 -9q-25 0 -37 5l-29 18l-18 27z" />
<glyph unicode="&#xc9;" horiz-adv-x="532" d="M-39 0l238 889h-166l26 98h158l-18 17l-19 30l-8 19l-4 20l-4 19v32l4 19q33 147 188 207q8 4 123 28q78 10 166 11q127 0 307 -72q168 -68 256 -152l-2 13v34l2 19l2 16q2 10 4 13q27 100 121 149q33 16 90 29q39 8 52 10h43l194 2l-20 -76l-138 12q-20 0 -45 -12 l-41 -31q-59 -59 -75 -143l-9 -41l-2 -33l7 -61q14 -61 51 -92l39 -33l-125 2l-19 12l-51 52l-29 41l-157 96l-125 74q-59 35 -172 77q-106 27 -123 27q-143 0 -209 -98q-27 -39 -37 -82l-4 -17l-2 -16l-2 -14v-9l6 -43q4 -10 21 -34l4 -7l6 -4l8 -6l10 -6l172 2l-26 -98 h-168l-238 -889h-260zM12 33h84l230 856h-84zM207 1102q0 -12 8 -35l6 -16l8 -15l7 -10l6 -8l100 2l-10 16l-4 17l-13 39l-2 32v11l4 14q23 78 95 131q29 20 51 33l61 30q-74 -6 -112 -22q-98 -20 -160 -98q-25 -31 -41 -90zM1241 1188l6 -53l19 -52l37 -55l61 -57l45 2 l-45 55l-23 35q-14 23 -24 59l-8 66q0 158 161 235q-83 5 -161 -73q-31 -37 -49.5 -80t-18.5 -82zM1489 1157v10l4 17q12 49 55 80l45 24l47 8q19 4 33 -6l29 -18l16 -29q6 -10 6 -33l-2 -10l-2 -16q-6 -25 -20 -43l-33 -35q-18 -14 -43 -25l-45 -8q-25 0 -37 4l-29 19 l-18 26z" />
<glyph unicode="&#xca;" horiz-adv-x="532" d="M-467 1096q0 141 125 215q80 47 190 61q35 4 82 4q143 0 285.5 -174t177.5 -174q16 0 35 10l43 33l29 31l20 28l53 -59l-20 -33l-18 -20l-41 -29l-50 -14l209 2l-26 -98h-168l-238 -889h-260l238 889h-166l26 98h306q-41 33 -66 59l-166 181q-88 96 -170 96 q-86 0 -133 -56q-61 -57 -61 -170q0 -45 32 -86l6 -6l9 -6l8 -8l10 -6l-252 2l-14 14l-17 31l-14 37zM-424 1104l4 -29l19 -49l10 -18l98 2l-4 16l-6 16l-10 39l-4 33q0 78 71 146l31 28l29 25l30 18l31 17q-102 0 -200.5 -73t-98.5 -171zM12 23h84l230 856h-84zM201 1333 l2 31l6 29q12 57 61 106q41 41 95 60q33 10 106 22h43l195 2l-21 -76l-137 13q-20 0 -45 -13l-41 -30q-59 -59 -76 -144l-8 -41l-2 -41v-28q0 -55 35 -101l14 -18l27 -27l-105 -2l-43 39l-31 33l-32 45l-25 49l-14 45zM225 1323q0 -35 11 -63l32 -66l37 -49l49 -47l45 2 l-41 53l-26 41q-14 23 -27 63l-8 66q0 158 162 236q-88 4 -166 -74q-31 -37 -49.5 -80t-18.5 -82z" />
<glyph unicode="&#xcb;" horiz-adv-x="819" d="M31 307l2 19l6 32q8 47 49 95q33 41 94 73l21 9l24 10l29 8l35 8l-49 4q-35 6 -74 29q-115 51 -115 143l2 21q0 18 4 24q16 100 156 156q104 41 197 45h37h55q20 0 51 -4q55 -4 80 -10q47 -10 71.5 -32t24.5 -58l-2 -19l-6 -20q-4 -12 -12 -25l-21 -29l-14 -14l-17 -18 l-198 2q16 6 20 10l25 25l20 28l13 27l4 20l2 15q0 14 -4 20l-15 17l-20 8l-25 4q-82 0 -139 -82l-25 -62l-6 -32l-2 -31q-4 -76 70 -129l4 -4l8 -2l8 -4q10 -2 13 -4l264 2l-17 -64l-167 2q-59 0 -106.5 -42t-66.5 -132l-6 -29l-2 -24q-2 -23 8 -49q10 -18 29 -33l43 -21 q25 -6 60 -6q59 0 124 23q84 29 152 67l107 62q41 23 49 41l-27 -94l-90 -52l-68 -32q-170 -82 -313 -82q-147 0 -246 45q-51 23 -79.5 61.5t-28.5 83.5zM78 305q0 -61 81 -108t185 -47l-70 28l-47 27q-29 16 -49 43q-10 18 -14 49q0 37 16 82q23 68 92 119q25 18 60 37 q-76 3 -158 -56q-96 -72 -96 -174zM94 731q0 -57 88 -108q12 -8 31 -15l66 -8l-41 25l-27 24l-21 35l-6 39q0 88 78 147l62 48l65 34q-78 4 -176 -55q-119 -72 -119 -166zM520 946q12 0 19 -4l20 -12q8 -6 14 -23l5 -37l-5 -22l-10 -29l-16 -24l-19 -17l84 2q10 4 19 15 l18 22l13 25l4 24q0 20 -11 33l-30 27l-43 16l-43 6h-9z" />
<glyph unicode="&#xcc;" horiz-adv-x="1146" d="M-41 160l2 20l2 17q31 100 106.5 150t182.5 69q-12 -4 -25 -4q-6 0 -36.5 7t-81.5 38q-57 35 -66 94v18l4 15q23 78 109 114l75 21l93 8l424 2l43 160h-758l26 98h1268l-27 -98h-268l-57 -213l-580 -4q-92 -12 -116 -107q-2 -8 -3 -22q0 -10 11.5 -32t52.5 -38l14 -6 l19 -4l22 -6l27 -6l223 2l-14 -58h-221l-41 -8l-29 -10q-76 -37 -102 -148q0 -14 -5 -22v-14q0 -70 80 -109l70 -23l82 -8q80 0 172 21q20 4 78 22l65 25l56 24l41 23l30 25l-28 -109q-39 -21 -84 -33l-133 -35l-123 -20l-103 -8l-174 6q-180 6 -262 80q-41 35 -41 86z M6 160q2 -10 4 -13l2 -16l6 -14q6 -14 31 -39l55 -33l33 -14l37 -8q20 0 33 -5l35 -2l22 2l-61 19l-49 24l-35 27q-12 14 -19 29l-8 28l-2 29q-4 61 47 119q47 51 150 92q-55 0 -103 -16q-96 -23 -157 -113q-20 -41 -21 -80v-16zM92 551q0 -47 80 -78l33 -12l47 -15l-25 13 l-14 12q-35 29 -41 74q0 72 59 106l25 15l35 18h-35l-14 -2h-13q-137 -16 -137 -131zM791 713h83l54 176h-84z" />
<glyph unicode="&#xcd;" horiz-adv-x="970" d="M-164 -164l2 21l4 22q20 115 158 180q76 37 158 37l280 2l45 170l-14 -4h-121q-55 8 -170 31q-86 23 -129 60.5t-43 90.5l2 19l4 22q20 115 156 187l80 31l45 10h31l280 2l45 172h-616l26 98h1133l-27 -98h-288l-62 -232h-377l-26 -6l-21 -4q-106 -35 -143 -153 q-2 -10 -4 -13l-4 -28v-11q0 -74 79 -102l68 -16l96 -5q78 -4 168 19q82 18 142 51l47 27l51 43l27 -121l-11 -6l-10 -2l-10 -4q-10 -2 -13 -4l-26 -9l-29 -6l-102 -14l-68 -258h-377l-26 -6l-21 -4q-51 -10 -90 -54q-35 -35 -53 -94l-6 -31l-2 -18q0 -70 80 -98l69 -15 l96 -4q78 -4 183 19q74 14 127 47l45 26l51 39l27 -123l-82 -18l-146 -27l-123 -16l-90 -6h-121q-39 6 -55 8q-47 0 -131 21q-168 41 -168 155zM-127 -152q0 -16 4 -28l10 -29q10 -27 47 -49q31 -23 76 -37l37 -8l90 -14q-45 16 -78 34l-34 19l-29 26l-19 27l-12 31l-4 30 q0 41 16 74q29 74 109 123q29 16 68 29q-95 4 -193 -70q-88 -70 -88 -158zM39 463l2 -31l12 -26q10 -23 43 -50l76 -37l53 -16l72 -12l-57 24l-27 15q-23 12 -45 35l-27 38l-10 25l-2 35q-2 20 4 37l12 37l19 34l29 37q49 63 126 84q-96 4 -191 -73.5t-89 -155.5zM481 94h84 l45 176h-84zM645 713h84l45 176h-84z" />
<glyph unicode="&#xce;" horiz-adv-x="970" d="M-156 -143l2 10l4 24q8 49 51.5 94.5t98.5 71.5q31 14 74 27q25 6 84 12l280 2l45 170l-14 -4h-121q-55 8 -170 31q-86 23 -128 60.5t-42 93.5v20q2 14 4 18q33 150 203 209q49 18 109 19l305 2l45 172h-641l26 98h1133l-27 -98h-264l-61 -232h-402l-26 -6l-21 -4 q-106 -35 -143 -153q-2 -10 -4 -13l-4 -28v-11q0 -74 79 -102l68 -16l96 -5q78 -4 168 19q82 18 142 51l47 27l51 43l27 -121l-11 -6l-10 -2l-10 -4q-10 -2 -13 -4l-28 -9l-31 -8l-31 -6l-22 -2l-47 -8l-23 -2l-53 -193q33 -6 57 -22q41 -20 69 -62.5t26 -85.5l-3 -30 l-6 -31q-10 -49 -63 -92q-96 -78 -277 -107q-80 -12 -163 -12q-238 0 -336.5 53t-98.5 139v13zM-121 -150l2 -14v-16q2 -10 4 -13l6 -16q8 -20 31 -39.5t58 -32.5q29 -16 69 -24l88 -17l-86 37q-29 12 -43 33l-28 41l-11 29l-4 30q0 39 19 82q31 68 110 119q25 16 66 29 q-95 6 -195 -72q-86 -68 -86 -156zM41 461l2 -29l10 -26q31 -61 127 -89l51 -14l66 -12l-49 24l-35 19q-31 16 -45 28l-25 31l-12 33l-2 37q-2 20 4 37l12 37l19 34l29 37q49 63 126 84q-90 8 -187 -72.5t-91 -158.5zM74 -166v-16q0 -92 112 -113l74 -6q117 -10 217 45 q80 43 105 133l4 25l2 20q0 59 -41 86l-23 15l-22 10l-213 2l-31 -6q-14 0 -22 -4q-57 -10 -97.5 -50.5t-56.5 -97.5l-4 -14l-2 -17zM440 -295q-2 0 78 14q59 10 119 60q33 23 45 51l8 20l6 21l4 23l2 20q0 72 -55 102q-55 41 -155 41q29 -2 49 -18l39 -31q27 -20 34 -92 l-4 -41l-6 -22q-4 -16 -10 -25l-29 -41l-33 -35l-43 -26zM471 92h84l45 176h-84zM659 711h84l45 176h-83z" />
<glyph unicode="&#xcf;" horiz-adv-x="1118" d="M-244 -207l103 96l39 -36l34 -41q55 -37 150 -56q125 -25 227 -18l105 6q113 6 166 49q29 18 38 49l3 11l2 8v8q0 45 -33 55l-39 6l-55 2h-271l-104 7q-49 2 -92 16q-82 25 -82 90l2 10l2 19q12 57 82 88q96 43 133 35l-29 6l-24 8l-64 14l-43 15l-33 18l-49 29l-8 4 l-14 10l90 86l16 -31l19 -24q53 -53 161 -80q135 -33 252 -27l101 6l92 19q106 35 119 88l4 16l2 17q0 20 -7.5 31.5t-29.5 23.5l-41 10l-47 4l-377 4q-27 4 -79 16.5t-73.5 36t-25.5 58.5v10l4 19q16 72 133 112q57 20 98 23l113 8l338 2l43 160h-774l26 98h1282l-26 -98 h-248l-59 -221h-482l-57 -6l-53 -13q-43 -10 -64 -61l-4 -15v-8q0 -39 31 -49l37 -12l45 -2l305 2l139 -15q57 -8 90 -49q23 -20 23 -53v-8l-2 -12q-25 -94 -225 -150q-80 -23 -179 -35q-57 -8 -119.5 -9t-68.5 -1l-86 6q-18 2 -33.5 -1t-21.5 -7q-49 -16 -74 -88l-2 -10 v-13q0 -33 33 -51l36 -10l48 -4h360q92 0 144.5 -31t56.5 -84l-2 -12l-2 -21q-6 -29 -32 -51t-71 -45l-37 -12l-51 -17l-227 -32l-172 -6q-199 -6 -395 55q-23 6 -64 22q-35 10 -45 17zM-12 49q0 -25 15 -38t52 -29l45 -11l72 -14l-37 18l-24 15q-35 20 -41 51q0 68 77 113 l15 8l22 12l-57 -12l-41 -12q-98 -29 -98 -101zM117 561q0 -25 16 -41q25 -18 53 -26l45 -13l72 -12l-37 18l-24 15l-31 24q-6 10 -10 29q0 39 41 78q14 12 32 26l31 19l43 24q-29 -4 -67 -16l-48 -14q-117 -47 -116 -111zM547 -256l57 12l41 11q92 33 100 100 q0 27 -13 42.5t-46 27.5l-61 14l-66 4l39 -8q18 -4 25 -10q31 -12 39 -64q0 -55 -58 -98l-24 -15zM690 246l55 8q29 4 39 10q94 25 95 96q-1 25 -15 41q-29 41 -100 50l-62 6q14 0 33 -11l31 -16q12 -8 20 -27l9 -36q0 -47 -52 -95l-10 -6l-12 -6l-14 -8zM805 709h84l45 180 h-84z" />
<glyph unicode="&#xd0;" />
<glyph unicode="&#xd1;" horiz-adv-x="1699" d="M-29 328q0 25 2 42t11 42q33 139 157.5 229t270.5 90q98 0 168 -33l69 -32l60 223h-678l26 98h1745l-26 -98h-807l-66 -248l74 43q20 12 96 31q37 8 82 8q80 0 135 -16q115 -37 158 -127q23 -49 22 -109l-4 -45q0 -16 -8 -47q-39 -145 -178 -234q-55 -35 -150 -61 q-61 -18 -133 -18h-39l-59 4l-33 4l15 55l30 -2q152 -10 242 149q27 47 47 113l10 47l4 51q2 33 -10 70q-20 100 -147 100q-35 0 -90 -32q-18 -10 -43 -29l-31 -29l-12 -8l-150 -559h-260l57 211l-51 -29l-39 -18q-100 -47 -202 -47q-127 0 -193 53q-72 55 -72 158zM8 328 q0 -84 64.5 -134.5t173.5 -50.5q-41 8 -66 27l-51 37q-35 41 -41 112l2 29q2 25 8 39q16 55 41 102q90 172 242 211q-117 4 -221 -88q-113 -100 -144 -221l-4 -16l-2 -15l-2 -16v-16zM141 -250l2 23l7 30q27 133 184 189q111 39 274 37l156 -2l-16 -68l-23 4q-16 0 -25 4 l-26 4h-31q-86 0 -151 -39q-37 -18 -61.5 -53t-33.5 -74l-6 -28l-2 -29q-4 -55 60 -84l47 -10l69 -4q27 -2 62 10q35 6 73 25l52 24l30 19l-24 -97l-37 -12l-35 -12l-74 -17l-65 -6l-152 6q-61 2 -104 15q-150 41 -150 145zM186 -242l2 -20q0 -14 5 -21q20 -68 108 -86 l80 -16q-70 49 -86 111l-6 24l-2 25q-6 82 78 145q55 45 122 66q12 4 60 14h-8l-11 2h-26q-70 0 -127 -20q-106 -35 -166 -136q-23 -39 -23 -88zM229 336q-4 -66 31 -103q14 -18 37 -28l49 -8q31 0 60 10l71 35l45 28l27 25l84 319l-27 11l-20 8l-56 16l-41 6 q-50 3 -118 -30l-25 -19q-37 -29 -64.5 -76t-39.5 -104l-11 -49zM522 33h84l230 856h-84zM958 109q123 0 226.5 78.5t138.5 195.5l4 23l4 16l2 16v21q0 96 -61 159q-68 66 -174 66q38 -4 67 -20q49 -20 76 -101q12 -39 12 -78q0 -59 -14 -98q-29 -115 -92 -182 q-74 -78 -189 -96z" />
<glyph unicode="&#xd2;" horiz-adv-x="1400" d="M-86 266v37l6 16l2 13q10 57 55 104q45 59 148 94q84 29 172 31l129 2l63 234l7 32l4 33q0 20 -4 29l-13 24q-14 20 -55 21q-72 0 -98 -66l-23 -57l-4 -33v-16l2 -29l8 -30l6 -9l-198 2l-8 9l-2 10l-7 14l-2 17q-2 10 -4 12v16l2 21l4 26q12 74 105.5 121t228.5 47 q193 0 264 -106l19 -45l14 -64l-55 -213h358l-16 -63h-358l-35 -129q-35 -131 -174 -201q-102 -51 -197 -64q-45 -6 -74 -4l-110 7q-43 2 -76 22q-84 37 -84 135zM-47 268q0 -57 49 -96l39 -25l33 -8l-17 15l-14 24l-10 33l-2 39l2 24l8 33l31 74q25 45 47 63l57 50 q29 18 62 30q-47 0 -95 -16q-35 -12 -80 -43q-59 -49 -83 -103q-6 -14 -21 -55l-4 -22zM133 248q-2 -20 4 -37l15 -25l22 -14l27 -4l47 6l45 19q18 10 35 30l20 43l62 234h-97q-18 0 -39 -13q-49 -16 -94 -81q-23 -33 -33 -72l-12 -47zM133 766l2 -21l6 -16l86 2l-10 17 l-2 22v8q2 10 4 13l25 65q25 51 84 86l61 27q-57 -6 -90 -21l-63 -26q-29 -12 -66 -56q-27 -31 -35 -75l-2 -11v-14zM262 152h33q29 8 90 32q78 41 96 111l135 526q0 59 -57 107l-39 18l-37 8l25 -16l16 -25l11 -30l4 -33l-4 -35q0 -12 -9 -43l-129 -475q-4 -23 -22.5 -63.5 t-57.5 -61.5zM784 874l27 99h707l-27 -99h-188l-238 -888h-260l237 888h-258zM856 18h84l229 856h-84z" />
<glyph unicode="&#xd3;" horiz-adv-x="1290" d="M-133 633l18 74l60 12l106 20l123 17l94 6h78q25 0 72 -4q37 -2 94 -8q147 -25 147 -123l-2 -15l-2 -20q-29 -113 -204 -152l-74 -16l-103 -16l-4 -11v-10l-4 -10l-2 -12l-4 -27l-2 -27l6 -55q6 -23 23 -39q35 -47 133 -47q55 0 92 10q121 29 227 92q45 27 66 50l151 567 h-923l26 98h1352l-27 -98h-167l-238 -889h-260l63 238q-31 -25 -77 -52l-113 -45q-80 -33 -178 -43q-25 -2 -56 -2q-49 2 -100 6q-197 18 -254 168q-14 53 -14 97l4 43l4 16v14l4 -4l12 -4l21 -2h24q113 0 187 31q106 43 135 131l2 6v16q0 45 -49 66l-55 14l-68 4l-100 -6 q-57 -4 -97 -12q-31 -6 -90 -25q-23 -6 -57 -22zM39 324l4 -21l6 -29l14 -34q6 -14 33 -41l64 -39l76 -29l65 -8h14l9 2l-82 35q-23 10 -56 35l-32 41l-19 40l-10 39q0 25 -4 37q0 23 -4 35h-76l-2 -25v-38zM303 465l53 6q23 2 68 29q84 49 84 106q0 41 -39 72l-43 20l-45 9 l-12 -2h-9l31 -19l21 -22l10 -27l4 -33q0 -51 -31 -78q-10 -16 -39 -34zM770 33h84l229 856h-84z" />
<glyph unicode="&#xd4;" horiz-adv-x="1118" d="M-176 -188l2 24q0 10 4 25q16 100 125 164q80 61 227 61l389 2l39 135l-176 -6q-80 -2 -209 14q-117 14 -188 39l-64 23l-73 33l100 98l63 -55l66 -52q115 -47 324 -47h73q39 6 119 21q102 27 117 84l2 8l2 10v13q0 39 -33 49l-39 6l-55 4l-379 2q-20 4 -29 4 q-57 6 -86 21q-63 25 -63 79v11l4 18q16 72 133 113q57 20 98 22l115 8l338 2l37 144h-774l26 98h1282l-26 -98h-248l-55 -205h-482l-57 -6l-53 -12q-43 -10 -64 -62l-2 -10v-10q0 -33 31 -47l37 -9l45 -2l305 2q84 0 121 -10q53 -8 78 -22q53 -23 57 -84l-2 -13l-2 -20 q-14 -61 -104 -96l-37 -15l-52 -14l-59 -225h-493q-20 0 -52 -13q-72 -16 -116 -75q-25 -29 -37 -72l-4 -14v-23q0 -74 82 -108l14 -7l24 -6h101l-17 17l-12 24l-4 25l2 14l4 14q12 41 109 78l92 23l90 8h49q135 0 189 -64q18 -23 22 -57v-14l-2 -10q-14 -68 -104 -105 l-37 -8l-49 -10h-560q-109 0 -172 43q-74 41 -67 123zM-133 -197q0 -25 14.5 -48t46.5 -44l62 -28q31 -8 63 -7q-92 53 -92 136q0 41 14.5 76.5t43 71.5t51.5 52l61 43q-45 -2 -97 -27t-81 -48q-86 -70 -86 -177zM117 582q0 -25 16 -41q25 -18 53 -27l45 -12l72 -13l-37 19 l-24 14l-31 25q-6 10 -10 28q0 39 41 78q14 12 32 27l31 18l43 25q-29 -4 -67 -16l-48 -15q-117 -47 -116 -110zM377 -229q0 -17 4 -25l14 -22l8 -7l11 -8h170l18 10l16 7l17 12l14 10l8 12l7 13q2 10 2 18q0 25 -29 45l-43 17l-51 4l-56 -7l-55 -20l-41 -27 q-14 -18 -14 -32zM606 63h84l45 164h-84zM606 -303l8 -2h15q29 0 41 4l41 14q31 10 39 54q0 47 -56 71l-22 10l-33 9l16 -9l13 -10l20 -28l8 -39q1 -32 -30 -50l-25 -12zM690 281l55 8q29 4 39 10q94 25 95 96q-1 25 -15 41q-29 41 -100 49l-62 7q14 0 33 -11l31 -16 q12 -8 20 -27l9 -37q0 -47 -52 -94l-10 -6l-12 -6l-14 -8zM805 709h84l45 180h-84z" />
<glyph unicode="&#xd5;" />
<glyph unicode="&#xd6;" horiz-adv-x="1228" d="M-121 199l84 133l19 -39l16 -37q49 -72 160 -111q131 -47 270 -39l102 7q41 2 84 22q82 29 115 115l2 12l4 14v13l2 12q0 27 -8 43t-27 27l-38 14l-46 6l-282 2q-20 4 -31 4q-43 6 -82 21q-92 35 -92 106v13l4 20q18 90 137 135q35 12 95 23l120 8l359 2l43 164h-856 l26 98h1291l-27 -98h-186l-62 -230h-489l-56 -6l-41 -10q-61 -25 -83 -86q-2 -10 -5 -12v-15q0 -31 33 -53l35 -12l43 -4l244 2q27 0 57 -23q27 -14 72 -61l39 -31q12 -6 39 -10l16 -4h43l55 -2h53l37 2h58l32 -2h52l20 2v-76l-45 -2h-104l-66 2h-53l-25 -2h-24l-37 -2 l-12 -2l-5 -8v-8l-4 -9l-2 -8l-6 -14l-6 -6q-35 -94 -176 -142q-63 -20 -115 -24l-133 -8l-70 2q-45 2 -55 4l-39 6l-12 6l41 -147q10 -35 86 -48q25 -4 59 -4h31q37 6 109 29l61 29l-29 -113l-80 -14l-100 -13l-84 -4l-96 6q-49 4 -80 15q-70 18 -104 59q-51 57 -72 164 l-8 41l-8 57l-25 9l-25 12l-22 10l-27 14zM115 76l39 -156q14 -59 110 -92l37 -8l53 -8l-16 6l-10 4q-61 33 -78 94l-35 135zM180 524q0 -25 14.5 -39t47.5 -30l61 -19l62 -6l12 2h8l-61 14q-61 25 -62 74q0 37 19 68q14 23 53 61l28 23l46 26q-31 -4 -68 -16l-45 -14 q-115 -51 -115 -144zM504 86l102 6q131 8 203 76q45 43 45 106q0 45 -41 86q-39 36 -86 50q-29 8 -53 6q47 0 78 -45l14 -41l6 -51q0 -111 -133 -166l-55 -17zM881 684h84l53 205h-84z" />
<glyph unicode="&#xd7;" />
<glyph unicode="&#xd8;" horiz-adv-x="1761" d="M4 -154l596 367l-18 -68l-525 -360zM23 328l2 39l10 45q41 176 221 268q104 51 209 51q98 0 168 -33l69 -32l60 223h-729l26 98h1786l-26 -98h-797l-66 -248l74 43q20 12 96 31q37 8 82 8q80 0 135 -16q115 -37 158 -127q23 -49 23 -109l-4 -45q0 -16 -9 -47 q-39 -145 -178 -234q-55 -35 -149 -61q-61 -18 -133 -18h-39l-60 4l-32 4l14 55l31 -2q152 -10 241 149q27 47 47 113l11 47l4 51q2 33 -11 70q-20 100 -147 100q-35 0 -90 -32q-18 -10 -43 -29l-31 -29l-12 -8l-150 -559h-260l58 211l-52 -29l-38 -18q-100 -47 -203 -47 q-127 0 -195 53q-78 59 -71 158zM61 328q0 -84 64.5 -134.5t173.5 -50.5q-41 8 -66 27l-51 37q-35 41 -41 112l2 29q2 25 9 39q16 55 41 102q90 172 241 211q-117 4 -221 -88q-113 -100 -143 -221l-4 -16l-3 -15l-2 -16v-16zM283 336q-4 -66 30 -103q14 -18 37 -28l49 -8 q31 0 60 10l71 35l45 28l27 25l84 319l-27 11l-20 8l-55 16l-41 6q-51 3 -119 -30l-25 -19q-37 -29 -64.5 -76t-39.5 -104l-10 -49zM575 33h84l230 856h-84zM1012 109q123 0 226 78.5t138 195.5l4 23l4 16l2 16v21q0 96 -61 159q-68 66 -174 66q39 -4 68 -20q49 -20 75 -101 q12 -39 13 -78q0 -59 -15 -98q-29 -115 -92 -182q-74 -78 -188 -96z" />
<glyph unicode="&#xd9;" horiz-adv-x="843" d="M-29 590l23 84h989l-16 -64h-338q-127 -16 -185 -59q-96 -72 -143 -223l-8 -27l-8 -59v-25q0 -74 41 -123q39 -35 104 -41l43 2q23 2 43 11l49 16q18 6 27 16l-27 -98h-159l-19 -2h-29l-133 6q-43 2 -104 27q-127 51 -121 190l2 47l12 51q16 63 56 119q45 63 94 97l47 30 l65 35zM33 889l26 98h906l-27 -98h-905zM47 223q0 -68 30.5 -107.5t100.5 -72.5q41 -12 88 -12q-20 6 -63 33.5t-64 91.5l-8 67q0 59 19 121q29 98 116 180q39 37 90 68q-123 -37 -211 -131q-98 -104 -98 -238z" />
<glyph unicode="&#xda;" horiz-adv-x="516" d="M-51 922v186h622v-186h-622zM8 535l8 270q139 -188 363 -189q35 0 61 11l82 32l37 17l47 26v-221l-39 -20l-28 -12l-74 -23l-64 -8h-53q-47 8 -139 31l-105 36z" />
<glyph unicode="&#xdb;" horiz-adv-x="587" d="M78 518q0 59 20 111q59 156 238 155q180 0 242 -163q16 -47 16 -101v-43q-5 -69 -66 -143q-68 -80 -192 -80q-125 0 -186 76q-33 39 -52.5 88t-19.5 100z" />
<glyph unicode="&#xdc;" horiz-adv-x="921" d="M-53 451l440 106q-12 -4 -22 -4q-35 0 -111 33q-111 45 -111 129v18l4 17q29 111 168 172q121 51 275 51q150 0 237 -43q100 -49 101 -144l-2 -20l-4 -23q-59 -170 -271 -243l377 -129l-14 -56l-443 150l-524 -184zM-12 432l37 -55l421 129l-45 33zM176 723l2 -18l4 -19 q20 -51 78 -74l43 -16l53 -12l-37 20l-24 25l-19 26l-10 31l-6 31l-2 26q-8 104 102 160q-48 4 -118 -57q-35 -31 -48.5 -59.5t-17.5 -63.5zM385 694q0 -25 8 -47q8 -14 31 -35l33 -18l12 -6q37 10 53 18l39 19q94 45 121 137l6 35l4 26q0 49 -33 72q-12 12 -36 18l-45 7 q-29 0 -60 -13l-53 -35q-23 -23 -45 -57l-27 -72l-6 -30zM524 571q27 2 39 7q55 14 127 71q111 88 111 180v13l-2 10q-10 49 -74 68l-53 8l-31 6l33 -19q14 -8 20 -16l13 -20l8 -27l6 -45q0 -78 -72 -150l-57 -47z" />
<glyph unicode="&#xdd;" horiz-adv-x="1763" d="M16 457l2 32q0 12 5 31l49 193l34 123l17 51l-90 2l26 98h1819l-27 -98h-847l-66 -248l61 29l78 28l88 19l90 6q143 10 244 -78q82 -70 74 -166l-4 -47q0 -16 -4 -24l-6 -25q-37 -145 -173.5 -227t-285.5 -78l-68 2h-31q-25 6 -36 8l-27 2l-29 8l23 86l20 -18l27 -14 l29 -13l26 -2q92 -6 172 76q25 25 54.5 79t37.5 101l9 45l4 49q10 119 -84 158q-33 12 -70 12q-86 0 -170 -45q-18 -10 -31 -22l-41 -31l-149 -559h-258l80 297l-25 -14l-20 -11q-43 -20 -121 -34q-59 -10 -119 -11q-131 0 -207 62q-29 23 -59 73q-23 53 -21 95zM31 -78 l544 285l-18 -68l-473 -278zM31 889l16 57h23l-17 -57h-22zM53 459q-2 -35 15 -74q27 -61 118 -106q43 -14 76 -15l-59 37l-41 39q-16 14 -27 43l-8 49l2 19l4 22l109 416h-84zM250 395l6 -47l18 -33l33 -22q23 -6 53 -6q92 0 177 47l32 18l41 29l135 508h-370l-123 -459z M557 33h84l229 856h-84zM1055 109q123 0 223 78.5t137 197.5l6 41l4 37q0 55 -16 88q-47 133 -215 133q37 -2 66 -20q86 -39 86 -172q0 -63 -15 -103q-41 -174 -172 -246q-45 -25 -104 -34z" />
<glyph unicode="&#xde;" horiz-adv-x="1495" d="M203 727h18l15 4l36 8l33 15l43 24l37 29l16 16l13 17q-16 -4 -39 -4q-27 0 -62 14q-94 27 -94 100v19l4 16q25 98 156 141q43 10 82 11q43 0 71 -11q43 -8 73 -43.5t30 -78.5l-2 -21l-6 -29q-16 -76 -76 -141q-70 -74 -158 -106l-78 -29l-104 -29zM289 692 q203 55 274 203q25 51 25 111l-6 30l-19 23l-28 12l-37 4q-20 0 -37 -8l-33 -20l-27 -31l-10 -33v-33l12 -24l23 -17l33 -4l22 2l19 6q0 -55 -49 -108l-66 -53q-25 -20 -96 -60zM766 770h18l15 4l37 8l32 15l43 24l37 29l17 16l12 17q-16 -4 -39 -4q-27 0 -61 14 q-94 27 -95 100v19l4 16q25 98 156 141q43 10 82 11q43 0 72 -11q43 -8 72.5 -43.5t29.5 -78.5l-2 -21l-6 -29q-16 -76 -76 -141q-70 -74 -158 -106l-77 -29l-105 -29zM852 735q203 55 274 203q25 51 25 111l-6 30l-19 23l-28 12l-37 4q-20 0 -37 -8l-33 -20l-26 -31 l-11 -33v-33l13 -24l22 -17l33 -4l22 2l19 6q0 -55 -49 -108l-66 -53q-25 -20 -96 -60z" />
<glyph unicode="&#xdf;" horiz-adv-x="1495" d="M164 786l2 21l6 29q16 72 80 141q57 59 154 106l75 29l107 29l8 -74l-12 -6h-11q-10 -2 -12 -4l-12 -2q-12 0 -27 -8l-28 -11l-45 -24l-35 -29l-17 -16l-12 -17l39 2q31 -2 76 -16q80 -27 80 -96l-2 -21l-3 -14q-25 -109 -157 -143l-80 -9q-90 0 -125 33q-20 16 -39 45 q-6 16 -10 55zM211 784l6 -32l19 -21l28 -12l37 -4l33 6q16 6 35 20l26 31q10 16 13 35l-2 31q0 12 -13 24q-4 8 -22 17l-31 6l-25 -2l-16 -6q0 59 80 131l65 59q20 18 64 39q-94 -20 -191 -109q-106 -98 -106 -213zM737 817l2 21l6 28q16 72 80 142q57 59 154 106l76 29 l106 28l8 -73l-12 -6h-10q-10 -2 -12 -5l-13 -2q-12 0 -26 -8l-29 -10l-45 -25l-35 -28l-16 -17l-13 -16l39 2q31 -2 76 -16q80 -27 80 -97l-2 -20l-2 -14q-25 -109 -158 -144l-80 -8q-90 0 -125 33q-20 16 -38 45q-6 16 -11 55zM784 815l7 -33l18 -20l29 -12l36 -5l33 7 q16 6 35 20l27 31q10 16 12 35l-2 30q0 12 -12 25q-4 8 -23 16l-31 6l-24 -2l-17 -6q0 59 80 131l66 60q20 18 63 39q-94 -20 -190 -109q-106 -98 -107 -213z" />
<glyph unicode="&#xe0;" horiz-adv-x="1425" d="M-88 74l4 41q0 18 8 47q20 72 64 131q59 74 133 110l67 33l95 35q-8 -8 -33 -8q-47 0 -123 37q-33 16 -53 35q-12 16 -17 45v10l4 14q18 61 95 101l59 14l78 6l754 2l43 162h-1057l26 98h1594l-27 -98h-283l-57 -217l-860 -6q-23 -2 -43 -15q-14 -4 -35 -24 q-12 -16 -18 -39q0 -14 -4 -21l-2 -14l2 -25l10 -14l6 -6l6 -4l4 -4l6 -2l72 6l53 6l121 8l88 4q47 2 199 -8q223 -8 332 -92q66 -49 59 -113l-2 -24l-2 -17l-78 -317h-254l37 137l-59 -29l-47 -16q-123 -43 -240 -43h-72q-20 4 -30 4q-41 0 -74 16q-76 25 -76 97l2 16l4 23 q16 92 141 153q92 45 240 45h59l25 -2h55l15 -2h14l-20 -67l-11 4l-8 4l-33 8l-32 4q-133 0 -174 -65q-16 -25 -31 -66l-4 -18l-2 -17l6 -26l20 -23l37 -14l60 -4q31 -2 78.5 8t84.5 28l66 31q23 10 24 21l37 127l2 28q6 88 -102 125q-59 18 -102 21l-146 6l-12 -2h-47 q-133 0 -254 -72q-68 -41 -111 -100q-51 -68 -63 -133l-10 -54l-3 -47q-4 -111 72 -170q68 -51 154 -51h22q14 0 39 4h37q18 6 27 8l57 15l43 14l-23 -84l-217 -10q-78 -4 -184 16q-90 16 -145 43q-160 74 -160 232zM-43 74l2 -11l4 -24q8 -45 39 -84q25 -37 70 -64l59 -26 l86 -23q-35 4 -88 58q-63 63 -84 139l-4 27l-2 26q-4 45 26.5 113.5t99 137.5t138.5 93q-70 0 -151 -57q-113 -80 -162 -168q-33 -59 -33 -125v-12zM104 592l2 -19l7 -14l6 -10l10 -8l14 -13l19 -8l43 -16l43 -4h12l8 2q-16 4 -24 10l-21 14l-18 17l-10 16l-5 16l-2 21 q0 20 11 37l32 29l50 20l59 16l-14 2h-52q-18 0 -43 -8q-39 -8 -65 -22q-53 -20 -62 -78zM430 129l2 -20l6 -27q4 -12 23 -27l49 -18l39 -8l45 -2l-29 22l-8 10l-12 21l-8 24q0 14 -5 21l-2 12q0 66 56 115l43 39l47 26q-8 2 -27 2q-63 0 -131 -49q-45 -33 -66.5 -67.5 t-21.5 -73.5zM999 -12h84l86 321q18 72 -104 123l-27 8l-34 13l24 -19l19 -14q35 -27 43 -88l-3 -10l-2 -15zM1083 705h84l50 184h-84z" />
<glyph unicode="&#xe1;" horiz-adv-x="1701" d="M-84 80q0 27 4 43q0 27 8 51q12 61 62 119q59 66 131 104l78 41l84 33q-8 -8 -33 -8q-41 0 -121 39q-33 16 -53 37q-12 16 -17 45v10l2 10q10 49 64.5 85t167.5 36l477 2l43 162h-780l26 98h1764l-27 -98h-168l-237 -889h-261l39 147q-31 -25 -77 -51l-113 -45 q-80 -33 -178 -43q-18 -2 -56 -2q-166 0 -235 57q-20 16 -41 50q-12 29 -12 65v27q0 14 4 20l2 8l4 11v8l4 8h76q29 0 51 4l70 12q82 14 108 86q12 53 -55 78l-76 17l-96 6q-106 6 -215 -72q-53 -39 -86 -92q-41 -66 -53 -129l-11 -53l-2 -47q-4 -96 64 -158q55 -51 127 -47 l59 4q14 0 74 14l63 15q14 2 31 8l-25 -88l-217 -11q-78 -4 -170 13q-170 33 -237 131q-35 55 -35 129zM-47 92q0 -25 4 -37l12 -37q55 -94 121 -133q74 -45 156 -45l-60 35l-43 39q-10 8 -34 49l-27 60l-12 45l-2 47q-4 92 67 194q29 43 70 78q33 29 86 53q-40 -1 -103 -34 q-137 -72 -202 -193q-33 -59 -33 -121zM98 588l2 -10l4 -17l13 -20l28 -17l45 -14l68 -12l-25 20l-14 14l-18 27l-4 29l6 35q6 16 20 30l33 23l43 18l-20 2l-15 2h-33q-23 -6 -79 -32q-20 -12 -41 -37q-12 -18 -13 -41zM324 553q0 -16 4 -25l12 -18l8 -6l14 -10l46 8l73 10 l129 10h78q20 0 80 -4q170 -8 236 -53q41 -31 40 -74l-2 -10l-2 -16q-12 -43 -51 -70q-51 -37 -115 -47l-59 -10l-80 -7l-4 -10v-8l-4 -27l-2 -16q0 -25 4 -37l16 -31q23 -29 80 -26q43 2 68 6q108 17 188 68l72 45l41 36l174 658h-301l-57 -217h-533l-51 -6q-23 -2 -43 -15 q-14 -4 -35 -24q-12 -16 -18 -39q0 -14 -4 -21zM502 184l2 -39l12 -32q20 -41 96 -68l31 -6l68 -10l-39 16l-35 27l-19 20l-14 27l-10 26l-2 29l2 31l10 26l-100 -6v-8l-2 -10v-23zM721 268q53 0 108 25q80 35 84 84l-2 8l-2 12q-6 14 -26 29l-56 25l-45 8l-55 12l29 -14 l28 -13q12 -8 23 -26l8 -33q0 -23 -8 -37l-19 -33l-28 -28q-16 -12 -39 -19zM811 721h84l45 168h-84zM1182 33h84l229 856h-84z" />
<glyph unicode="&#xe2;" horiz-adv-x="1105" d="M-78 154l2 30l6 31q10 51 64 109q49 51 123 86l153 49q-10 -6 -39 -2l-69 18q-102 27 -103 105v14l2 10q12 66 93 103l63 16l78 6l414 2l43 158h-719l26 98h1168l-27 -98h-188l-58 -217h-477l-51 -6q-78 -10 -96 -78q0 -14 -4 -21v-12q0 -23 4 -33l18 -22l10 -8l19 -7 l47 4h25q12 0 45 5l67 2l45 2l522 2l-16 -64l-10 -2l-25 2l-477 2q-65 0 -139 -16q-199 -47 -246 -211l-4 -8l-4 -33v-14q0 -80 92 -131q104 -41 281 -41q33 0 55 4l65 12l64 20q18 6 55 23l-24 -90l-41 -6l-52 -6l-57 -4l-55 -3l-254 7q-248 6 -354 90q-63 51 -60 123z M-23 166l5 -27l6 -22l28 -45l50 -41l61 -31l61 -8h17l10 2l-22 8l-46 23l-20 12l-37 31l-24 43l-7 22l-2 19q0 41 16.5 72.5t53.5 74.5q63 76 184 127q-111 0 -223 -82q-51 -37 -84 -86q-27 -39 -27 -92zM100 571q0 -16 18.5 -36.5t55.5 -32.5l31 -10l43 -9l-21 9l-12 8 q-18 12 -27 28l-8 37q0 72 60 107l24 14l35 19h-35l-14 -3h-12q-137 -16 -138 -131zM741 696h84l54 193h-84z" />
<glyph unicode="&#xe3;" horiz-adv-x="1699" d="M-86 84q0 25 4 39l6 39q18 63 68.5 128.5t128.5 106.5l76 41l86 33q-8 -8 -33 -8q-47 0 -123 37q-33 16 -53 35q-12 16 -17 45v10l4 14q18 61 95 101l59 14l78 6l477 2l43 162h-780l26 98h1762l-27 -98h-188l-238 -889h-260l238 889h-279l-57 -217h-533l-51 -6 q-23 -2 -43 -15q-14 -4 -35 -24q-12 -16 -18 -39q0 -14 -4 -21l-2 -14q0 -16 4 -25l12 -18l8 -6l14 -10l46 8l73 10l129 10q53 4 133 -10q223 -39 224 -160l-11 -41l-10 -32l-6 -15l229 2l-18 -69h-229l-25 -56l-25 -35q-76 -88 -231 -88h-61q-18 4 -27 5q-121 23 -121 94 v10l4 18q14 63 90 101l52 14l61 6h29l6 -2l4 15l14 55q2 10 4 12l4 10l2 11v12q0 39 -40 61l-50 17q-18 6 -63 6q-117 0 -209 -66q-53 -37 -88 -90q-31 -45 -51 -129l-6 -24l-2 -29l-3 -25v-8q0 -113 82 -188q70 -63 154 -64h23q14 0 38 4h37q20 6 29 9l57 14l43 14l-22 -84 l-219 -10q-180 -8 -339 66.5t-159 230.5zM-45 92q0 -25 4 -39l10 -35q39 -88 123 -137t162 -49l-64 37l-45 41q-25 23 -36 51l-27 62l-12 45l-2 47q-4 92 67 194q29 43 70 78q33 29 86 53q-53 -6 -121 -49q-90 -55 -145 -125q-70 -84 -70 -174zM90 580l4 -15q8 -18 23 -30 l47 -23l35 -10l51 -8l-25 18l-14 18l-18 27l-5 31l7 35q6 20 22 32l33 25l41 18l-19 2l-14 2q-35 0 -56.5 -7t-56.5 -27l-41 -39q-14 -18 -14 -41v-8zM467 111l2 -9q10 -37 59 -49l45 -10l43 -2l-26 12l-23 17l-18 16l-10 23q-6 14 -2 41q12 43 71 77q25 14 49 15l-16 2 l-12 2q-29 0 -56 -10q-51 -12 -90 -66q-16 -20 -16 -47v-12zM662 471l38 -25q33 -29 39 -73v-8l-2 -11v-2l-26 -94h84l26 94q16 61 -69 94l-37 11zM811 721h84l45 168h-84zM1159 33h84l230 856h-89z" />
<glyph unicode="&#xe4;" horiz-adv-x="1945" d="M-29 590l23 84h852l51 215h-864l26 98h1999l-26 -98h-867l-65 -248l59 29l86 26l96 19l93 8q74 0 133 -16q113 -35 162 -129q23 -47 22 -107v-25l-2 -10v-8l-6 -20l-6 -29q-37 -174 -238 -264q-115 -51 -223 -49l-84 2q-45 2 -68 8l-22 2l-27 10l25 96l10 -18l12 -12 l33 -23l35 -6q104 0 178 68q66 59 111 196l12 53l4 50q6 66 -37 115.5t-123 49.5q-68 0 -131 -24q-16 -6 -47 -21l-41 -24l-39 -29l-149 -559h-260l149 610h-188q-127 -16 -185 -59q-96 -72 -143 -223l-8 -27l-8 -59v-25q0 -74 41 -123q39 -35 104 -41l43 2q23 2 43 11 l49 16q18 6 27 16l-27 -98h-159l-19 -2h-29l-133 6q-43 2 -104 27q-127 51 -121 190l2 47l12 51q16 63 56 119q45 63 94 97l47 30l65 35zM47 223q0 -68 30.5 -107.5t100.5 -72.5q41 -12 88 -12q-20 6 -63 33.5t-64 91.5l-8 67q0 59 19 121q29 98 116 180q39 37 90 68 q-123 -37 -211 -131q-98 -104 -98 -238zM717 33h84l229 856h-84zM1257 104q82 0 162 50q141 86 187 243l6 33l2 37q2 49 -19 96q-35 74 -127 103q-47 14 -100 14q39 -3 72 -21q57 -23 82 -100q10 -35 10 -74l-4 -41l-6 -43q-6 -41 -35 -106q-43 -92 -133 -160 q-43 -25 -97 -31z" />
<glyph unicode="&#xe5;" horiz-adv-x="921" d="M-31 311l6 76l17 84q17 86 76 186q115 193 270 263q82 35 168 34q68 0 125 -22q109 -43 151 -160q25 -74 21 -127l-6 -82l-19 -88q-18 -90 -82 -196q-111 -190 -274 -256q-82 -33 -170 -33q-135 0 -207 86q-39 43 -57 104q-23 74 -19 131zM23 293q0 -55 12 -95t33 -73 l30 -47l41 -41q-16 43 -24 84l-9 86v43q0 25 5 37l2 28l2 23q0 96 49 237q23 72 49 119l70 127q-84 -34 -166 -192q-31 -61 -64 -150q-23 -90 -28 -145l-2 -19v-22zM186 195q-2 -45 4 -66l13 -45q8 -14 24 -29l39 -8q43 0 84 37q53 45 80 109l51 120l49 162l15 68l14 71 l8 70l4 64v24q0 49 -18 84q-10 33 -57 41q-68 0 -154 -145q-33 -55 -66 -134l-47 -147l-18 -76l-14 -69l-9 -66zM442 121q82 34 164 194q78 147 94 293v8l2 9v24q0 106 -45 168l-32 45q-20 27 -39 43l14 -43l10 -41l6 -43l2 -43l-2 -45l-2 -35q-2 -23 -4 -28v-23l-18 -121 l-31 -116q-27 -100 -119 -246z" />
<glyph unicode="&#xe6;" horiz-adv-x="1198" d="M-31 330l4 37q0 20 9 45q42 204 247 270l80 16l111 11l323 2l48 178h-779l27 98h1319l-27 -98h-280l-64 -240h-477l-64 -10q-152 -45 -194 -240l-8 -37l-2 -36q-4 -66 47 -105l55 -22l72 -9l80 7q29 2 82 22q63 25 73 29q49 23 64 45l39 147h266l-119 -440h-266l57 211 l-47 -25l-39 -14q-39 -14 -119 -29l-125 -8h-124q-23 4 -33 4q-150 16 -203 84q-33 53 -33 107zM16 342q0 -104 90 -147l76 -23l105 -6q-90 35 -125 82l-21 53l-6 70q0 59 21 110q33 90 125 156q43 31 104 45q-135 8 -254 -98q-55 -49 -88 -115q-27 -72 -27 -127zM96 -66 l611 271l-19 -68l-538 -264zM688 33h84l107 381h-84zM774 676h84l57 213h-84z" />
<glyph unicode="&#xe7;" horiz-adv-x="1075" d="M-84 -129l598 358q-31 -14 -90 -26l-109 -8q-66 -4 -143 16q-119 31 -160 117q-20 41 -20 92l4 31q0 25 4 38l106 400h-120l26 98h1159l-26 -98h-166l-238 -889h-260l47 174l-559 -364zM31 420q0 -70 61 -131q33 -33 73 -49.5t77 -16.5l-60 41l-28 27q-14 14 -35 49 q-6 18 -10 57l2 23l4 26l118 443h-83l-115 -434q0 -14 -4 -21v-14zM233 358q-4 -72 78 -98q29 -6 72 -6q80 0 145 51q27 20 39 39l17 37l135 508h-350l-133 -494zM532 33h84l230 856h-84z" />
<glyph unicode="&#xe8;" horiz-adv-x="819" d="M31 307l2 19l6 32q8 47 49 95q33 41 94 73l21 9l24 10l29 8l35 8l-49 4q-35 6 -74 29q-115 51 -115 143l2 21q0 18 4 24q16 100 156 156q104 41 197 45h37h55q20 0 51 -4q55 -4 80 -10q47 -10 71.5 -32t24.5 -58l-2 -19l-6 -20q-4 -12 -12 -25l-21 -29l-14 -14l-17 -18 l-198 2q16 6 20 10l25 25l20 28l13 27l4 20l2 15q0 14 -4 20l-15 17l-20 8l-25 4q-82 0 -139 -82l-25 -62l-6 -32l-2 -31q-4 -76 70 -129l4 -4l8 -2l8 -4q10 -2 13 -4l264 2l-17 -64l-167 2q-59 0 -106.5 -42t-66.5 -132l-6 -29l-2 -24q-2 -23 8 -49q10 -18 29 -33l43 -21 q25 -6 60 -6q59 0 124 23q84 29 152 67l107 62q41 23 49 41l-27 -94l-90 -52l-68 -32q-170 -82 -313 -82q-147 0 -246 45q-51 23 -79.5 61.5t-28.5 83.5zM78 305q0 -61 81 -108t185 -47l-70 28l-47 27q-29 16 -49 43q-10 18 -14 49q0 37 16 82q23 68 92 119q25 18 60 37 q-76 3 -158 -56q-96 -72 -96 -174zM94 731q0 -57 88 -108q12 -8 31 -15l66 -8l-41 25l-27 24l-21 35l-6 39q0 88 78 147l62 48l65 34q-78 4 -176 -55q-119 -72 -119 -166zM520 946q12 0 19 -4l20 -12q8 -6 14 -23l5 -37l-5 -22l-10 -29l-16 -24l-19 -17l84 2q10 4 19 15 l18 22l13 25l4 24q0 20 -11 33l-30 27l-43 16l-43 6h-9z" />
<glyph unicode="&#xe9;" horiz-adv-x="1361" d="M-10 82q0 72 67 133q59 55 138 72l606 131l-39 55l-29 43q-29 43 -65 86l-37 43l-29 19l-35 14l-16 2l-19 4l-167 2q-25 0 -48 -12q-18 -4 -45 -25l-32 -37l-17 -37q0 -23 -4 -32l-2 -17q0 -37 19.5 -54t56.5 -17q63 0 100 47l15 37q6 16 6 47v18l-2 6l155 4v-36l-6 -33 q-12 -68 -93 -102.5t-206 -34.5h-63q-20 4 -29 4q-143 25 -143 118l2 17l4 22q12 68 78.5 122t162.5 54l349 3l65 -15q43 -10 64.5 -22.5t42.5 -32.5l39 -49l49 -70l24 -43l25 -41l-17 -65l-585 -164q-27 -9 -47 -23l-39 -37q-16 -14 -29 -45l-8 -47q0 -49 17.5 -68.5 t56.5 -19.5h12l8 2q66 8 94 53l15 35l6 41l-2 27q0 8 -2 10t-2 4l198 53v-10l2 -8v-18q0 -31 -14 -64q-31 -70 -141 -121q-90 -41 -170 -53l-54 -8l-49 -4q-43 -4 -78 10q-72 10 -100 65q-14 25 -14 62zM25 55q0 -18 10 -35q8 -8 37 -22l51 -18l61 -9q-18 6 -32 17l-27 20 l-19 27l-4 28q0 74 37 117l35 41l39 31q-72 4 -127 -55q-29 -31 -45 -69t-16 -73zM33 889l26 98h1414l-27 -98h-168l-238 -889h-260l238 889h-985zM61 522q0 -18 11 -35l37 -26l51 -19l61 -6q-18 4 -33 15l-26 24l-19 27l-4 28q0 74 37 117l35 41l39 31q-72 4 -127 -55 q-29 -31 -45.5 -69t-16.5 -73zM403 35l39 20l35 33q29 35 35 88l-72 -16v-8l2 -13q0 -57 -39 -104zM406 479l34 17l31 26l21 33l8 37l-58 2v-33l-4 -33l-12 -26zM831 33h84l230 856h-84z" />
<glyph unicode="&#xea;" horiz-adv-x="970" d="M-164 -164l2 21l4 22q20 115 158 180q76 37 158 37l280 2l45 170l-14 -4h-121q-55 8 -170 31q-86 23 -129 60.5t-43 90.5l2 19l4 22q20 115 156 187l80 31l45 10h31l280 2l45 172h-616l26 98h1133l-27 -98h-288l-62 -232h-377l-26 -6l-21 -4q-106 -35 -143 -153 q-2 -10 -4 -13l-4 -28v-11q0 -74 79 -102l68 -16l96 -5q78 -4 168 19q82 18 142 51l47 27l51 43l27 -121l-11 -6l-10 -2l-10 -4q-10 -2 -13 -4l-26 -9l-29 -6l-102 -14l-68 -258h-377l-26 -6l-21 -4q-51 -10 -90 -54q-35 -35 -53 -94l-6 -31l-2 -18q0 -70 80 -98l69 -15 l96 -4q78 -4 183 19q74 14 127 47l45 26l51 39l27 -123l-82 -18l-146 -27l-123 -16l-90 -6h-121q-39 6 -55 8q-47 0 -131 21q-168 41 -168 155zM-127 -152q0 -16 4 -28l10 -29q10 -27 47 -49q31 -23 76 -37l37 -8l90 -14q-45 16 -78 34l-34 19l-29 26l-19 27l-12 31l-4 30 q0 41 16 74q29 74 109 123q29 16 68 29q-95 4 -193 -70q-88 -70 -88 -158zM39 463l2 -31l12 -26q10 -23 43 -50l76 -37l53 -16l72 -12l-57 24l-27 15q-23 12 -45 35l-27 38l-10 25l-2 35q-2 20 4 37l12 37l19 34l29 37q49 63 126 84q-96 4 -191 -73.5t-89 -155.5zM481 94h84 l45 176h-84zM645 713h84l45 176h-84z" />
<glyph unicode="&#xeb;" horiz-adv-x="970" d="M-156 -143l2 10l4 24q8 49 51.5 94.5t98.5 71.5q31 14 74 27q25 6 84 12l280 2l45 170l-14 -4h-121q-55 8 -170 31q-86 23 -128 60.5t-42 93.5v20q2 14 4 18q33 150 203 209q49 18 109 19l305 2l45 172h-641l26 98h1133l-27 -98h-264l-61 -232h-402l-26 -6l-21 -4 q-106 -35 -143 -153q-2 -10 -4 -13l-4 -28v-11q0 -74 79 -102l68 -16l96 -5q78 -4 168 19q82 18 142 51l47 27l51 43l27 -121l-11 -6l-10 -2l-10 -4q-10 -2 -13 -4l-28 -9l-31 -8l-31 -6l-22 -2l-47 -8l-23 -2l-53 -193q33 -6 57 -22q41 -20 69 -62.5t26 -85.5l-3 -30 l-6 -31q-10 -49 -63 -92q-96 -78 -277 -107q-80 -12 -163 -12q-238 0 -336.5 53t-98.5 139v13zM-121 -150l2 -14v-16q2 -10 4 -13l6 -16q8 -20 31 -39.5t58 -32.5q29 -16 69 -24l88 -17l-86 37q-29 12 -43 33l-28 41l-11 29l-4 30q0 39 19 82q31 68 110 119q25 16 66 29 q-95 6 -195 -72q-86 -68 -86 -156zM41 461l2 -29l10 -26q31 -61 127 -89l51 -14l66 -12l-49 24l-35 19q-31 16 -45 28l-25 31l-12 33l-2 37q-2 20 4 37l12 37l19 34l29 37q49 63 126 84q-90 8 -187 -72.5t-91 -158.5zM74 -166v-16q0 -92 112 -113l74 -6q117 -10 217 45 q80 43 105 133l4 25l2 20q0 59 -41 86l-23 15l-22 10l-213 2l-31 -6q-14 0 -22 -4q-57 -10 -97.5 -50.5t-56.5 -97.5l-4 -14l-2 -17zM440 -295q-2 0 78 14q59 10 119 60q33 23 45 51l8 20l6 21l4 23l2 20q0 72 -55 102q-55 41 -155 41q29 -2 49 -18l39 -31q27 -20 34 -92 l-4 -41l-6 -22q-4 -16 -10 -25l-29 -41l-33 -35l-43 -26zM471 92h84l45 176h-84zM659 711h84l45 176h-83z" />
<glyph unicode="&#xec;" horiz-adv-x="1118" d="M-244 -207l103 96l39 -36l34 -41q55 -37 150 -56q125 -25 227 -18l105 6q113 6 166 49q29 18 38 49l3 11l2 8v8q0 45 -33 55l-39 6l-55 2h-271l-104 7q-49 2 -92 16q-82 25 -82 90l2 10l2 19q12 57 82 88q96 43 133 35l-29 6l-24 8l-64 14l-43 15l-33 18l-49 29l-8 4 l-14 10l90 86l16 -31l19 -24q53 -53 161 -80q135 -33 252 -27l101 6l92 19q106 35 119 88l4 16l2 17q0 20 -7.5 31.5t-29.5 23.5l-41 10l-47 4l-377 4q-27 4 -79 16.5t-73.5 36t-25.5 58.5v10l4 19q16 72 133 112q57 20 98 23l113 8l338 2l43 160h-774l26 98h1282l-26 -98 h-248l-59 -221h-482l-57 -6l-53 -13q-43 -10 -64 -61l-4 -15v-8q0 -39 31 -49l37 -12l45 -2l305 2l139 -15q57 -8 90 -49q23 -20 23 -53v-8l-2 -12q-25 -94 -225 -150q-80 -23 -179 -35q-57 -8 -119.5 -9t-68.5 -1l-86 6q-18 2 -33.5 -1t-21.5 -7q-49 -16 -74 -88l-2 -10 v-13q0 -33 33 -51l36 -10l48 -4h360q92 0 144.5 -31t56.5 -84l-2 -12l-2 -21q-6 -29 -32 -51t-71 -45l-37 -12l-51 -17l-227 -32l-172 -6q-199 -6 -395 55q-23 6 -64 22q-35 10 -45 17zM-12 49q0 -25 15 -38t52 -29l45 -11l72 -14l-37 18l-24 15q-35 20 -41 51q0 68 77 113 l15 8l22 12l-57 -12l-41 -12q-98 -29 -98 -101zM117 561q0 -25 16 -41q25 -18 53 -26l45 -13l72 -12l-37 18l-24 15l-31 24q-6 10 -10 29q0 39 41 78q14 12 32 26l31 19l43 24q-29 -4 -67 -16l-48 -14q-117 -47 -116 -111zM547 -256l57 12l41 11q92 33 100 100 q0 27 -13 42.5t-46 27.5l-61 14l-66 4l39 -8q18 -4 25 -10q31 -12 39 -64q0 -55 -58 -98l-24 -15zM690 246l55 8q29 4 39 10q94 25 95 96q-1 25 -15 41q-29 41 -100 50l-62 6q14 0 33 -11l31 -16q12 -8 20 -27l9 -36q0 -47 -52 -95l-10 -6l-12 -6l-14 -8zM805 709h84l45 180 h-84z" />
<glyph unicode="&#xed;" horiz-adv-x="1146" d="M-41 160l2 20l2 17q31 100 106.5 150t182.5 69q-12 -4 -25 -4q-6 0 -36.5 7t-81.5 38q-57 35 -66 94v18l4 15q23 78 109 114l75 21l93 8l424 2l43 160h-758l26 98h1268l-27 -98h-268l-57 -213l-580 -4q-92 -12 -116 -107q-2 -8 -3 -22q0 -10 11.5 -32t52.5 -38l14 -6 l19 -4l22 -6l27 -6l223 2l-14 -58h-221l-41 -8l-29 -10q-76 -37 -102 -148q0 -14 -5 -22v-14q0 -70 80 -109l70 -23l82 -8q80 0 172 21q20 4 78 22l65 25l56 24l41 23l30 25l-28 -109q-39 -21 -84 -33l-133 -35l-123 -20l-103 -8l-174 6q-180 6 -262 80q-41 35 -41 86z M6 160q2 -10 4 -13l2 -16l6 -14q6 -14 31 -39l55 -33l33 -14l37 -8q20 0 33 -5l35 -2l22 2l-61 19l-49 24l-35 27q-12 14 -19 29l-8 28l-2 29q-4 61 47 119q47 51 150 92q-55 0 -103 -16q-96 -23 -157 -113q-20 -41 -21 -80v-16zM92 551q0 -47 80 -78l33 -12l47 -15l-25 13 l-14 12q-35 29 -41 74q0 72 59 106l25 15l35 18h-35l-14 -2h-13q-137 -16 -137 -131zM791 713h83l54 176h-84z" />
<glyph unicode="&#xee;" horiz-adv-x="1290" d="M-133 633l18 74l60 12l106 20l123 17l94 6h78q25 0 72 -4q37 -2 94 -8q147 -25 147 -123l-2 -15l-2 -20q-29 -113 -204 -152l-74 -16l-103 -16l-4 -11v-10l-4 -10l-2 -12l-4 -27l-2 -27l6 -55q6 -23 23 -39q35 -47 133 -47q55 0 92 10q121 29 227 92q45 27 66 50l151 567 h-923l26 98h1352l-27 -98h-167l-238 -889h-260l63 238q-31 -25 -77 -52l-113 -45q-80 -33 -178 -43q-25 -2 -56 -2q-49 2 -100 6q-197 18 -254 168q-14 53 -14 97l4 43l4 16v14l4 -4l12 -4l21 -2h24q113 0 187 31q106 43 135 131l2 6v16q0 45 -49 66l-55 14l-68 4l-100 -6 q-57 -4 -97 -12q-31 -6 -90 -25q-23 -6 -57 -22zM39 324l4 -21l6 -29l14 -34q6 -14 33 -41l64 -39l76 -29l65 -8h14l9 2l-82 35q-23 10 -56 35l-32 41l-19 40l-10 39q0 25 -4 37q0 23 -4 35h-76l-2 -25v-38zM303 465l53 6q23 2 68 29q84 49 84 106q0 41 -39 72l-43 20l-45 9 l-12 -2h-9l31 -19l21 -22l10 -27l4 -33q0 -51 -31 -78q-10 -16 -39 -34zM770 33h84l229 856h-84z" />
<glyph unicode="&#xef;" horiz-adv-x="1118" d="M-176 -188l2 24q0 10 4 25q16 100 125 164q80 61 227 61l389 2l39 135l-176 -6q-80 -2 -209 14q-117 14 -188 39l-64 23l-73 33l100 98l63 -55l66 -52q115 -47 324 -47h73q39 6 119 21q102 27 117 84l2 8l2 10v13q0 39 -33 49l-39 6l-55 4l-379 2q-20 4 -29 4 q-57 6 -86 21q-63 25 -63 79v11l4 18q16 72 133 113q57 20 98 22l115 8l338 2l37 144h-774l26 98h1282l-26 -98h-248l-55 -205h-482l-57 -6l-53 -12q-43 -10 -64 -62l-2 -10v-10q0 -33 31 -47l37 -9l45 -2l305 2q84 0 121 -10q53 -8 78 -22q53 -23 57 -84l-2 -13l-2 -20 q-14 -61 -104 -96l-37 -15l-52 -14l-59 -225h-493q-20 0 -52 -13q-72 -16 -116 -75q-25 -29 -37 -72l-4 -14v-23q0 -74 82 -108l14 -7l24 -6h101l-17 17l-12 24l-4 25l2 14l4 14q12 41 109 78l92 23l90 8h49q135 0 189 -64q18 -23 22 -57v-14l-2 -10q-14 -68 -104 -105 l-37 -8l-49 -10h-560q-109 0 -172 43q-74 41 -67 123zM-133 -197q0 -25 14.5 -48t46.5 -44l62 -28q31 -8 63 -7q-92 53 -92 136q0 41 14.5 76.5t43 71.5t51.5 52l61 43q-45 -2 -97 -27t-81 -48q-86 -70 -86 -177zM117 582q0 -25 16 -41q25 -18 53 -27l45 -12l72 -13l-37 19 l-24 14l-31 25q-6 10 -10 28q0 39 41 78q14 12 32 27l31 18l43 25q-29 -4 -67 -16l-48 -15q-117 -47 -116 -110zM377 -229q0 -17 4 -25l14 -22l8 -7l11 -8h170l18 10l16 7l17 12l14 10l8 12l7 13q2 10 2 18q0 25 -29 45l-43 17l-51 4l-56 -7l-55 -20l-41 -27 q-14 -18 -14 -32zM606 63h84l45 164h-84zM606 -303l8 -2h15q29 0 41 4l41 14q31 10 39 54q0 47 -56 71l-22 10l-33 9l16 -9l13 -10l20 -28l8 -39q1 -32 -30 -50l-25 -12zM690 281l55 8q29 4 39 10q94 25 95 96q-1 25 -15 41q-29 41 -100 49l-62 7q14 0 33 -11l31 -16 q12 -8 20 -27l9 -37q0 -47 -52 -94l-10 -6l-12 -6l-14 -8zM805 709h84l45 180h-84z" />
<glyph unicode="&#xf0;" horiz-adv-x="970" d="M-156 -143l2 10l4 24q8 49 51.5 94.5t98.5 71.5q31 14 74 27q25 6 84 12l280 2l54 170l-33 -2q-80 -4 -201 13q-147 20 -213 100q-23 35 -22 78l2 22q0 16 4 25q18 106 151 168q33 16 74 26q25 6 84 13l280 2l56 176h-641l26 98h1133l-27 -98h-264l-67 -187l55 -26 q84 -41 84 -135l-4 -29l-6 -37q-10 -63 -101 -119q-43 -27 -80 -37l-100 -28l-43 -197q32 -6 57 -22q41 -20 69 -62.5t26 -85.5l-3 -30l-6 -31q-10 -49 -63 -92q-96 -78 -277 -107q-80 -12 -163 -12q-238 0 -336.5 53t-98.5 139v13zM-121 -150l2 -14v-16q2 -10 4 -13l6 -16 q8 -20 31 -39.5t58 -32.5q29 -16 69 -24l88 -17l-86 37q-29 12 -43 33l-28 41l-11 29l-4 30q0 39 19 82q31 68 110 119q25 16 66 29q-95 6 -195 -72q-86 -68 -86 -156zM57 463l2 -31l11 -29q8 -16 30 -38q10 -8 56 -35l73 -25l88 -14l-86 37q-49 20 -73 73l-13 27l-2 33 q-4 68 66 145q63 70 131 86q-102 8 -195.5 -70.5t-87.5 -158.5zM74 -166v-16q0 -92 112 -113l74 -6q117 -10 217 45q80 43 105 133l4 25l2 20q0 59 -41 86l-23 15l-22 10l-213 2l-31 -6q-14 0 -22 -4q-57 -10 -97.5 -50.5t-56.5 -97.5l-4 -14l-2 -17zM254 430 q-6 -90 113 -113l73 -6q139 4 217 45q88 45 105 133l4 23l2 23q0 55 -41 88l-22 14l-23 10l-213 2l-31 -6q-14 0 -22 -4q-57 -10 -96 -49t-58 -101l-6 -30zM440 -295q-2 0 78 14q59 10 119 60q33 23 45 51l8 20l6 21l4 23l2 20q0 72 -55 102q-55 41 -155 41q29 -2 49 -18 l39 -31q27 -20 34 -92l-4 -41l-6 -22q-4 -16 -10 -25l-29 -41l-33 -35l-43 -26zM469 86h84l47 176h-86zM621 317l51 7q20 2 67 22q94 41 123 96l15 41l6 43q0 102 -121 136q-43 10 -90 10q29 -3 49 -19l39 -30q27 -31 35 -95l-4 -43l-7 -22l-10 -23q-10 -25 -29 -43l-32 -35 l-43 -26zM659 711h84l45 176h-83z" />
<glyph unicode="&#xf1;" horiz-adv-x="718" d="M47 215v14l4 19q14 68 82 110.5t146 42.5q33 4 56.5 -5t41.5 -27q31 -18 39 -84l-2 -19l-4 -18q-12 -59 -80 -107l-66 -32q-37 -10 -67 -11q-63 0 -107 31l-33 37q-6 14 -10 49zM104 215q4 -14 17 -25l26 -16l35 -4q20 0 33 4l35 16l26 25l15 31v28q0 10 -12 27l-25 16 q-12 6 -33 7q-17 3 -37 -7l-34 -16l-29 -25l-15 -30z" />
<glyph unicode="&#xf2;" />
<glyph unicode="&#xf3;" horiz-adv-x="1810" d="M-25 492l21 71h307q20 4 29 4q27 0 71 11q178 41 215 155l21 64l14 55l2 14l4 21l-626 2l26 98h1872l-26 -98h-168l-238 -889h-260l104 385l-520 -373l-41 94l379 224l-10 30q0 18 -4 29q-6 43 -17 64q-6 31 -14 43l-377 -230l-41 90l387 205l-26 37l-31 33 q-16 14 -37 18l-41 8h-73l-27 -2l-10 -2q-33 -51 -103 -84q-90 -43 -174 -55l-84 -12l-112 -10l-11 -33q0 -16 -4 -25l-12 -72l-2 -63q-4 -117 43 -188q59 -92 197 -93h30l33 2l31 5q20 0 30 4l21 -56l-18 -2l-21 -4h-25l-22 -4l-111 -4q-262 -10 -385 113q-47 47 -67.5 100 t-20.5 131q0 41 4 64l13 65l8 29l10 28zM96 301q-8 -184 199 -276q18 -6 55 -17q4 -2 25 -6l37 -6q-100 29 -164 100q-51 55 -66 142q-4 25 -4 63l6 55l19 70q2 12 10 31l12 32l-88 3l-22 -64l-6 -27l-11 -49zM575 610l58 25q25 10 53 33l39 41q10 10 29 51l8 28l8 35l6 33 l2 31l-78 2l-10 -64l-16 -57l-19 -51l-16 -35l-25 -33zM868 723l25 2l31 4l37 4l45 2l73 -6q14 0 45 -6l43 -10q58 -17 144 -115l35 -49l28 -47l103 387h-566zM948 686q35 2 70 -16q68 -23 117 -138q10 -25 47 -133l78 43q-29 68 -58 107q-61 115 -166 139q-18 4 -43 4 l-22 -2zM1290 33h84l230 856h-84z" />
<glyph unicode="&#xf4;" horiz-adv-x="1832" d="M-88 119l2 22l4 27q8 57 58.5 109.5t111.5 70.5l90 27q33 6 60 2l-13 -2h-37q-41 0 -73 12q-104 33 -105 113l2 16l4 23q8 49 56 100q66 76 227 104q68 12 147 13h43q18 0 46 -4q45 0 79 -9l27 -6l33 -8l-23 -76l-22 15l-17 12l-55 20l-59 9q-61 0 -90 -11 q-66 -8 -109 -69q-25 -35 -35 -74l-4 -16v-19q0 -74 88 -92l66 -4l75 6q35 2 80 21q61 23 74 26q35 16 66 43l98 369h-774l26 98h1872l-26 -98h-838l-66 -244l127 55q133 57 261 58q145 0 202 -31q35 -12 52.5 -38.5t17.5 -70.5l-2 -22l-4 -27q-14 -94 -114.5 -150.5 t-164.5 -56.5q-18 0 -41 7l13 2h10l67 -6q55 -4 96.5 -36t41.5 -83l-2 -19l-5 -20q-10 -51 -57 -101q-76 -80 -227 -102q-82 -14 -146 -12l-77 2q-41 2 -54 4q-25 0 -37 4q-18 0 -26 4l20 80l6 -10l9 -6q25 -18 45 -25l63 -8h58q31 4 98 33q57 31 78 120l4 19l2 18 q0 49 -43 72l-49 16l-64 7h-45q-45 -10 -94 -23.5t-82 -38.5q-25 -12 -47 -35l-64 -229h-260l35 125l-80 -41l-61 -27q-98 -43 -217 -59q-37 -6 -60 -4l-118 6q-49 2 -76 14q-78 27 -78 109zM-45 127l4 -29l10 -26l19 -25l24 -16l35 -11l43 -2h29l16 2l12 3l-32 8l-25 12 l-18 16l-15 25l-10 29l-2 28q-2 29 21 90q4 10 22 35l45 47q14 12 51 29q-63 9 -141 -61q-88 -76 -88 -154zM49 510l2 -23l6 -18q10 -33 49 -49l35 -10l43 -2h29l16 2l13 2l-33 8l-25 12l-18 17l-14 22l-11 25l-2 28q-4 53 49.5 110.5t102.5 72.5q-70 4 -156 -61.5 t-86 -135.5zM164 152q0 -41 25.5 -63.5t74.5 -22.5q119 0 240 63l82 43q27 14 39 31l63 241l-184 -69l-60 -10q-20 0 -32 -5q-20 0 -33 -4h-31l-31 -6q-111 -23 -147 -155q0 -14 -4 -23zM621 33h84l229 856h-84zM909 297l15 8l30 17l39 18l37 14l49 17l54 10l38 6l23 2 l27 -2q18 -2 34 8q125 29 148 156l4 22l2 21q0 86 -100 86h-54q-37 -8 -120 -33q-125 -49 -156 -88zM1212 39q78 0 152 55q84 63 84 137l-4 19l-6 22q-6 20 -21.5 32.5t-36.5 19.5l-43 12l-45 4h-26l-9 -2h-8q39 -6 61.5 -26.5t32.5 -51.5l5 -24l2 -21q0 -66 -43 -113 q-33 -45 -95 -63zM1311 399q77 1 151 56q84 63 84 137l-4 18l-6 23q-6 20 -21.5 32.5t-35.5 18.5l-43 12l-45 4h-27l-8 -2h-8q39 -6 61.5 -26.5t32.5 -50.5l4 -25l2 -21q0 -66 -43 -112q-33 -45 -94 -64z" />
<glyph unicode="&#xf5;" horiz-adv-x="4" d="M-1040 1176l47 20l53 18l45 7q31 0 70 -4l57 -7q47 -4 94 -32q8 -6 31 -21l268 -170h41l-55 53l-123 129l-57 58l-41 37l-35 24l-37 17l-18 6l-19 4l-16 2l-19 2l-43 -6q-18 -2 -39 -15l-6 -6l-8 -6l-20 70l39 8l26 6l72 14l57 5h60q18 0 57 -5q86 -6 145 -43 q33 -20 68 -59l248 -274l16 -7h8q16 0 33 9l29 22l8 8l2 7l-14 -60h94l-27 -98h-717l27 98h10l-65 39l-84 45q-115 61 -178 62q-27 0 -37 -5l-33 -12l-4 -4l-8 -6zM-954 1157q35 0 90 -16q47 -8 106 -41l99 -53l84 -62l98 2q-78 70 -187 117q-145 63 -233 57zM-715 1343 q109 0 301 -210l68 -74l65 -74l99 2l-125 137l-70 72q-63 66 -153 113q-78 43 -127 39zM-240 1282l2 31l7 28q27 123 153 166q70 23 150 23l194 2l-20 -76l-137 12q-20 0 -46 -12l-40 -31q-49 -68 -74 -143l-10 -55l-5 -49l7 -60q2 -29 14 -47l12 -20l15 -17l-74 -10l-41 39 l-31 33l-33 45l-24 49l-12 45zM-215 1272q0 -66 43 -129q20 -31 37.5 -50.5t48.5 -45.5l25 14l-35 47l-23 41q-12 20 -18 57l-6 66q0 154 159 235q-86 8 -158.5 -71.5t-72.5 -163.5zM41 1239v10l4 17q12 49 55 80l45 24l48 8q18 4 32 -6l29 -18l16 -29q6 -10 6 -33l-2 -10 l-2 -16q-6 -25 -20 -43l-33 -35q-18 -14 -43 -25l-45 -8q-25 0 -37 4l-28 19l-19 26z" />
<glyph unicode="&#xf6;" horiz-adv-x="1437" d="M-203 -229q-2 86 56 143q45 45 118 74l78 30l-12 156l-6 31l-8 22l-15 15q-6 6 -18 6l-6 -2l-15 -2l-20 -15l-12 -20l-7 -27l-4 -26q0 -25 4 -35l11 -27l6 -10l10 -8l-123 -43l-4 2l-4 4q-16 16 -19 29l-8 36q0 80 92 140l72 35l47 14l49 4q78 6 117 -57l6 -11l8 -16 l11 -139l217 80l69 -7l-282 -116l8 -84q0 -51 -10 -86q-23 -66 -115 -127q-78 -49 -137 -64l-51 -6l-39 6l-31 19q-12 10 -22.5 31.5t-10.5 50.5zM-174 84l4 -14l12 -15l52 23l-11 8l-4 8l-4 15q-4 86 64 145l-45 -33l-33 -31q-27 -31 -35 -106zM-174 -238q0 -53 37 -67 q18 -6 43 -10l26 2q-12 6 -16 10l-20 22l-9 17l-6 14l-4 17l-2 16q-6 55 19 104q18 45 53 68l-51 -31l-41 -43q-29 -43 -29 -119zM-127 889l27 98h1679l-27 -98h-280l-64 -240h-477l-63 -10q-152 -45 -195 -240l-8 -37l-2 -36q-4 -66 47 -105l55 -22l72 -9l80 7q29 2 82 22 q63 25 73 29q49 23 64 45l39 147h266l-119 -440h-266l57 211l-47 -25l-39 -14q-39 -14 -118 -29l-125 -8h-125q-23 4 -33 4q-180 18 -223 117q-16 37 -15 74l2 37l11 45q47 204 250 270l79 16l111 11l324 2l47 178h-1139zM-66 -178l7 -47q4 -35 36 -41h23l27 14q12 6 20 21 l14 26l5 27l-15 151l-55 -18l-19 -12l-8 -11l-10 -16q-12 -20 -18 -43zM0 266q14 -4 18 -8l17 -10l18 -35l10 -47l27 -313l-2 -41q0 -18 -6 -27l-14 -21l-27 -26l31 16q39 20 55 64q8 23 12 53l-26 317q-2 25 -9.5 40.5t-21.5 21.5l-29 14l-30 4l-15 -2h-8zM238 342 q0 -104 90 -147l75 -23l105 -6q-90 35 -125 82l-21 53l-6 70q0 59 21 110q33 90 125 156q43 31 104 45q-135 8 -254 -98q-55 -49 -88 -115q-27 -72 -26 -127zM909 33h84l107 381h-84zM995 676h84l58 213h-84z" />
<glyph unicode="&#xf7;" horiz-adv-x="1228" d="M-121 199l84 133l19 -39l16 -37q49 -72 160 -111q131 -47 270 -39l102 7q41 2 84 22q82 29 115 115l2 12l4 14v13l2 12q0 27 -8 43t-27 27l-38 14l-46 6l-282 2q-20 4 -31 4q-43 6 -82 21q-92 35 -92 106v13l4 20q18 90 137 135q35 12 95 23l120 8l359 2l43 164h-856 l26 98h1291l-27 -98h-186l-62 -230h-489l-56 -6l-41 -10q-61 -25 -83 -86q-2 -10 -5 -12v-15q0 -31 33 -53l35 -12l43 -4l244 2q27 0 57 -23q27 -14 72 -61l39 -31q12 -6 39 -10l16 -4h43l55 -2h53l37 2h58l32 -2h52l20 2v-76l-45 -2h-104l-66 2h-53l-25 -2h-24l-37 -2 l-12 -2l-5 -8v-8l-4 -9l-2 -8l-6 -14l-6 -6q-35 -94 -176 -142q-63 -20 -115 -24l-133 -8l-70 2q-45 2 -55 4l-39 6l-12 6l41 -147q10 -35 86 -48q25 -4 59 -4h31q37 6 109 29l61 29l-29 -113l-80 -14l-100 -13l-84 -4l-96 6q-49 4 -80 15q-70 18 -104 59q-51 57 -72 164 l-8 41l-8 57l-25 9l-25 12l-22 10l-27 14zM115 76l39 -156q14 -59 110 -92l37 -8l53 -8l-16 6l-10 4q-61 33 -78 94l-35 135zM180 524q0 -25 14.5 -39t47.5 -30l61 -19l62 -6l12 2h8l-61 14q-61 25 -62 74q0 37 19 68q14 23 53 61l28 23l46 26q-31 -4 -68 -16l-45 -14 q-115 -51 -115 -144zM504 86l102 6q131 8 203 76q45 43 45 106q0 45 -41 86q-39 36 -86 50q-29 8 -53 6q47 0 78 -45l14 -41l6 -51q0 -111 -133 -166l-55 -17zM881 684h84l53 205h-84z" />
<glyph unicode="&#xf8;" horiz-adv-x="415" d="M41 506l27 98l6 4l6 6l26 31l21 29l16 31l13 40l2 17l4 24v431q0 86 43 157q88 145 235 146l31 -4l39 -7l209 2v-165h-215q-63 0 -107 -39q-18 -16 -37 -45q-6 -16 -10 -52v-422l-6 -49l-16 -59q-4 -16 -23 -57l-24 -41l-45 -29l36 -35q20 -23 33 -55l29 -76l12 -55 l4 -35v-418q0 -90 88 -112l66 -9h215v-182h-219q-154 0 -246 77t-92 222v428q0 33 -10 57q-6 33 -25 58q-10 25 -39 51q-20 23 -47 37z" />
<glyph unicode="&#xf9;" horiz-adv-x="1150" d="M33 889l26 98h1717l-27 -98h-188l-238 -889h-260l237 889h-233l-57 -217h-533l-51 -6q-23 -2 -43 -15q-14 -4 -35 -24q-12 -16 -18 -39q0 -14 -4 -21l-2 -14q0 -16 4 -25l12 -18l8 -6l14 -10l46 8l73 10l129 10q53 4 133 -10q223 -39 224 -160l-11 -41l-10 -32l-6 -15 l262 2l-18 -69h-262l-25 -56l-25 -35q-76 -88 -231 -88h-61q-18 4 -27 5q-121 23 -121 94v10l4 18q14 63 90 101l52 14l61 6h29l6 -2l4 15l14 55q2 10 4 12l4 10l2 11v12q0 39 -40 61l-50 17q-12 4 -63 6l-266 10q-10 -10 -33 -10q-15 0 -23 2q-43 6 -100 35q-33 16 -53 35 q-12 16 -17 45v10l4 14q18 61 95 101l59 14l78 6l477 2l43 162h-780zM90 580l4 -15q8 -18 23 -30l47 -23l35 -10l51 -8l-25 18l-14 18l-18 27l-5 31l7 35q6 20 22 32l33 25l41 18l-19 2l-14 2q-35 0 -56.5 -7t-56.5 -27l-41 -39q-14 -18 -14 -41v-8zM467 111l2 -9 q10 -37 59 -49l45 -10l43 -2l-26 12l-23 17l-18 16l-10 23q-6 14 -2 41q12 43 71 77q25 14 49 15l-16 2l-12 2q-29 0 -56 -10q-51 -12 -90 -66q-16 -20 -16 -47v-12zM662 471l38 -25q33 -29 39 -73v-8l-2 -11v-2l-26 -94h84l26 94q16 61 -69 94l-37 11zM811 721h84l45 168 h-84zM1114 33h84l229 856h-84z" />
<glyph unicode="&#x152;" horiz-adv-x="921" d="M-31 311l6 76l17 84q17 86 76 186q115 193 270 263q82 35 168 34q68 0 125 -22q109 -43 151 -160q25 -74 21 -127l-6 -82l-19 -88q-18 -90 -82 -196q-111 -190 -274 -256q-82 -33 -170 -33q-135 0 -207 86q-39 43 -57 104q-23 74 -19 131zM23 293q0 -55 12 -95t33 -73 l30 -47l41 -41q-16 43 -24 84l-9 86v43q0 25 5 37l2 28l2 23q0 96 49 237q23 72 49 119l70 127q-84 -34 -166 -192q-31 -61 -64 -150q-23 -90 -28 -145l-2 -19v-22zM186 195q-2 -45 4 -66l13 -45q8 -14 24 -29l39 -8q43 0 84 37q53 45 80 109l51 120l49 162l15 68l14 71 l8 70l4 64v24q0 49 -18 84q-10 33 -57 41q-68 0 -154 -145q-33 -55 -66 -134l-47 -147l-18 -76l-14 -69l-9 -66zM442 121q82 34 164 194q78 147 94 293v8l2 9v24q0 106 -45 168l-32 45q-20 27 -39 43l14 -43l10 -41l6 -43l2 -43l-2 -45l-2 -35q-2 -23 -4 -28v-23l-18 -121 l-31 -116q-27 -100 -119 -246z" />
<glyph unicode="&#x153;" />
<glyph unicode="&#x178;" horiz-adv-x="843" d="M-29 590l23 84h989l-16 -64h-338q-127 -16 -185 -59q-96 -72 -143 -223l-8 -27l-8 -59v-25q0 -74 41 -123q39 -35 104 -41l43 2q23 2 43 11l49 16q18 6 27 16l-27 -98h-159l-19 -2h-29l-133 6q-43 2 -104 27q-127 51 -121 190l2 47l12 51q16 63 56 119q45 63 94 97l47 30 l65 35zM33 889l26 98h906l-27 -98h-905zM47 223q0 -68 30.5 -107.5t100.5 -72.5q41 -12 88 -12q-20 6 -63 33.5t-64 91.5l-8 67q0 59 19 121q29 98 116 180q39 37 90 68q-123 -37 -211 -131q-98 -104 -98 -238z" />
<glyph unicode="&#x2c6;" horiz-adv-x="825" d="M-86 258q0 195 137 375q57 76 146 147q55 45 120 82q90 51 193 86q141 45 281 45l-89 -121q-201 -55 -329 -178q-143 -135 -185 -317l-6 -27l-6 -33q0 -23 -4 -34l-2 -29q-4 -49 20 -96q8 -16 27 -25l45 -8q63 0 111 65l30 56l23 67l8 41l4 45l-6 45l-16 35 q-12 16 -31 25l-43 8q-20 0 -33 -4l-33 -10l144 147l53 4q43 4 94 -18q80 -23 119 -117q14 -39 14 -88l-4 -45q0 -16 -4 -25l-6 -26q-35 -147 -176 -256q-123 -94 -293 -94q-156 0 -227 71q-76 80 -76 207zM-41 225q0 -94 74 -151q35 -27 65 -39q20 -6 62 -10l-43 38l-29 41 q-10 14 -29 62l-8 72q0 217 162 413q123 150 319 250q-8 2 -22 2q-84 0 -213 -100q-47 -37 -102 -92q-236 -236 -236 -486zM287 82l39 8q57 10 116 55q94 72 121 238l2 12v21q0 35 -12 65q-14 55 -76 82q-23 8 -61 12h-8l-11 -2l-37 -30q20 0 43 -13q45 -14 64 -63 q8 -23 12 -59v-19l-2 -8q-12 -80 -28 -117q-20 -84 -91 -139q-29 -23 -71 -43z" />
<glyph unicode="&#x2dc;" horiz-adv-x="1437" d="M-203 -229q-2 86 56 143q45 45 118 74l78 30l-12 156l-6 31l-8 22l-15 15q-6 6 -18 6l-6 -2l-15 -2l-20 -15l-12 -20l-7 -27l-4 -26q0 -25 4 -35l11 -27l6 -10l10 -8l-123 -43l-4 2l-4 4q-16 16 -19 29l-8 36q0 80 92 140l72 35l47 14l49 4q78 6 117 -57l6 -11l8 -16 l11 -139l217 80l69 -7l-282 -116l8 -84q0 -51 -10 -86q-23 -66 -115 -127q-78 -49 -137 -64l-51 -6l-39 6l-31 19q-12 10 -22.5 31.5t-10.5 50.5zM-174 84l4 -14l12 -15l52 23l-11 8l-4 8l-4 15q-4 86 64 145l-45 -33l-33 -31q-27 -31 -35 -106zM-174 -238q0 -53 37 -67 q18 -6 43 -10l26 2q-12 6 -16 10l-20 22l-9 17l-6 14l-4 17l-2 16q-6 55 19 104q18 45 53 68l-51 -31l-41 -43q-29 -43 -29 -119zM-127 889l27 98h1679l-27 -98h-280l-64 -240h-477l-63 -10q-152 -45 -195 -240l-8 -37l-2 -36q-4 -66 47 -105l55 -22l72 -9l80 7q29 2 82 22 q63 25 73 29q49 23 64 45l39 147h266l-119 -440h-266l57 211l-47 -25l-39 -14q-39 -14 -118 -29l-125 -8h-125q-23 4 -33 4q-180 18 -223 117q-16 37 -15 74l2 37l11 45q47 204 250 270l79 16l111 11l324 2l47 178h-1139zM-66 -178l7 -47q4 -35 36 -41h23l27 14q12 6 20 21 l14 26l5 27l-15 151l-55 -18l-19 -12l-8 -11l-10 -16q-12 -20 -18 -43zM0 266q14 -4 18 -8l17 -10l18 -35l10 -47l27 -313l-2 -41q0 -18 -6 -27l-14 -21l-27 -26l31 16q39 20 55 64q8 23 12 53l-26 317q-2 25 -9.5 40.5t-21.5 21.5l-29 14l-30 4l-15 -2h-8zM238 342 q0 -104 90 -147l75 -23l105 -6q-90 35 -125 82l-21 53l-6 70q0 59 21 110q33 90 125 156q43 31 104 45q-135 8 -254 -98q-55 -49 -88 -115q-27 -72 -26 -127zM909 33h84l107 381h-84zM995 676h84l58 213h-84z" />
<glyph unicode="&#x2000;" horiz-adv-x="791" />
<glyph unicode="&#x2001;" horiz-adv-x="1583" />
<glyph unicode="&#x2002;" horiz-adv-x="791" />
<glyph unicode="&#x2003;" horiz-adv-x="1583" />
<glyph unicode="&#x2004;" horiz-adv-x="527" />
<glyph unicode="&#x2005;" horiz-adv-x="395" />
<glyph unicode="&#x2006;" horiz-adv-x="263" />
<glyph unicode="&#x2007;" horiz-adv-x="263" />
<glyph unicode="&#x2008;" horiz-adv-x="197" />
<glyph unicode="&#x2009;" horiz-adv-x="316" />
<glyph unicode="&#x200a;" horiz-adv-x="87" />
<glyph unicode="&#x2010;" horiz-adv-x="0" d="M-1178 -266l2 14l2 19q6 63 87 112q43 27 104 39q10 2 37 2h33l24 -8q43 -10 72 -59l8 -50l-2 -18q-4 -41 -31 -78q-37 -53 -114 -80q-41 -10 -72 -10q-33 0 -57 8q-33 6 -50 25q-35 16 -43 84zM-1118 -236v-28q4 -14 16 -25l27 -16q12 -6 33 -6l34 6l33 16l27 25l14 28 l2 31q-8 31 -39 43l-33 4q-22 0 -34 -4l-35 -16l-27 -25q-12 -10 -18 -33z" />
<glyph unicode="&#x2011;" horiz-adv-x="0" d="M-1178 -266l2 14l2 19q6 63 87 112q43 27 104 39q10 2 37 2h33l24 -8q43 -10 72 -59l8 -50l-2 -18q-4 -41 -31 -78q-37 -53 -114 -80q-41 -10 -72 -10q-33 0 -57 8q-33 6 -50 25q-35 16 -43 84zM-1118 -236v-28q4 -14 16 -25l27 -16q12 -6 33 -6l34 6l33 16l27 25l14 28 l2 31q-8 31 -39 43l-33 4q-22 0 -34 -4l-35 -16l-27 -25q-12 -10 -18 -33z" />
<glyph unicode="&#x2012;" horiz-adv-x="0" d="M-1178 -266l2 14l2 19q6 63 87 112q43 27 104 39q10 2 37 2h33l24 -8q43 -10 72 -59l8 -50l-2 -18q-4 -41 -31 -78q-37 -53 -114 -80q-41 -10 -72 -10q-33 0 -57 8q-33 6 -50 25q-35 16 -43 84zM-1118 -236v-28q4 -14 16 -25l27 -16q12 -6 33 -6l34 6l33 16l27 25l14 28 l2 31q-8 31 -39 43l-33 4q-22 0 -34 -4l-35 -16l-27 -25q-12 -10 -18 -33z" />
<glyph unicode="&#x2013;" horiz-adv-x="1208" d="M-31 330l4 37q0 20 9 45q42 204 247 270l80 16l111 11l323 2l48 178h-758l26 98h1299l-27 -98h-280l-64 -240h-477l-64 -10q-152 -45 -194 -240l-8 -37l-2 -36q-4 -66 47 -105l55 -22l72 -9l80 7q29 2 82 22q63 25 73 29q49 23 64 45l39 147h266l-119 -440h-266l57 211 l-47 -25l-39 -14q-39 -14 -119 -29l-125 -8h-124q-23 4 -33 4q-150 16 -203 84q-33 53 -33 107zM16 342q0 -104 90 -147l76 -23l105 -6q-90 35 -125 82l-21 53l-6 70q0 59 21 110q33 90 125 156q43 31 104 45q-135 8 -254 -98q-55 -49 -88 -115q-27 -72 -27 -127zM264 -274 l2 22l6 31q27 129 185 188q27 10 121 29l153 8l156 -2l-17 -68l-22 5q-16 0 -25 4l-26 4h-31q-86 0 -152 -39q-37 -18 -61.5 -53t-32.5 -74l-6 -29l-2 -28q-4 -55 59 -84l47 -11l70 -4q27 -2 62 10q35 6 73 25l51 25l31 18l-24 -96l-37 -13l-35 -12l-74 -16l-65 -6l-152 6 q-61 2 -104 14q-150 41 -150 146zM309 -266l2 -21q0 -14 4 -20q20 -68 109 -86l80 -17q-70 49 -86 111l-6 25l-2 24q-6 82 77 146q68 53 183 81l-19 3h-26q-199 0 -293 -158q-23 -39 -23 -88zM688 33h84l107 381h-84zM774 676h84l57 213h-84z" />
<glyph unicode="&#x2014;" horiz-adv-x="6" d="M-651 1305l26 102l410 2l131 -508h-188l-27 96l-23 72q-29 90 -53 145q-18 45 -35 70l-24 29l-12 12l-25 14q-10 6 -33 7q-41 0 -67 -9l-60 -18l-8 -6zM-455 1366l27 -16l29 -29l37 -47l24 -51l23 -68l45 -139l10 -37l16 -49l72 2l-109 336l-20 32l-29 33l-39 23l-20 6 l-21 2h-10l-12 2h-23zM0 1116v10l4 17q12 49 55 80l45 24l48 8q18 4 32 -6l29 -18l16 -29q6 -10 7 -33l-3 -10l-2 -16q-6 -25 -20 -43l-33 -35q-18 -14 -43 -25l-45 -8q-25 0 -37 4l-28 19l-19 26z" />
<glyph unicode="&#x2018;" />
<glyph unicode="&#x2019;" horiz-adv-x="1001" d="M-55 338l18 68l320 2l45 6q8 2 39 10q152 45 188 158v8l4 14l2 17l2 14q0 76 -98 96l-64 6h-61q-47 -6 -147 -32l-41 -15l-48 -20l-34 75l53 15l43 14l110 25l95 8l20 82h-362l26 98h1067l-26 -98h-445l-24 -94q28 -9 65 -23l49 -20q88 -53 82 -129l-2 -25l-4 -27 q-25 -98 -168 -163q-111 -51 -231 -64q-41 -4 -96 -4l-5 -31l-4 -57v-43l4 -27l7 -24l10 -21q39 -59 98 -90l60 -22l61 -7l70 2l96 15l33 8l18 -63l-39 -7q-18 0 -29 -4q-27 0 -43 -4q-29 0 -43 -4h-45l-43 -2q-59 -2 -155 14q-35 6 -76 13q-115 33 -176 75q-47 33 -64 72 l-14 33l-10 35l-4 35l-2 36l2 41q0 18 4 23zM76 272l6 -61q0 -90 119 -154q43 -23 100 -43l111 -18l-84 41l-82 45q-82 45 -82 129v18l-2 9v38l2 25l10 37l-88 2l-8 -29l-2 -22v-17zM354 387q207 20 297 127q33 39 33 86q0 76 -57 115q-59 49 -138 49q29 -10 58 -31 q39 -20 51 -65q8 -29 8 -68q0 -35 -16 -68q-29 -51 -131 -104q-20 -10 -47 -20.5t-58 -20.5z" />
<glyph unicode="&#x201a;" horiz-adv-x="501" d="M-160 1303v14l2 8v8l275 2l-11 -30l-8 -29l-4 -29l-2 -24q-6 -61 35 -99q20 -18 60 -31.5t89 -13.5q166 0 248 123l21 47l22 84l283 2l-23 -43l-20 -41q-61 -92 -170 -149q-152 -80 -375 -80q-76 0 -104 4q-217 23 -289 154q-29 53 -29 123zM-125 1305q0 -154 145 -209 q-47 63 -47 153v25l4 16v13zM-100 879l26 98h707l-27 -98h-188l-238 -889h-260l238 889h-258zM-29 23h84l230 856h-84zM459 1098q47 10 82 28l41 21q12 6 32 24q72 57 91 132l-107 2q0 -39 -14 -66l-31 -57l-43 -52q-20 -16 -51 -32z" />
<glyph unicode="&#x201c;" horiz-adv-x="1400" d="M-86 266v37l6 16l2 13q10 57 55 104q45 59 148 94q84 29 172 31l129 2l63 234l7 32l4 33q0 20 -4 29l-13 24q-14 20 -55 21q-72 0 -98 -66l-23 -57l-4 -33v-16l2 -29l8 -30l6 -9l-198 2l-8 9l-2 10l-7 14l-2 17q-2 10 -4 12v16l2 21l4 26q12 74 105.5 121t228.5 47 q193 0 264 -106l19 -45l14 -64l-55 -213h358l-16 -63h-358l-35 -129q-35 -131 -174 -201q-102 -51 -197 -64q-45 -6 -74 -4l-110 7q-43 2 -76 22q-84 37 -84 135zM-47 268q0 -57 49 -96l39 -25l33 -8l-17 15l-14 24l-10 33l-2 39l2 24l8 33l31 74q25 45 47 63l57 50 q29 18 62 30q-47 0 -95 -16q-35 -12 -80 -43q-59 -49 -83 -103q-6 -14 -21 -55l-4 -22zM133 248q-2 -20 4 -37l15 -25l22 -14l27 -4l47 6l45 19q18 10 35 30l20 43l62 234h-97q-18 0 -39 -13q-49 -16 -94 -81q-23 -33 -33 -72l-12 -47zM133 766l2 -21l6 -16l86 2l-10 17 l-2 22v8q2 10 4 13l25 65q25 51 84 86l61 27q-57 -6 -90 -21l-63 -26q-29 -12 -66 -56q-27 -31 -35 -75l-2 -11v-14zM262 152h33q29 8 90 32q78 41 96 111l135 526q0 59 -57 107l-39 18l-37 8l25 -16l16 -25l11 -30l4 -33l-4 -35q0 -12 -9 -43l-129 -475q-4 -23 -22.5 -63.5 t-57.5 -61.5zM784 874l27 99h707l-27 -99h-188l-238 -888h-260l237 888h-258zM856 18h84l229 856h-84z" />
<glyph unicode="&#x201d;" />
<glyph unicode="&#x201e;" horiz-adv-x="825" d="M-180 0l323 371l207 250l25 34l28 45q10 16 15 35l4 21l2 14q0 68 -82 68q-29 0 -63 -9q-43 -10 -70 -22l-62 -29q-41 -18 -67 -37l119 205l63 19l70 16l69 8l68 4q61 4 131 -26q78 -33 105 -84q18 -41 16 -80l-2 -29l-6 -26q-16 -72 -80 -154l-43 -55l-72 -88l-270 -297 l18 -7l27 -4l33 -2h36q72 0 140 19q59 16 141 51l-125 -211h-698zM-76 53h111l483 586l19 39l14 41l6 33q0 80 -49 125q-41 29 -98 36q-16 2 -48 2q-31 0 -49 -8l-43 -18l-14 -10l-12 -9l-8 -12l-7 -8l21 6l24 6l48 8l45 4q70 0 92 -63l8 -41q0 -41 -18 -84q-12 -29 -48 -70 z" />
<glyph unicode="&#x2022;" />
<glyph unicode="&#x2026;" horiz-adv-x="825" d="M-100 6l4 180l47 -24l51 -21l57 -14l56 -4q72 -6 148.5 48t92.5 134l6 29l3 20q0 47 -31 70l-31 22q-12 8 -35 13l-41 6l-116 4l36 131h31l80 2q125 23 162 131l2 15l2 20q0 39 -33 61l-37 17l-45 6q-33 0 -51 -4l-53 -12l-55 -21l-58 -24l92 167l70 15l61 10l60 6l61 4 q100 6 199 -49l33 -29l22 -30q8 -12 15 -35l6 -41l-2 -23l-4 -22q-6 -33 -31 -70q-8 -18 -49 -59l-66 -45q-23 -14 -72 -29q39 -6 68 -26q96 -51 96 -164l-4 -31l-6 -37q-12 -70 -76 -143q-102 -119 -286 -162q-92 -20 -166 -18l-54 2l-51 6q-27 0 -51 8zM119 90l20 -6 l23 -2l20 -4h21q84 0 135 37l53 39q53 39 68 133q2 12 4 30q0 39 -10 62q-12 41 -49 68.5t-80 27.5h-9l-12 -2l-4 2q18 0 41 -12q35 -12 49 -64l8 -51q0 -66 -41 -141q-12 -23 -34 -43l-56 -39q-29 -16 -69 -27zM168 850l59 22q27 10 66 11q84 0 127 -43q14 -14 29 -43 q6 -16 10 -52l-2 -26l-6 -21q-8 -29 -27 -49l-45 -37q-25 -14 -62 -24l-77 -8l18 -9l23 -4q10 -2 12 -4h35q74 0 134 38t70 75l7 31l2 26q2 37 -13.5 73t-46.5 62q-39 43 -129 58q-25 4 -59 4l-31 -4l-31 -11l-28 -14l-15 -10z" />
<glyph unicode="&#x202f;" horiz-adv-x="316" />
<glyph unicode="&#x2039;" horiz-adv-x="825" d="M-119 -29l90 123q205 47 335 172t179 322l9 33l2 14l4 16l4 33l2 37l-6 49q-6 49 -39 66q-16 6 -45 10q-72 0 -113 -68l-33 -55l-20 -59l-12 -56l-5 -43q0 -31 5 -47l18 -35q8 -10 29 -22l45 -8l32 2l33 12l-141 -145l-33 -5l-63 2l-54 13q-45 10 -81 59q-47 59 -48 148 q0 66 15 98q39 158 170 257t299 99q72 0 130 -20.5t95 -54.5q78 -72 78 -207v-25q0 -45 -19 -111q-27 -92 -81 -185t-132 -165q-37 -35 -116 -88q-184 -125 -373 -157q-80 -14 -131 -11zM23 565q0 -100 53 -151q12 -12 28 -23q4 -2 33 -18q43 -14 76 -15l45 52 q-90 0 -139 69q-12 25 -13 58l3 10v8q10 96 34 166q6 16 21 47l37 63q23 31 49 56q-61 -4 -144 -97.5t-83 -224.5zM88 94q10 -2 31 -2q56 0 117 29q102 47 204.5 147.5t153.5 202.5q57 117 57 246q0 92 -53 135q-68 53 -137 49l-31 -2l-27 -6l72 -29l27 -12q55 -37 55 -147 q0 -317 -287 -512q-80 -55 -182 -99z" />
<glyph unicode="&#x203a;" horiz-adv-x="4" d="M-1040 1176l47 20l53 18l45 7q31 0 70 -4l57 -7q47 -4 94 -32q8 -6 31 -21l268 -170h41l-55 53l-123 129l-57 58l-41 37l-35 24l-37 17l-18 6l-19 4l-16 2l-19 2l-43 -6q-18 -2 -39 -15l-6 -6l-8 -6l-20 70l39 8l26 6l72 14l57 5h60q18 0 57 -5q86 -6 145 -43 q33 -20 68 -59l248 -274l16 -7h8q16 0 33 9l29 22l8 8l2 7l-14 -60h94l-27 -98h-717l27 98h10l-65 39l-84 45q-115 61 -178 62q-27 0 -37 -5l-33 -12l-4 -4l-8 -6zM-954 1157q35 0 90 -16q47 -8 106 -41l99 -53l84 -62l98 2q-78 70 -187 117q-145 63 -233 57zM-715 1343 q109 0 301 -210l68 -74l65 -74l99 2l-125 137l-70 72q-63 66 -153 113q-78 43 -127 39zM-240 1282l2 31l7 28q27 123 153 166q70 23 150 23l194 2l-20 -76l-137 12q-20 0 -46 -12l-40 -31q-49 -68 -74 -143l-10 -55l-5 -49l7 -60q2 -29 14 -47l12 -20l15 -17l-74 -10l-41 39 l-31 33l-33 45l-24 49l-12 45zM-215 1272q0 -66 43 -129q20 -31 37.5 -50.5t48.5 -45.5l25 14l-35 47l-23 41q-12 20 -18 57l-6 66q0 154 159 235q-86 8 -158.5 -71.5t-72.5 -163.5zM41 1239v10l4 17q12 49 55 80l45 24l48 8q18 4 32 -6l29 -18l16 -29q6 -10 6 -33l-2 -10 l-2 -16q-6 -25 -20 -43l-33 -35q-18 -14 -43 -25l-45 -8q-25 0 -37 4l-28 19l-19 26z" />
<glyph unicode="&#x205f;" horiz-adv-x="395" />
<glyph unicode="&#x2122;" horiz-adv-x="823" d="M-10 82q0 72 67 133q59 55 138 72l606 131l-39 55l-29 43q-29 43 -65 86l-37 43l-29 19l-35 14l-16 2l-19 4l-167 2q-25 0 -48 -12q-18 -4 -45 -25l-32 -37l-17 -37q0 -23 -4 -32l-2 -17q0 -37 19.5 -54t56.5 -17q63 0 100 47l15 37q6 16 6 47v18l-2 6l155 4v-36l-6 -33 q-12 -68 -93 -102.5t-206 -34.5h-63q-20 4 -29 4q-143 25 -143 118l2 17l4 22q12 68 78.5 122t162.5 54l349 3l65 -15q43 -10 64.5 -22.5t42.5 -32.5l39 -49l49 -70l24 -43l25 -41l-17 -65l-585 -164q-27 -9 -47 -23l-39 -37q-16 -14 -29 -45l-8 -47q0 -49 17.5 -68.5 t56.5 -19.5h12l8 2q66 8 94 53l15 35l6 41l-2 27q0 8 -2 10t-2 4l198 53v-10l2 -8v-18q0 -31 -14 -64q-31 -70 -141 -121q-90 -41 -170 -53l-54 -8l-49 -4q-43 -4 -78 10q-72 10 -100 65q-14 25 -14 62zM25 55q0 -18 10 -35q8 -8 37 -22l51 -18l61 -9q-18 6 -32 17l-27 20 l-19 27l-4 28q0 74 37 117l35 41l39 31q-72 4 -127 -55q-29 -31 -45 -69t-16 -73zM33 889l26 98h1094l-27 -98h-1093zM61 522q0 -18 11 -35l37 -26l51 -19l61 -6q-18 4 -33 15l-26 24l-19 27l-4 28q0 74 37 117l35 41l39 31q-72 4 -127 -55q-29 -31 -45.5 -69t-16.5 -73z M403 35l39 20l35 33q29 35 35 88l-72 -16v-8l2 -13q0 -57 -39 -104zM406 479l34 17l31 26l21 33l8 37l-58 2v-33l-4 -33l-12 -26z" />
<glyph unicode="&#x25fc;" horiz-adv-x="983" d="M0 0v983h983v-983h-983z" />
</font>
</defs>
</svg>
